G04 #@! TF.GenerationSoftware,KiCad,Pcbnew,(5.0.0)*
G04 #@! TF.CreationDate,2019-01-13T17:47:15-08:00*
G04 #@! TF.ProjectId,Soyuz,536F79757A2E6B696361645F70636200,rev?*
G04 #@! TF.SameCoordinates,Original*
G04 #@! TF.FileFunction,Soldermask,Bot*
G04 #@! TF.FilePolarity,Negative*
%FSLAX46Y46*%
G04 Gerber Fmt 4.6, Leading zero omitted, Abs format (unit mm)*
G04 Created by KiCad (PCBNEW (5.0.0)) date 01/13/19 17:47:15*
%MOMM*%
%LPD*%
G01*
G04 APERTURE LIST*
%ADD10C,0.500000*%
%ADD11C,0.300000*%
%ADD12C,0.010000*%
%ADD13O,2.000000X2.000000*%
%ADD14R,2.000000X2.000000*%
%ADD15C,2.650000*%
%ADD16C,2.650000*%
%ADD17C,4.387800*%
%ADD18C,2.150000*%
%ADD19C,3.448000*%
%ADD20C,1.187400*%
G04 APERTURE END LIST*
D10*
X-2613392Y-94876785D02*
X-3041964Y-95019642D01*
X-3756250Y-95019642D01*
X-4041964Y-94876785D01*
X-4184821Y-94733928D01*
X-4327678Y-94448214D01*
X-4327678Y-94162500D01*
X-4184821Y-93876785D01*
X-4041964Y-93733928D01*
X-3756250Y-93591071D01*
X-3184821Y-93448214D01*
X-2899107Y-93305357D01*
X-2756250Y-93162500D01*
X-2613392Y-92876785D01*
X-2613392Y-92591071D01*
X-2756250Y-92305357D01*
X-2899107Y-92162500D01*
X-3184821Y-92019642D01*
X-3899107Y-92019642D01*
X-4327678Y-92162500D01*
X-6041964Y-95019642D02*
X-5756250Y-94876785D01*
X-5613392Y-94733928D01*
X-5470535Y-94448214D01*
X-5470535Y-93591071D01*
X-5613392Y-93305357D01*
X-5756250Y-93162500D01*
X-6041964Y-93019642D01*
X-6470535Y-93019642D01*
X-6756250Y-93162500D01*
X-6899107Y-93305357D01*
X-7041964Y-93591071D01*
X-7041964Y-94448214D01*
X-6899107Y-94733928D01*
X-6756250Y-94876785D01*
X-6470535Y-95019642D01*
X-6041964Y-95019642D01*
X-8041964Y-93019642D02*
X-8756250Y-95019642D01*
X-9470535Y-93019642D02*
X-8756250Y-95019642D01*
X-8470535Y-95733928D01*
X-8327678Y-95876785D01*
X-8041964Y-96019642D01*
X-11899107Y-93019642D02*
X-11899107Y-95019642D01*
X-10613392Y-93019642D02*
X-10613392Y-94591071D01*
X-10756250Y-94876785D01*
X-11041964Y-95019642D01*
X-11470535Y-95019642D01*
X-11756250Y-94876785D01*
X-11899107Y-94733928D01*
X-13041964Y-93019642D02*
X-14613392Y-93019642D01*
X-13041964Y-95019642D01*
X-14613392Y-95019642D01*
X-18041964Y-95019642D02*
X-18041964Y-92019642D01*
X-18041964Y-93162500D02*
X-18327678Y-93019642D01*
X-18899107Y-93019642D01*
X-19184821Y-93162500D01*
X-19327678Y-93305357D01*
X-19470535Y-93591071D01*
X-19470535Y-94448214D01*
X-19327678Y-94733928D01*
X-19184821Y-94876785D01*
X-18899107Y-95019642D01*
X-18327678Y-95019642D01*
X-18041964Y-94876785D01*
X-20470535Y-93019642D02*
X-21184821Y-95019642D01*
X-21899107Y-93019642D02*
X-21184821Y-95019642D01*
X-20899107Y-95733928D01*
X-20756249Y-95876785D01*
X-20470535Y-96019642D01*
X-26613392Y-95019642D02*
X-26613392Y-93448214D01*
X-26470535Y-93162500D01*
X-26184821Y-93019642D01*
X-25613392Y-93019642D01*
X-25327678Y-93162500D01*
X-26613392Y-94876785D02*
X-26327678Y-95019642D01*
X-25613392Y-95019642D01*
X-25327678Y-94876785D01*
X-25184821Y-94591071D01*
X-25184821Y-94305357D01*
X-25327678Y-94019642D01*
X-25613392Y-93876785D01*
X-26327678Y-93876785D01*
X-26613392Y-93733928D01*
X-28041964Y-95019642D02*
X-28041964Y-93019642D01*
X-28041964Y-92019642D02*
X-27899107Y-92162500D01*
X-28041964Y-92305357D01*
X-28184821Y-92162500D01*
X-28041964Y-92019642D01*
X-28041964Y-92305357D01*
X-30041964Y-92019642D02*
X-30327678Y-92019642D01*
X-30613392Y-92162500D01*
X-30756249Y-92305357D01*
X-30899107Y-92591071D01*
X-31041964Y-93162500D01*
X-31041964Y-93876785D01*
X-30899107Y-94448214D01*
X-30756249Y-94733928D01*
X-30613392Y-94876785D01*
X-30327678Y-95019642D01*
X-30041964Y-95019642D01*
X-29756249Y-94876785D01*
X-29613392Y-94733928D01*
X-29470535Y-94448214D01*
X-29327678Y-93876785D01*
X-29327678Y-93162500D01*
X-29470535Y-92591071D01*
X-29613392Y-92305357D01*
X-29756249Y-92162500D01*
X-30041964Y-92019642D01*
X-32041964Y-92019642D02*
X-33899107Y-92019642D01*
X-32899107Y-93162500D01*
X-33327678Y-93162500D01*
X-33613392Y-93305357D01*
X-33756249Y-93448214D01*
X-33899107Y-93733928D01*
X-33899107Y-94448214D01*
X-33756249Y-94733928D01*
X-33613392Y-94876785D01*
X-33327678Y-95019642D01*
X-32470535Y-95019642D01*
X-32184821Y-94876785D01*
X-32041964Y-94733928D01*
D11*
X174852678Y-86491071D02*
X173995535Y-86491071D01*
X174424107Y-87991071D02*
X174424107Y-86491071D01*
X173495535Y-87991071D02*
X173495535Y-86491071D01*
X172852678Y-87991071D02*
X172852678Y-87205357D01*
X172924107Y-87062500D01*
X173066964Y-86991071D01*
X173281250Y-86991071D01*
X173424107Y-87062500D01*
X173495535Y-87133928D01*
X172138392Y-87991071D02*
X172138392Y-86991071D01*
X172138392Y-86491071D02*
X172209821Y-86562500D01*
X172138392Y-86633928D01*
X172066964Y-86562500D01*
X172138392Y-86491071D01*
X172138392Y-86633928D01*
X171495535Y-87919642D02*
X171352678Y-87991071D01*
X171066964Y-87991071D01*
X170924107Y-87919642D01*
X170852678Y-87776785D01*
X170852678Y-87705357D01*
X170924107Y-87562500D01*
X171066964Y-87491071D01*
X171281250Y-87491071D01*
X171424107Y-87419642D01*
X171495535Y-87276785D01*
X171495535Y-87205357D01*
X171424107Y-87062500D01*
X171281250Y-86991071D01*
X171066964Y-86991071D01*
X170924107Y-87062500D01*
X169066964Y-87991071D02*
X169066964Y-86991071D01*
X169066964Y-86491071D02*
X169138392Y-86562500D01*
X169066964Y-86633928D01*
X168995535Y-86562500D01*
X169066964Y-86491071D01*
X169066964Y-86633928D01*
X168424107Y-87919642D02*
X168281250Y-87991071D01*
X167995535Y-87991071D01*
X167852678Y-87919642D01*
X167781250Y-87776785D01*
X167781250Y-87705357D01*
X167852678Y-87562500D01*
X167995535Y-87491071D01*
X168209821Y-87491071D01*
X168352678Y-87419642D01*
X168424107Y-87276785D01*
X168424107Y-87205357D01*
X168352678Y-87062500D01*
X168209821Y-86991071D01*
X167995535Y-86991071D01*
X167852678Y-87062500D01*
X166209821Y-86991071D02*
X165638392Y-86991071D01*
X165995535Y-86491071D02*
X165995535Y-87776785D01*
X165924107Y-87919642D01*
X165781250Y-87991071D01*
X165638392Y-87991071D01*
X165138392Y-87991071D02*
X165138392Y-86491071D01*
X164495535Y-87991071D02*
X164495535Y-87205357D01*
X164566964Y-87062500D01*
X164709821Y-86991071D01*
X164924107Y-86991071D01*
X165066964Y-87062500D01*
X165138392Y-87133928D01*
X163209821Y-87919642D02*
X163352678Y-87991071D01*
X163638392Y-87991071D01*
X163781250Y-87919642D01*
X163852678Y-87776785D01*
X163852678Y-87205357D01*
X163781250Y-87062500D01*
X163638392Y-86991071D01*
X163352678Y-86991071D01*
X163209821Y-87062500D01*
X163138392Y-87205357D01*
X163138392Y-87348214D01*
X163852678Y-87491071D01*
X161352678Y-87991071D02*
X161352678Y-86491071D01*
X161352678Y-87062500D02*
X161209821Y-86991071D01*
X160924107Y-86991071D01*
X160781250Y-87062500D01*
X160709821Y-87133928D01*
X160638392Y-87276785D01*
X160638392Y-87705357D01*
X160709821Y-87848214D01*
X160781250Y-87919642D01*
X160924107Y-87991071D01*
X161209821Y-87991071D01*
X161352678Y-87919642D01*
X159781250Y-87991071D02*
X159924107Y-87919642D01*
X159995535Y-87848214D01*
X160066964Y-87705357D01*
X160066964Y-87276785D01*
X159995535Y-87133928D01*
X159924107Y-87062500D01*
X159781250Y-86991071D01*
X159566964Y-86991071D01*
X159424107Y-87062500D01*
X159352678Y-87133928D01*
X159281250Y-87276785D01*
X159281250Y-87705357D01*
X159352678Y-87848214D01*
X159424107Y-87919642D01*
X159566964Y-87991071D01*
X159781250Y-87991071D01*
X158852678Y-86991071D02*
X158281250Y-86991071D01*
X158638392Y-86491071D02*
X158638392Y-87776785D01*
X158566964Y-87919642D01*
X158424107Y-87991071D01*
X158281250Y-87991071D01*
X157995535Y-86991071D02*
X157424107Y-86991071D01*
X157781250Y-86491071D02*
X157781250Y-87776785D01*
X157709821Y-87919642D01*
X157566964Y-87991071D01*
X157424107Y-87991071D01*
X156709821Y-87991071D02*
X156852678Y-87919642D01*
X156924107Y-87848214D01*
X156995535Y-87705357D01*
X156995535Y-87276785D01*
X156924107Y-87133928D01*
X156852678Y-87062500D01*
X156709821Y-86991071D01*
X156495535Y-86991071D01*
X156352678Y-87062500D01*
X156281250Y-87133928D01*
X156209821Y-87276785D01*
X156209821Y-87705357D01*
X156281250Y-87848214D01*
X156352678Y-87919642D01*
X156495535Y-87991071D01*
X156709821Y-87991071D01*
X155566964Y-87991071D02*
X155566964Y-86991071D01*
X155566964Y-87133928D02*
X155495535Y-87062500D01*
X155352678Y-86991071D01*
X155138392Y-86991071D01*
X154995535Y-87062500D01*
X154924107Y-87205357D01*
X154924107Y-87991071D01*
X154924107Y-87205357D02*
X154852678Y-87062500D01*
X154709821Y-86991071D01*
X154495535Y-86991071D01*
X154352678Y-87062500D01*
X154281250Y-87205357D01*
X154281250Y-87991071D01*
X153638392Y-87919642D02*
X153495535Y-87991071D01*
X153209821Y-87991071D01*
X153066964Y-87919642D01*
X152995535Y-87776785D01*
X152995535Y-87705357D01*
X153066964Y-87562500D01*
X153209821Y-87491071D01*
X153424107Y-87491071D01*
X153566964Y-87419642D01*
X153638392Y-87276785D01*
X153638392Y-87205357D01*
X153566964Y-87062500D01*
X153424107Y-86991071D01*
X153209821Y-86991071D01*
X153066964Y-87062500D01*
X152352678Y-87991071D02*
X152352678Y-86991071D01*
X152352678Y-86491071D02*
X152424107Y-86562500D01*
X152352678Y-86633928D01*
X152281250Y-86562500D01*
X152352678Y-86491071D01*
X152352678Y-86633928D01*
X150995535Y-87991071D02*
X150995535Y-86491071D01*
X150995535Y-87919642D02*
X151138392Y-87991071D01*
X151424107Y-87991071D01*
X151566964Y-87919642D01*
X151638392Y-87848214D01*
X151709821Y-87705357D01*
X151709821Y-87276785D01*
X151638392Y-87133928D01*
X151566964Y-87062500D01*
X151424107Y-86991071D01*
X151138392Y-86991071D01*
X150995535Y-87062500D01*
X149709821Y-87919642D02*
X149852678Y-87991071D01*
X150138392Y-87991071D01*
X150281250Y-87919642D01*
X150352678Y-87776785D01*
X150352678Y-87205357D01*
X150281250Y-87062500D01*
X150138392Y-86991071D01*
X149852678Y-86991071D01*
X149709821Y-87062500D01*
X149638392Y-87205357D01*
X149638392Y-87348214D01*
X150352678Y-87491071D01*
X147638392Y-87991071D02*
X147781250Y-87919642D01*
X147852678Y-87848214D01*
X147924107Y-87705357D01*
X147924107Y-87276785D01*
X147852678Y-87133928D01*
X147781250Y-87062500D01*
X147638392Y-86991071D01*
X147424107Y-86991071D01*
X147281250Y-87062500D01*
X147209821Y-87133928D01*
X147138392Y-87276785D01*
X147138392Y-87705357D01*
X147209821Y-87848214D01*
X147281250Y-87919642D01*
X147424107Y-87991071D01*
X147638392Y-87991071D01*
X146709821Y-86991071D02*
X146138392Y-86991071D01*
X146495535Y-87991071D02*
X146495535Y-86705357D01*
X146424107Y-86562500D01*
X146281250Y-86491071D01*
X146138392Y-86491071D01*
X144709821Y-86991071D02*
X144138392Y-86991071D01*
X144495535Y-86491071D02*
X144495535Y-87776785D01*
X144424107Y-87919642D01*
X144281250Y-87991071D01*
X144138392Y-87991071D01*
X143638392Y-87991071D02*
X143638392Y-86491071D01*
X142995535Y-87991071D02*
X142995535Y-87205357D01*
X143066964Y-87062500D01*
X143209821Y-86991071D01*
X143424107Y-86991071D01*
X143566964Y-87062500D01*
X143638392Y-87133928D01*
X141709821Y-87919642D02*
X141852678Y-87991071D01*
X142138392Y-87991071D01*
X142281250Y-87919642D01*
X142352678Y-87776785D01*
X142352678Y-87205357D01*
X142281250Y-87062500D01*
X142138392Y-86991071D01*
X141852678Y-86991071D01*
X141709821Y-87062500D01*
X141638392Y-87205357D01*
X141638392Y-87348214D01*
X142352678Y-87491071D01*
X139852678Y-86991071D02*
X139852678Y-88491071D01*
X139852678Y-87062500D02*
X139709821Y-86991071D01*
X139424107Y-86991071D01*
X139281250Y-87062500D01*
X139209821Y-87133928D01*
X139138392Y-87276785D01*
X139138392Y-87705357D01*
X139209821Y-87848214D01*
X139281250Y-87919642D01*
X139424107Y-87991071D01*
X139709821Y-87991071D01*
X139852678Y-87919642D01*
X138281250Y-87991071D02*
X138424107Y-87919642D01*
X138495535Y-87776785D01*
X138495535Y-86491071D01*
X137066964Y-87991071D02*
X137066964Y-87205357D01*
X137138392Y-87062500D01*
X137281250Y-86991071D01*
X137566964Y-86991071D01*
X137709821Y-87062500D01*
X137066964Y-87919642D02*
X137209821Y-87991071D01*
X137566964Y-87991071D01*
X137709821Y-87919642D01*
X137781250Y-87776785D01*
X137781250Y-87633928D01*
X137709821Y-87491071D01*
X137566964Y-87419642D01*
X137209821Y-87419642D01*
X137066964Y-87348214D01*
X136566964Y-86991071D02*
X135995535Y-86991071D01*
X136352678Y-86491071D02*
X136352678Y-87776785D01*
X136281250Y-87919642D01*
X136138392Y-87991071D01*
X135995535Y-87991071D01*
X134924107Y-87919642D02*
X135066964Y-87991071D01*
X135352678Y-87991071D01*
X135495535Y-87919642D01*
X135566964Y-87776785D01*
X135566964Y-87205357D01*
X135495535Y-87062500D01*
X135352678Y-86991071D01*
X135066964Y-86991071D01*
X134924107Y-87062500D01*
X134852678Y-87205357D01*
X134852678Y-87348214D01*
X135566964Y-87491071D01*
X169816964Y-68869642D02*
X169602678Y-68941071D01*
X169245535Y-68941071D01*
X169102678Y-68869642D01*
X169031250Y-68798214D01*
X168959821Y-68655357D01*
X168959821Y-68512500D01*
X169031250Y-68369642D01*
X169102678Y-68298214D01*
X169245535Y-68226785D01*
X169531250Y-68155357D01*
X169674107Y-68083928D01*
X169745535Y-68012500D01*
X169816964Y-67869642D01*
X169816964Y-67726785D01*
X169745535Y-67583928D01*
X169674107Y-67512500D01*
X169531250Y-67441071D01*
X169174107Y-67441071D01*
X168959821Y-67512500D01*
X168102678Y-68941071D02*
X168245535Y-68869642D01*
X168316964Y-68798214D01*
X168388392Y-68655357D01*
X168388392Y-68226785D01*
X168316964Y-68083928D01*
X168245535Y-68012500D01*
X168102678Y-67941071D01*
X167888392Y-67941071D01*
X167745535Y-68012500D01*
X167674107Y-68083928D01*
X167602678Y-68226785D01*
X167602678Y-68655357D01*
X167674107Y-68798214D01*
X167745535Y-68869642D01*
X167888392Y-68941071D01*
X168102678Y-68941071D01*
X167102678Y-67941071D02*
X166745535Y-68941071D01*
X166388392Y-67941071D02*
X166745535Y-68941071D01*
X166888392Y-69298214D01*
X166959821Y-69369642D01*
X167102678Y-69441071D01*
X165174107Y-67941071D02*
X165174107Y-68941071D01*
X165816964Y-67941071D02*
X165816964Y-68726785D01*
X165745535Y-68869642D01*
X165602678Y-68941071D01*
X165388392Y-68941071D01*
X165245535Y-68869642D01*
X165174107Y-68798214D01*
X164602678Y-67941071D02*
X163816964Y-67941071D01*
X164602678Y-68941071D01*
X163816964Y-68941071D01*
X162102678Y-68941071D02*
X162102678Y-67441071D01*
X161245535Y-68941071D01*
X161245535Y-67441071D01*
X159888392Y-67941071D02*
X159888392Y-68941071D01*
X160531250Y-67941071D02*
X160531250Y-68726785D01*
X160459821Y-68869642D01*
X160316964Y-68941071D01*
X160102678Y-68941071D01*
X159959821Y-68869642D01*
X159888392Y-68798214D01*
X159174107Y-68941071D02*
X159174107Y-67941071D01*
X159174107Y-68083928D02*
X159102678Y-68012500D01*
X158959821Y-67941071D01*
X158745535Y-67941071D01*
X158602678Y-68012500D01*
X158531250Y-68155357D01*
X158531250Y-68941071D01*
X158531250Y-68155357D02*
X158459821Y-68012500D01*
X158316964Y-67941071D01*
X158102678Y-67941071D01*
X157959821Y-68012500D01*
X157888392Y-68155357D01*
X157888392Y-68941071D01*
X157174107Y-67941071D02*
X157174107Y-69441071D01*
X157174107Y-68012500D02*
X157031250Y-67941071D01*
X156745535Y-67941071D01*
X156602678Y-68012500D01*
X156531250Y-68083928D01*
X156459821Y-68226785D01*
X156459821Y-68655357D01*
X156531250Y-68798214D01*
X156602678Y-68869642D01*
X156745535Y-68941071D01*
X157031250Y-68941071D01*
X157174107Y-68869642D01*
X155174107Y-68941071D02*
X155174107Y-68155357D01*
X155245535Y-68012500D01*
X155388392Y-67941071D01*
X155674107Y-67941071D01*
X155816964Y-68012500D01*
X155174107Y-68869642D02*
X155316964Y-68941071D01*
X155674107Y-68941071D01*
X155816964Y-68869642D01*
X155888392Y-68726785D01*
X155888392Y-68583928D01*
X155816964Y-68441071D01*
X155674107Y-68369642D01*
X155316964Y-68369642D01*
X155174107Y-68298214D01*
X153816964Y-68941071D02*
X153816964Y-67441071D01*
X153816964Y-68869642D02*
X153959821Y-68941071D01*
X154245535Y-68941071D01*
X154388392Y-68869642D01*
X154459821Y-68798214D01*
X154531250Y-68655357D01*
X154531250Y-68226785D01*
X154459821Y-68083928D01*
X154388392Y-68012500D01*
X154245535Y-67941071D01*
X153959821Y-67941071D01*
X153816964Y-68012500D01*
X151959821Y-68941071D02*
X151959821Y-67441071D01*
X151102678Y-68941071D02*
X151745535Y-68083928D01*
X151102678Y-67441071D02*
X151959821Y-68298214D01*
X150459821Y-68941071D02*
X150459821Y-67941071D01*
X150459821Y-67441071D02*
X150531250Y-67512500D01*
X150459821Y-67583928D01*
X150388392Y-67512500D01*
X150459821Y-67441071D01*
X150459821Y-67583928D01*
X149959821Y-67941071D02*
X149388392Y-67941071D01*
X149745535Y-67441071D02*
X149745535Y-68726785D01*
X149674107Y-68869642D01*
X149531250Y-68941071D01*
X149388392Y-68941071D01*
X146888392Y-68941071D02*
X147388392Y-68226785D01*
X147745535Y-68941071D02*
X147745535Y-67441071D01*
X147174107Y-67441071D01*
X147031250Y-67512500D01*
X146959821Y-67583928D01*
X146888392Y-67726785D01*
X146888392Y-67941071D01*
X146959821Y-68083928D01*
X147031250Y-68155357D01*
X147174107Y-68226785D01*
X147745535Y-68226785D01*
X145674107Y-68869642D02*
X145816964Y-68941071D01*
X146102678Y-68941071D01*
X146245535Y-68869642D01*
X146316964Y-68726785D01*
X146316964Y-68155357D01*
X146245535Y-68012500D01*
X146102678Y-67941071D01*
X145816964Y-67941071D01*
X145674107Y-68012500D01*
X145602678Y-68155357D01*
X145602678Y-68298214D01*
X146316964Y-68441071D01*
X145102678Y-67941071D02*
X144745535Y-68941071D01*
X144388392Y-67941071D01*
X141888392Y-68941071D02*
X142745535Y-68941071D01*
X142316964Y-68941071D02*
X142316964Y-67441071D01*
X142459821Y-67655357D01*
X142602678Y-67798214D01*
X142745535Y-67869642D01*
X141245535Y-68798214D02*
X141174107Y-68869642D01*
X141245535Y-68941071D01*
X141316964Y-68869642D01*
X141245535Y-68798214D01*
X141245535Y-68941071D01*
X140245535Y-67441071D02*
X140102678Y-67441071D01*
X139959821Y-67512500D01*
X139888392Y-67583928D01*
X139816964Y-67726785D01*
X139745535Y-68012500D01*
X139745535Y-68369642D01*
X139816964Y-68655357D01*
X139888392Y-68798214D01*
X139959821Y-68869642D01*
X140102678Y-68941071D01*
X140245535Y-68941071D01*
X140388392Y-68869642D01*
X140459821Y-68798214D01*
X140531250Y-68655357D01*
X140602678Y-68369642D01*
X140602678Y-68012500D01*
X140531250Y-67726785D01*
X140459821Y-67583928D01*
X140388392Y-67512500D01*
X140245535Y-67441071D01*
D12*
G04 #@! TO.C,G\002A\002A\002A*
G36*
X-19069049Y-65244133D02*
X-17341850Y-65244133D01*
X-17341850Y-63516933D01*
X-19069049Y-63516933D01*
X-19069049Y-65244133D01*
X-19069049Y-65244133D01*
G37*
X-19069049Y-65244133D02*
X-17341850Y-65244133D01*
X-17341850Y-63516933D01*
X-19069049Y-63516933D01*
X-19069049Y-65244133D01*
G36*
X-20796249Y-68596933D02*
X-19069049Y-68596933D01*
X-19069049Y-66971333D01*
X-20796249Y-66971333D01*
X-20796249Y-68596933D01*
X-20796249Y-68596933D01*
G37*
X-20796249Y-68596933D02*
X-19069049Y-68596933D01*
X-19069049Y-66971333D01*
X-20796249Y-66971333D01*
X-20796249Y-68596933D01*
G36*
X-17341850Y-68596933D02*
X-15716250Y-68596933D01*
X-15716250Y-66971333D01*
X-17341850Y-66971333D01*
X-17341850Y-68596933D01*
X-17341850Y-68596933D01*
G37*
X-17341850Y-68596933D02*
X-15716250Y-68596933D01*
X-15716250Y-66971333D01*
X-17341850Y-66971333D01*
X-17341850Y-68596933D01*
G36*
X-22421850Y-72051333D02*
X-20796249Y-72051333D01*
X-20796249Y-70324133D01*
X-22421850Y-70324133D01*
X-22421850Y-72051333D01*
X-22421850Y-72051333D01*
G37*
X-22421850Y-72051333D02*
X-20796249Y-72051333D01*
X-20796249Y-70324133D01*
X-22421850Y-70324133D01*
X-22421850Y-72051333D01*
G36*
X-19069049Y-72051333D02*
X-17341850Y-72051333D01*
X-17341850Y-70324133D01*
X-19069049Y-70324133D01*
X-19069049Y-72051333D01*
X-19069049Y-72051333D01*
G37*
X-19069049Y-72051333D02*
X-17341850Y-72051333D01*
X-17341850Y-70324133D01*
X-19069049Y-70324133D01*
X-19069049Y-72051333D01*
G36*
X-15716250Y-72051333D02*
X-13989050Y-72051333D01*
X-13989050Y-70324133D01*
X-15716250Y-70324133D01*
X-15716250Y-72051333D01*
X-15716250Y-72051333D01*
G37*
X-15716250Y-72051333D02*
X-13989050Y-72051333D01*
X-13989050Y-70324133D01*
X-15716250Y-70324133D01*
X-15716250Y-72051333D01*
G36*
X-24149050Y-75404133D02*
X-22421850Y-75404133D01*
X-22421850Y-73676933D01*
X-24149050Y-73676933D01*
X-24149050Y-75404133D01*
X-24149050Y-75404133D01*
G37*
X-24149050Y-75404133D02*
X-22421850Y-75404133D01*
X-22421850Y-73676933D01*
X-24149050Y-73676933D01*
X-24149050Y-75404133D01*
G36*
X-13989050Y-75404133D02*
X-12261849Y-75404133D01*
X-12261849Y-73676933D01*
X-13989050Y-73676933D01*
X-13989050Y-75404133D01*
X-13989050Y-75404133D01*
G37*
X-13989050Y-75404133D02*
X-12261849Y-75404133D01*
X-12261849Y-73676933D01*
X-13989050Y-73676933D01*
X-13989050Y-75404133D01*
G36*
X-18273183Y-57169656D02*
X-18802755Y-57175504D01*
X-19279392Y-57193240D01*
X-19717123Y-57224587D01*
X-20129981Y-57271267D01*
X-20531995Y-57335003D01*
X-20937196Y-57417517D01*
X-21359615Y-57520532D01*
X-21552803Y-57572318D01*
X-22442605Y-57850667D01*
X-23304847Y-58189164D01*
X-24136261Y-58586117D01*
X-24933580Y-59039836D01*
X-25693537Y-59548629D01*
X-26342690Y-60052097D01*
X-27015409Y-60652525D01*
X-27644046Y-61298691D01*
X-28225683Y-61986040D01*
X-28757404Y-62710018D01*
X-29236291Y-63466070D01*
X-29659427Y-64249640D01*
X-30023895Y-65056173D01*
X-30326778Y-65881116D01*
X-30534795Y-66597960D01*
X-30675896Y-67195233D01*
X-30784099Y-67758158D01*
X-30862574Y-68309720D01*
X-30914490Y-68872904D01*
X-30943015Y-69470693D01*
X-30945804Y-69579066D01*
X-30934201Y-70510466D01*
X-30856570Y-71426875D01*
X-30712934Y-72328167D01*
X-30503317Y-73214218D01*
X-30227743Y-74084900D01*
X-29953835Y-74784344D01*
X-29834018Y-75062808D01*
X-29731352Y-75293881D01*
X-29638045Y-75493147D01*
X-29546305Y-75676189D01*
X-29448340Y-75858589D01*
X-29336358Y-76055931D01*
X-29212091Y-76267733D01*
X-28703424Y-77062490D01*
X-28148311Y-77807984D01*
X-27546186Y-78504783D01*
X-26896484Y-79153451D01*
X-26198638Y-79754554D01*
X-25452085Y-80308657D01*
X-24673983Y-80805841D01*
X-24448577Y-80937975D01*
X-24252681Y-81048808D01*
X-24070713Y-81146131D01*
X-23887089Y-81237736D01*
X-23686227Y-81331415D01*
X-23452544Y-81434960D01*
X-23190594Y-81547585D01*
X-22779998Y-81716322D01*
X-22401470Y-81857287D01*
X-22029782Y-81978833D01*
X-21639707Y-82089312D01*
X-21287316Y-82177773D01*
X-20585379Y-82329472D01*
X-19915109Y-82439026D01*
X-19257069Y-82508742D01*
X-18591818Y-82540925D01*
X-18205450Y-82543388D01*
X-17986917Y-82541191D01*
X-17781600Y-82538181D01*
X-17602910Y-82534629D01*
X-17464261Y-82530802D01*
X-17379065Y-82526971D01*
X-17375716Y-82526730D01*
X-16453375Y-82424536D01*
X-15545612Y-82258193D01*
X-14656093Y-82029057D01*
X-13788485Y-81738480D01*
X-12946452Y-81387819D01*
X-12133660Y-80978427D01*
X-11353774Y-80511659D01*
X-10709696Y-80063528D01*
X-9971871Y-79473249D01*
X-9286288Y-78840240D01*
X-8653905Y-78165900D01*
X-8075679Y-77451629D01*
X-7552566Y-76698826D01*
X-7085523Y-75908889D01*
X-6675507Y-75083217D01*
X-6323476Y-74223210D01*
X-6030385Y-73330267D01*
X-5978568Y-73146553D01*
X-5866072Y-72712231D01*
X-5774829Y-72301246D01*
X-5703115Y-71899567D01*
X-5649209Y-71493164D01*
X-5611387Y-71068005D01*
X-5587926Y-70610061D01*
X-5577105Y-70105301D01*
X-5575906Y-69866933D01*
X-5578789Y-69630726D01*
X-7848970Y-69630726D01*
X-7849412Y-69972649D01*
X-7856516Y-70312551D01*
X-7870154Y-70633089D01*
X-7890195Y-70916921D01*
X-7906066Y-71069199D01*
X-8042061Y-71911003D01*
X-8241108Y-72728562D01*
X-8502440Y-73520279D01*
X-8825292Y-74284554D01*
X-9208897Y-75019789D01*
X-9652489Y-75724386D01*
X-10155304Y-76396745D01*
X-10716573Y-77035267D01*
X-10811872Y-77134309D01*
X-11384605Y-77676493D01*
X-12006267Y-78179686D01*
X-12665341Y-78635450D01*
X-13350304Y-79035349D01*
X-13545669Y-79136415D01*
X-13863144Y-79292785D01*
X-14141508Y-79421720D01*
X-14399628Y-79530808D01*
X-14656370Y-79627637D01*
X-14930601Y-79719795D01*
X-15208250Y-79805103D01*
X-16015557Y-80015932D01*
X-16808095Y-80162922D01*
X-17592046Y-80246645D01*
X-18373594Y-80267674D01*
X-19158924Y-80226580D01*
X-19442836Y-80196797D01*
X-20242117Y-80073305D01*
X-21008330Y-79894920D01*
X-21752172Y-79658441D01*
X-22484339Y-79360672D01*
X-22898023Y-79163560D01*
X-23626053Y-78764974D01*
X-24306228Y-78322369D01*
X-24941782Y-77832822D01*
X-25535948Y-77293412D01*
X-26091958Y-76701219D01*
X-26613046Y-76053320D01*
X-27074989Y-75389240D01*
X-27182191Y-75213488D01*
X-27307303Y-74991077D01*
X-27442557Y-74737450D01*
X-27580190Y-74468053D01*
X-27712435Y-74198330D01*
X-27831527Y-73943724D01*
X-27929700Y-73719681D01*
X-27987034Y-73575333D01*
X-28255270Y-72758091D01*
X-28457492Y-71935739D01*
X-28593528Y-71110586D01*
X-28663206Y-70284943D01*
X-28666353Y-69461121D01*
X-28602797Y-68641430D01*
X-28472365Y-67828181D01*
X-28430537Y-67631733D01*
X-28286968Y-67050217D01*
X-28123524Y-66511834D01*
X-27931788Y-65992962D01*
X-27703346Y-65469977D01*
X-27542665Y-65139419D01*
X-27142858Y-64419002D01*
X-26687074Y-63734472D01*
X-26178588Y-63088903D01*
X-25620676Y-62485366D01*
X-25016614Y-61926933D01*
X-24369676Y-61416676D01*
X-23683139Y-60957668D01*
X-22960278Y-60552981D01*
X-22345104Y-60264846D01*
X-21612822Y-59981562D01*
X-20876593Y-59759704D01*
X-20127847Y-59597534D01*
X-19358013Y-59493310D01*
X-18558523Y-59445293D01*
X-18290116Y-59441496D01*
X-17444914Y-59468677D01*
X-16627302Y-59556758D01*
X-15833980Y-59706739D01*
X-15061645Y-59919617D01*
X-14306996Y-60196390D01*
X-13566730Y-60538057D01*
X-12837546Y-60945615D01*
X-12407906Y-61219575D01*
X-11812991Y-61652760D01*
X-11240413Y-62141319D01*
X-10697171Y-62677045D01*
X-10190266Y-63251731D01*
X-9726698Y-63857171D01*
X-9313466Y-64485159D01*
X-8957570Y-65127487D01*
X-8809108Y-65438608D01*
X-8547122Y-66056674D01*
X-8332802Y-66650759D01*
X-8161041Y-67239337D01*
X-8026727Y-67840885D01*
X-7924754Y-68473876D01*
X-7888910Y-68766266D01*
X-7868590Y-69010192D01*
X-7855320Y-69304126D01*
X-7848970Y-69630726D01*
X-5578789Y-69630726D01*
X-5583353Y-69256819D01*
X-5608414Y-68698454D01*
X-5653531Y-68177572D01*
X-5721146Y-67679909D01*
X-5813700Y-67191202D01*
X-5933634Y-66697186D01*
X-6083390Y-66183596D01*
X-6265410Y-65636169D01*
X-6332372Y-65447333D01*
X-6666813Y-64616531D01*
X-7062932Y-63812973D01*
X-7519917Y-63037776D01*
X-8036953Y-62292062D01*
X-8613227Y-61576948D01*
X-9247924Y-60893554D01*
X-9940231Y-60243000D01*
X-10396072Y-59858232D01*
X-10762274Y-59578794D01*
X-11178441Y-59291536D01*
X-11629040Y-59005893D01*
X-12098537Y-58731302D01*
X-12571400Y-58477198D01*
X-13032095Y-58253019D01*
X-13057716Y-58241315D01*
X-13356215Y-58113858D01*
X-13702588Y-57979945D01*
X-14078189Y-57845888D01*
X-14464373Y-57717996D01*
X-14842496Y-57602581D01*
X-15193910Y-57505952D01*
X-15329956Y-57472274D01*
X-15727714Y-57383666D01*
X-16107337Y-57312582D01*
X-16482824Y-57257583D01*
X-16868172Y-57217230D01*
X-17277382Y-57190083D01*
X-17724450Y-57174704D01*
X-18223376Y-57169652D01*
X-18273183Y-57169656D01*
X-18273183Y-57169656D01*
G37*
X-18273183Y-57169656D02*
X-18802755Y-57175504D01*
X-19279392Y-57193240D01*
X-19717123Y-57224587D01*
X-20129981Y-57271267D01*
X-20531995Y-57335003D01*
X-20937196Y-57417517D01*
X-21359615Y-57520532D01*
X-21552803Y-57572318D01*
X-22442605Y-57850667D01*
X-23304847Y-58189164D01*
X-24136261Y-58586117D01*
X-24933580Y-59039836D01*
X-25693537Y-59548629D01*
X-26342690Y-60052097D01*
X-27015409Y-60652525D01*
X-27644046Y-61298691D01*
X-28225683Y-61986040D01*
X-28757404Y-62710018D01*
X-29236291Y-63466070D01*
X-29659427Y-64249640D01*
X-30023895Y-65056173D01*
X-30326778Y-65881116D01*
X-30534795Y-66597960D01*
X-30675896Y-67195233D01*
X-30784099Y-67758158D01*
X-30862574Y-68309720D01*
X-30914490Y-68872904D01*
X-30943015Y-69470693D01*
X-30945804Y-69579066D01*
X-30934201Y-70510466D01*
X-30856570Y-71426875D01*
X-30712934Y-72328167D01*
X-30503317Y-73214218D01*
X-30227743Y-74084900D01*
X-29953835Y-74784344D01*
X-29834018Y-75062808D01*
X-29731352Y-75293881D01*
X-29638045Y-75493147D01*
X-29546305Y-75676189D01*
X-29448340Y-75858589D01*
X-29336358Y-76055931D01*
X-29212091Y-76267733D01*
X-28703424Y-77062490D01*
X-28148311Y-77807984D01*
X-27546186Y-78504783D01*
X-26896484Y-79153451D01*
X-26198638Y-79754554D01*
X-25452085Y-80308657D01*
X-24673983Y-80805841D01*
X-24448577Y-80937975D01*
X-24252681Y-81048808D01*
X-24070713Y-81146131D01*
X-23887089Y-81237736D01*
X-23686227Y-81331415D01*
X-23452544Y-81434960D01*
X-23190594Y-81547585D01*
X-22779998Y-81716322D01*
X-22401470Y-81857287D01*
X-22029782Y-81978833D01*
X-21639707Y-82089312D01*
X-21287316Y-82177773D01*
X-20585379Y-82329472D01*
X-19915109Y-82439026D01*
X-19257069Y-82508742D01*
X-18591818Y-82540925D01*
X-18205450Y-82543388D01*
X-17986917Y-82541191D01*
X-17781600Y-82538181D01*
X-17602910Y-82534629D01*
X-17464261Y-82530802D01*
X-17379065Y-82526971D01*
X-17375716Y-82526730D01*
X-16453375Y-82424536D01*
X-15545612Y-82258193D01*
X-14656093Y-82029057D01*
X-13788485Y-81738480D01*
X-12946452Y-81387819D01*
X-12133660Y-80978427D01*
X-11353774Y-80511659D01*
X-10709696Y-80063528D01*
X-9971871Y-79473249D01*
X-9286288Y-78840240D01*
X-8653905Y-78165900D01*
X-8075679Y-77451629D01*
X-7552566Y-76698826D01*
X-7085523Y-75908889D01*
X-6675507Y-75083217D01*
X-6323476Y-74223210D01*
X-6030385Y-73330267D01*
X-5978568Y-73146553D01*
X-5866072Y-72712231D01*
X-5774829Y-72301246D01*
X-5703115Y-71899567D01*
X-5649209Y-71493164D01*
X-5611387Y-71068005D01*
X-5587926Y-70610061D01*
X-5577105Y-70105301D01*
X-5575906Y-69866933D01*
X-5578789Y-69630726D01*
X-7848970Y-69630726D01*
X-7849412Y-69972649D01*
X-7856516Y-70312551D01*
X-7870154Y-70633089D01*
X-7890195Y-70916921D01*
X-7906066Y-71069199D01*
X-8042061Y-71911003D01*
X-8241108Y-72728562D01*
X-8502440Y-73520279D01*
X-8825292Y-74284554D01*
X-9208897Y-75019789D01*
X-9652489Y-75724386D01*
X-10155304Y-76396745D01*
X-10716573Y-77035267D01*
X-10811872Y-77134309D01*
X-11384605Y-77676493D01*
X-12006267Y-78179686D01*
X-12665341Y-78635450D01*
X-13350304Y-79035349D01*
X-13545669Y-79136415D01*
X-13863144Y-79292785D01*
X-14141508Y-79421720D01*
X-14399628Y-79530808D01*
X-14656370Y-79627637D01*
X-14930601Y-79719795D01*
X-15208250Y-79805103D01*
X-16015557Y-80015932D01*
X-16808095Y-80162922D01*
X-17592046Y-80246645D01*
X-18373594Y-80267674D01*
X-19158924Y-80226580D01*
X-19442836Y-80196797D01*
X-20242117Y-80073305D01*
X-21008330Y-79894920D01*
X-21752172Y-79658441D01*
X-22484339Y-79360672D01*
X-22898023Y-79163560D01*
X-23626053Y-78764974D01*
X-24306228Y-78322369D01*
X-24941782Y-77832822D01*
X-25535948Y-77293412D01*
X-26091958Y-76701219D01*
X-26613046Y-76053320D01*
X-27074989Y-75389240D01*
X-27182191Y-75213488D01*
X-27307303Y-74991077D01*
X-27442557Y-74737450D01*
X-27580190Y-74468053D01*
X-27712435Y-74198330D01*
X-27831527Y-73943724D01*
X-27929700Y-73719681D01*
X-27987034Y-73575333D01*
X-28255270Y-72758091D01*
X-28457492Y-71935739D01*
X-28593528Y-71110586D01*
X-28663206Y-70284943D01*
X-28666353Y-69461121D01*
X-28602797Y-68641430D01*
X-28472365Y-67828181D01*
X-28430537Y-67631733D01*
X-28286968Y-67050217D01*
X-28123524Y-66511834D01*
X-27931788Y-65992962D01*
X-27703346Y-65469977D01*
X-27542665Y-65139419D01*
X-27142858Y-64419002D01*
X-26687074Y-63734472D01*
X-26178588Y-63088903D01*
X-25620676Y-62485366D01*
X-25016614Y-61926933D01*
X-24369676Y-61416676D01*
X-23683139Y-60957668D01*
X-22960278Y-60552981D01*
X-22345104Y-60264846D01*
X-21612822Y-59981562D01*
X-20876593Y-59759704D01*
X-20127847Y-59597534D01*
X-19358013Y-59493310D01*
X-18558523Y-59445293D01*
X-18290116Y-59441496D01*
X-17444914Y-59468677D01*
X-16627302Y-59556758D01*
X-15833980Y-59706739D01*
X-15061645Y-59919617D01*
X-14306996Y-60196390D01*
X-13566730Y-60538057D01*
X-12837546Y-60945615D01*
X-12407906Y-61219575D01*
X-11812991Y-61652760D01*
X-11240413Y-62141319D01*
X-10697171Y-62677045D01*
X-10190266Y-63251731D01*
X-9726698Y-63857171D01*
X-9313466Y-64485159D01*
X-8957570Y-65127487D01*
X-8809108Y-65438608D01*
X-8547122Y-66056674D01*
X-8332802Y-66650759D01*
X-8161041Y-67239337D01*
X-8026727Y-67840885D01*
X-7924754Y-68473876D01*
X-7888910Y-68766266D01*
X-7868590Y-69010192D01*
X-7855320Y-69304126D01*
X-7848970Y-69630726D01*
X-5578789Y-69630726D01*
X-5583353Y-69256819D01*
X-5608414Y-68698454D01*
X-5653531Y-68177572D01*
X-5721146Y-67679909D01*
X-5813700Y-67191202D01*
X-5933634Y-66697186D01*
X-6083390Y-66183596D01*
X-6265410Y-65636169D01*
X-6332372Y-65447333D01*
X-6666813Y-64616531D01*
X-7062932Y-63812973D01*
X-7519917Y-63037776D01*
X-8036953Y-62292062D01*
X-8613227Y-61576948D01*
X-9247924Y-60893554D01*
X-9940231Y-60243000D01*
X-10396072Y-59858232D01*
X-10762274Y-59578794D01*
X-11178441Y-59291536D01*
X-11629040Y-59005893D01*
X-12098537Y-58731302D01*
X-12571400Y-58477198D01*
X-13032095Y-58253019D01*
X-13057716Y-58241315D01*
X-13356215Y-58113858D01*
X-13702588Y-57979945D01*
X-14078189Y-57845888D01*
X-14464373Y-57717996D01*
X-14842496Y-57602581D01*
X-15193910Y-57505952D01*
X-15329956Y-57472274D01*
X-15727714Y-57383666D01*
X-16107337Y-57312582D01*
X-16482824Y-57257583D01*
X-16868172Y-57217230D01*
X-17277382Y-57190083D01*
X-17724450Y-57174704D01*
X-18223376Y-57169652D01*
X-18273183Y-57169656D01*
G04 #@! TD*
D13*
G04 #@! TO.C,D1*
X42862500Y-49212500D03*
D14*
X35242500Y-49212500D03*
G04 #@! TD*
D13*
G04 #@! TO.C,D2*
X61912500Y-68262500D03*
D14*
X54292500Y-68262500D03*
G04 #@! TD*
D13*
G04 #@! TO.C,D3*
X87312500Y-36036250D03*
D14*
X87312500Y-43656250D03*
G04 #@! TD*
G04 #@! TO.C,D4*
X92392500Y-49212500D03*
D13*
X100012500Y-49212500D03*
G04 #@! TD*
G04 #@! TO.C,D5*
X42862500Y-68262500D03*
D14*
X35242500Y-68262500D03*
G04 #@! TD*
G04 #@! TO.C,D6*
X73342500Y-68262500D03*
D13*
X80962500Y-68262500D03*
G04 #@! TD*
G04 #@! TO.C,D7*
X80962500Y-49212500D03*
D14*
X73342500Y-49212500D03*
G04 #@! TD*
G04 #@! TO.C,D8*
X87312500Y-72231250D03*
D13*
X87312500Y-64611250D03*
G04 #@! TD*
G04 #@! TO.C,D9*
X49212500Y-72548750D03*
D14*
X49212500Y-80168750D03*
G04 #@! TD*
G04 #@! TO.C,D10*
X68262500Y-81756250D03*
D13*
X68262500Y-74136250D03*
G04 #@! TD*
G04 #@! TO.C,D11*
X63182500Y-87312500D03*
D14*
X55562500Y-87312500D03*
G04 #@! TD*
G04 #@! TO.C,D12*
X92392500Y-87312500D03*
D13*
X100012500Y-87312500D03*
G04 #@! TD*
G04 #@! TO.C,D13*
X42862500Y-87312500D03*
D14*
X35242500Y-87312500D03*
G04 #@! TD*
D13*
G04 #@! TO.C,D14*
X49212500Y-94456250D03*
D14*
X49212500Y-102076250D03*
G04 #@! TD*
D13*
G04 #@! TO.C,D15*
X68262500Y-92868750D03*
D14*
X68262500Y-100488750D03*
G04 #@! TD*
G04 #@! TO.C,D16*
X73342500Y-87312500D03*
D13*
X80962500Y-87312500D03*
G04 #@! TD*
G04 #@! TO.C,D17*
X53181250Y-106362500D03*
D14*
X45561250Y-106362500D03*
G04 #@! TD*
G04 #@! TO.C,D18*
X68262500Y-119856250D03*
D13*
X68262500Y-112236250D03*
G04 #@! TD*
D14*
G04 #@! TO.C,D19*
X73342500Y-106362500D03*
D13*
X80962500Y-106362500D03*
G04 #@! TD*
D14*
G04 #@! TO.C,D20*
X87312500Y-110331250D03*
D13*
X87312500Y-102711250D03*
G04 #@! TD*
D15*
G04 #@! TO.C,MX1*
X42207500Y-34897500D03*
D16*
X42187500Y-35187500D02*
X42227500Y-34607500D01*
D15*
X42227500Y-34607500D03*
X36532501Y-36417500D03*
D16*
X35877500Y-37147500D02*
X37187502Y-35687500D01*
D17*
X39687500Y-39687500D03*
D15*
X37187500Y-35687500D03*
D18*
X34607500Y-39687500D03*
X44767500Y-39687500D03*
G04 #@! TD*
G04 #@! TO.C,MX2*
X63817500Y-39687500D03*
X53657500Y-39687500D03*
D15*
X56237500Y-35687500D03*
D17*
X58737500Y-39687500D03*
D15*
X55582501Y-36417500D03*
D16*
X54927500Y-37147500D02*
X56237502Y-35687500D01*
D15*
X61277500Y-34607500D03*
X61257500Y-34897500D03*
D16*
X61237500Y-35187500D02*
X61277500Y-34607500D01*
G04 #@! TD*
D15*
G04 #@! TO.C,MX3*
X80307500Y-34897500D03*
D16*
X80287500Y-35187500D02*
X80327500Y-34607500D01*
D15*
X80327500Y-34607500D03*
X74632501Y-36417500D03*
D16*
X73977500Y-37147500D02*
X75287502Y-35687500D01*
D17*
X77787500Y-39687500D03*
D15*
X75287500Y-35687500D03*
D18*
X72707500Y-39687500D03*
X82867500Y-39687500D03*
G04 #@! TD*
G04 #@! TO.C,MX4*
X101917500Y-39687500D03*
X91757500Y-39687500D03*
D15*
X94337500Y-35687500D03*
D17*
X96837500Y-39687500D03*
D15*
X93682501Y-36417500D03*
D16*
X93027500Y-37147500D02*
X94337502Y-35687500D01*
D15*
X99377500Y-34607500D03*
X99357500Y-34897500D03*
D16*
X99337500Y-35187500D02*
X99377500Y-34607500D01*
G04 #@! TD*
D15*
G04 #@! TO.C,MX5*
X42207500Y-53947500D03*
D16*
X42187500Y-54237500D02*
X42227500Y-53657500D01*
D15*
X42227500Y-53657500D03*
X36532501Y-55467500D03*
D16*
X35877500Y-56197500D02*
X37187502Y-54737500D01*
D17*
X39687500Y-58737500D03*
D15*
X37187500Y-54737500D03*
D18*
X34607500Y-58737500D03*
X44767500Y-58737500D03*
G04 #@! TD*
G04 #@! TO.C,MX6*
X63817500Y-58737500D03*
X53657500Y-58737500D03*
D15*
X56237500Y-54737500D03*
D17*
X58737500Y-58737500D03*
D15*
X55582501Y-55467500D03*
D16*
X54927500Y-56197500D02*
X56237502Y-54737500D01*
D15*
X61277500Y-53657500D03*
X61257500Y-53947500D03*
D16*
X61237500Y-54237500D02*
X61277500Y-53657500D01*
G04 #@! TD*
D15*
G04 #@! TO.C,MX7*
X80307500Y-53947500D03*
D16*
X80287500Y-54237500D02*
X80327500Y-53657500D01*
D15*
X80327500Y-53657500D03*
X74632501Y-55467500D03*
D16*
X73977500Y-56197500D02*
X75287502Y-54737500D01*
D17*
X77787500Y-58737500D03*
D15*
X75287500Y-54737500D03*
D18*
X72707500Y-58737500D03*
X82867500Y-58737500D03*
G04 #@! TD*
D15*
G04 #@! TO.C,MX8*
X99357500Y-53947500D03*
D16*
X99337500Y-54237500D02*
X99377500Y-53657500D01*
D15*
X99377500Y-53657500D03*
X93682501Y-55467500D03*
D16*
X93027500Y-56197500D02*
X94337502Y-54737500D01*
D17*
X96837500Y-58737500D03*
D15*
X94337500Y-54737500D03*
D18*
X91757500Y-58737500D03*
X101917500Y-58737500D03*
G04 #@! TD*
D15*
G04 #@! TO.C,MX9*
X92047500Y-65742500D03*
D16*
X92337500Y-65762500D02*
X91757500Y-65722500D01*
D15*
X91757500Y-65722500D03*
X93567500Y-71417499D03*
D16*
X94297500Y-72072500D02*
X92837500Y-70762498D01*
D17*
X96837500Y-68262500D03*
D15*
X92837500Y-70762500D03*
D18*
X96837500Y-73342500D03*
X96837500Y-63182500D03*
D19*
X103822500Y-80200500D03*
X103822500Y-56324500D03*
D17*
X88582500Y-80200500D03*
X88582500Y-56324500D03*
G04 #@! TD*
D18*
G04 #@! TO.C,MX10*
X44767500Y-77787500D03*
X34607500Y-77787500D03*
D15*
X37187500Y-73787500D03*
D17*
X39687500Y-77787500D03*
D15*
X36532501Y-74517500D03*
D16*
X35877500Y-75247500D02*
X37187502Y-73787500D01*
D15*
X42227500Y-72707500D03*
X42207500Y-72997500D03*
D16*
X42187500Y-73287500D02*
X42227500Y-72707500D01*
G04 #@! TD*
D18*
G04 #@! TO.C,MX11*
X63817500Y-77787500D03*
X53657500Y-77787500D03*
D15*
X56237500Y-73787500D03*
D17*
X58737500Y-77787500D03*
D15*
X55582501Y-74517500D03*
D16*
X54927500Y-75247500D02*
X56237502Y-73787500D01*
D15*
X61277500Y-72707500D03*
X61257500Y-72997500D03*
D16*
X61237500Y-73287500D02*
X61277500Y-72707500D01*
G04 #@! TD*
D18*
G04 #@! TO.C,MX12*
X82867500Y-77787500D03*
X72707500Y-77787500D03*
D15*
X75287500Y-73787500D03*
D17*
X77787500Y-77787500D03*
D15*
X74632501Y-74517500D03*
D16*
X73977500Y-75247500D02*
X75287502Y-73787500D01*
D15*
X80327500Y-72707500D03*
X80307500Y-72997500D03*
D16*
X80287500Y-73287500D02*
X80327500Y-72707500D01*
G04 #@! TD*
D15*
G04 #@! TO.C,MX13*
X99357500Y-72997500D03*
D16*
X99337500Y-73287500D02*
X99377500Y-72707500D01*
D15*
X99377500Y-72707500D03*
X93682501Y-74517500D03*
D16*
X93027500Y-75247500D02*
X94337502Y-73787500D01*
D17*
X96837500Y-77787500D03*
D15*
X94337500Y-73787500D03*
D18*
X91757500Y-77787500D03*
X101917500Y-77787500D03*
G04 #@! TD*
D15*
G04 #@! TO.C,MX14*
X42207500Y-92047500D03*
D16*
X42187500Y-92337500D02*
X42227500Y-91757500D01*
D15*
X42227500Y-91757500D03*
X36532501Y-93567500D03*
D16*
X35877500Y-94297500D02*
X37187502Y-92837500D01*
D17*
X39687500Y-96837500D03*
D15*
X37187500Y-92837500D03*
D18*
X34607500Y-96837500D03*
X44767500Y-96837500D03*
G04 #@! TD*
G04 #@! TO.C,MX15*
X63817500Y-96837500D03*
X53657500Y-96837500D03*
D15*
X56237500Y-92837500D03*
D17*
X58737500Y-96837500D03*
D15*
X55582501Y-93567500D03*
D16*
X54927500Y-94297500D02*
X56237502Y-92837500D01*
D15*
X61277500Y-91757500D03*
X61257500Y-92047500D03*
D16*
X61237500Y-92337500D02*
X61277500Y-91757500D01*
G04 #@! TD*
D15*
G04 #@! TO.C,MX16*
X80307500Y-92047500D03*
D16*
X80287500Y-92337500D02*
X80327500Y-91757500D01*
D15*
X80327500Y-91757500D03*
X74632501Y-93567500D03*
D16*
X73977500Y-94297500D02*
X75287502Y-92837500D01*
D17*
X77787500Y-96837500D03*
D15*
X75287500Y-92837500D03*
D18*
X72707500Y-96837500D03*
X82867500Y-96837500D03*
G04 #@! TD*
G04 #@! TO.C,MX17*
X101917500Y-96837500D03*
X91757500Y-96837500D03*
D15*
X94337500Y-92837500D03*
D17*
X96837500Y-96837500D03*
D15*
X93682501Y-93567500D03*
D16*
X93027500Y-94297500D02*
X94337502Y-92837500D01*
D15*
X99377500Y-91757500D03*
X99357500Y-92047500D03*
D16*
X99337500Y-92337500D02*
X99377500Y-91757500D01*
G04 #@! TD*
D17*
G04 #@! TO.C,MX18*
X88582500Y-94424500D03*
X88582500Y-118300500D03*
D19*
X103822500Y-94424500D03*
X103822500Y-118300500D03*
D18*
X96837500Y-101282500D03*
X96837500Y-111442500D03*
D15*
X92837500Y-108862500D03*
D17*
X96837500Y-106362500D03*
D15*
X93567500Y-109517499D03*
D16*
X94297500Y-110172500D02*
X92837500Y-108862498D01*
D15*
X91757500Y-103822500D03*
X92047500Y-103842500D03*
D16*
X92337500Y-103862500D02*
X91757500Y-103822500D01*
G04 #@! TD*
D15*
G04 #@! TO.C,MX19*
X42207500Y-111097500D03*
D16*
X42187500Y-111387500D02*
X42227500Y-110807500D01*
D15*
X42227500Y-110807500D03*
X36532501Y-112617500D03*
D16*
X35877500Y-113347500D02*
X37187502Y-111887500D01*
D17*
X39687500Y-115887500D03*
D15*
X37187500Y-111887500D03*
D18*
X34607500Y-115887500D03*
X44767500Y-115887500D03*
G04 #@! TD*
G04 #@! TO.C,MX20*
X63817500Y-115887500D03*
X53657500Y-115887500D03*
D15*
X56237500Y-111887500D03*
D17*
X58737500Y-115887500D03*
D15*
X55582501Y-112617500D03*
D16*
X54927500Y-113347500D02*
X56237502Y-111887500D01*
D15*
X61277500Y-110807500D03*
X61257500Y-111097500D03*
D16*
X61237500Y-111387500D02*
X61277500Y-110807500D01*
G04 #@! TD*
D15*
G04 #@! TO.C,MX21*
X80307500Y-111097500D03*
D16*
X80287500Y-111387500D02*
X80327500Y-110807500D01*
D15*
X80327500Y-110807500D03*
X74632501Y-112617500D03*
D16*
X73977500Y-113347500D02*
X75287502Y-111887500D01*
D17*
X77787500Y-115887500D03*
D15*
X75287500Y-111887500D03*
D18*
X72707500Y-115887500D03*
X82867500Y-115887500D03*
G04 #@! TD*
G04 #@! TO.C,MX22*
X101917500Y-115887500D03*
X91757500Y-115887500D03*
D15*
X94337500Y-111887500D03*
D17*
X96837500Y-115887500D03*
D15*
X93682501Y-112617500D03*
D16*
X93027500Y-113347500D02*
X94337502Y-111887500D01*
D15*
X99377500Y-110807500D03*
X99357500Y-111097500D03*
D16*
X99337500Y-111387500D02*
X99377500Y-110807500D01*
G04 #@! TD*
D15*
G04 #@! TO.C,MX23*
X51732500Y-111097500D03*
D16*
X51712500Y-111387500D02*
X51752500Y-110807500D01*
D15*
X51752500Y-110807500D03*
X46057501Y-112617500D03*
D16*
X45402500Y-113347500D02*
X46712502Y-111887500D01*
D17*
X49212500Y-115887500D03*
D15*
X46712500Y-111887500D03*
D18*
X44132500Y-115887500D03*
X54292500Y-115887500D03*
D19*
X37274500Y-122872500D03*
X61150500Y-122872500D03*
D17*
X37274500Y-107632500D03*
X61150500Y-107632500D03*
G04 #@! TD*
D20*
G04 #@! TO.C,MOUSEBITE1*
X105314750Y-51752500D03*
X105314750Y-50482500D03*
X105314750Y-46672500D03*
X105314750Y-47942500D03*
X105314750Y-49212500D03*
G04 #@! TD*
G04 #@! TO.C,MOUSEBITE2*
X108204000Y-49212500D03*
X108204000Y-50482500D03*
X108204000Y-51752500D03*
X108204000Y-47942500D03*
X108204000Y-46672500D03*
G04 #@! TD*
G04 #@! TO.C,MOUSEBITE3*
X105314750Y-108902500D03*
X105314750Y-107632500D03*
X105314750Y-103822500D03*
X105314750Y-105092500D03*
X105314750Y-106362500D03*
G04 #@! TD*
G04 #@! TO.C,MOUSEBITE4*
X108204000Y-106362500D03*
X108204000Y-107632500D03*
X108204000Y-108902500D03*
X108204000Y-105092500D03*
X108204000Y-103822500D03*
G04 #@! TD*
G04 #@! TO.C,MOUSEBITE5*
X28321000Y-51752500D03*
X28321000Y-50482500D03*
X28321000Y-46672500D03*
X28321000Y-47942500D03*
X28321000Y-49212500D03*
G04 #@! TD*
G04 #@! TO.C,MOUSEBITE6*
X31210250Y-49212500D03*
X31210250Y-50482500D03*
X31210250Y-51752500D03*
X31210250Y-47942500D03*
X31210250Y-46672500D03*
G04 #@! TD*
G04 #@! TO.C,MOUSEBITE7*
X28321000Y-108902500D03*
X28321000Y-107632500D03*
X28321000Y-103822500D03*
X28321000Y-105092500D03*
X28321000Y-106362500D03*
G04 #@! TD*
G04 #@! TO.C,MOUSEBITE8*
X31210250Y-106362500D03*
X31210250Y-107632500D03*
X31210250Y-108902500D03*
X31210250Y-105092500D03*
X31210250Y-103822500D03*
G04 #@! TD*
M02*
