G04 #@! TF.GenerationSoftware,KiCad,Pcbnew,(5.0.0)*
G04 #@! TF.CreationDate,2019-01-31T02:41:33-08:00*
G04 #@! TF.ProjectId,Soyuz,536F79757A2E6B696361645F70636200,rev?*
G04 #@! TF.SameCoordinates,Original*
G04 #@! TF.FileFunction,Soldermask,Top*
G04 #@! TF.FilePolarity,Negative*
%FSLAX46Y46*%
G04 Gerber Fmt 4.6, Leading zero omitted, Abs format (unit mm)*
G04 Created by KiCad (PCBNEW (5.0.0)) date 01/31/19 02:41:33*
%MOMM*%
%LPD*%
G01*
G04 APERTURE LIST*
%ADD10O,2.000000X2.000000*%
%ADD11R,2.000000X2.000000*%
%ADD12C,2.000000*%
%ADD13C,4.387800*%
%ADD14C,2.150000*%
%ADD15C,3.448000*%
%ADD16C,2.200000*%
%ADD17C,1.187400*%
G04 APERTURE END LIST*
D10*
G04 #@! TO.C,D1*
X42862500Y-49212500D03*
D11*
X35242500Y-49212500D03*
G04 #@! TD*
D10*
G04 #@! TO.C,D2*
X61912500Y-68262500D03*
D11*
X54292500Y-68262500D03*
G04 #@! TD*
D10*
G04 #@! TO.C,D3*
X87312500Y-36036250D03*
D11*
X87312500Y-43656250D03*
G04 #@! TD*
G04 #@! TO.C,D4*
X92392500Y-49212500D03*
D10*
X100012500Y-49212500D03*
G04 #@! TD*
G04 #@! TO.C,D5*
X42862500Y-68262500D03*
D11*
X35242500Y-68262500D03*
G04 #@! TD*
G04 #@! TO.C,D6*
X73342500Y-68262500D03*
D10*
X80962500Y-68262500D03*
G04 #@! TD*
G04 #@! TO.C,D7*
X80962500Y-49212500D03*
D11*
X73342500Y-49212500D03*
G04 #@! TD*
G04 #@! TO.C,D8*
X87312500Y-72231250D03*
D10*
X87312500Y-64611250D03*
G04 #@! TD*
G04 #@! TO.C,D9*
X49212500Y-72548750D03*
D11*
X49212500Y-80168750D03*
G04 #@! TD*
G04 #@! TO.C,D10*
X68262500Y-81756250D03*
D10*
X68262500Y-74136250D03*
G04 #@! TD*
G04 #@! TO.C,D11*
X63182500Y-87312500D03*
D11*
X55562500Y-87312500D03*
G04 #@! TD*
G04 #@! TO.C,D12*
X92392500Y-87312500D03*
D10*
X100012500Y-87312500D03*
G04 #@! TD*
G04 #@! TO.C,D13*
X42862500Y-87312500D03*
D11*
X35242500Y-87312500D03*
G04 #@! TD*
D10*
G04 #@! TO.C,D14*
X49212500Y-94456250D03*
D11*
X49212500Y-102076250D03*
G04 #@! TD*
D10*
G04 #@! TO.C,D15*
X68262500Y-92868750D03*
D11*
X68262500Y-100488750D03*
G04 #@! TD*
G04 #@! TO.C,D16*
X73342500Y-87312500D03*
D10*
X80962500Y-87312500D03*
G04 #@! TD*
G04 #@! TO.C,D17*
X53181250Y-106362500D03*
D11*
X45561250Y-106362500D03*
G04 #@! TD*
G04 #@! TO.C,D18*
X68262500Y-119856250D03*
D10*
X68262500Y-112236250D03*
G04 #@! TD*
D11*
G04 #@! TO.C,D19*
X73342500Y-106362500D03*
D10*
X80962500Y-106362500D03*
G04 #@! TD*
D11*
G04 #@! TO.C,D20*
X87312500Y-110331250D03*
D10*
X87312500Y-102711250D03*
G04 #@! TD*
D11*
G04 #@! TO.C,U1*
X66357500Y-33655000D03*
D12*
X66357500Y-36195000D03*
X66357500Y-38735000D03*
X66357500Y-41275000D03*
X66357500Y-43815000D03*
X66357500Y-46355000D03*
X66357500Y-48895000D03*
X66357500Y-51435000D03*
X66357500Y-53975000D03*
X66357500Y-56515000D03*
X66357500Y-59055000D03*
X66357500Y-61595000D03*
X51117500Y-61595000D03*
X51117500Y-59055000D03*
X51117500Y-56515000D03*
X51117500Y-53975000D03*
X51117500Y-51435000D03*
X51117500Y-48895000D03*
X51117500Y-46355000D03*
X51117500Y-43815000D03*
X51117500Y-41275000D03*
X51117500Y-38735000D03*
X51117500Y-36195000D03*
X51117500Y-33655000D03*
G04 #@! TD*
D13*
G04 #@! TO.C,MX1*
X39687500Y-39687500D03*
D14*
X34607500Y-39687500D03*
X44767500Y-39687500D03*
G04 #@! TD*
G04 #@! TO.C,MX2*
X63817500Y-39687500D03*
X53657500Y-39687500D03*
D13*
X58737500Y-39687500D03*
G04 #@! TD*
G04 #@! TO.C,MX3*
X77787500Y-39687500D03*
D14*
X72707500Y-39687500D03*
X82867500Y-39687500D03*
G04 #@! TD*
G04 #@! TO.C,MX4*
X101917500Y-39687500D03*
X91757500Y-39687500D03*
D13*
X96837500Y-39687500D03*
G04 #@! TD*
G04 #@! TO.C,MX5*
X39687500Y-58737500D03*
D14*
X34607500Y-58737500D03*
X44767500Y-58737500D03*
G04 #@! TD*
G04 #@! TO.C,MX6*
X63817500Y-58737500D03*
X53657500Y-58737500D03*
D13*
X58737500Y-58737500D03*
G04 #@! TD*
G04 #@! TO.C,MX7*
X77787500Y-58737500D03*
D14*
X72707500Y-58737500D03*
X82867500Y-58737500D03*
G04 #@! TD*
D13*
G04 #@! TO.C,MX8*
X96837500Y-58737500D03*
D14*
X91757500Y-58737500D03*
X101917500Y-58737500D03*
G04 #@! TD*
D13*
G04 #@! TO.C,MX9*
X96837500Y-68262500D03*
D14*
X96837500Y-73342500D03*
X96837500Y-63182500D03*
D15*
X103822500Y-80200500D03*
X103822500Y-56324500D03*
D13*
X88582500Y-80200500D03*
X88582500Y-56324500D03*
G04 #@! TD*
D14*
G04 #@! TO.C,MX10*
X44767500Y-77787500D03*
X34607500Y-77787500D03*
D13*
X39687500Y-77787500D03*
G04 #@! TD*
D14*
G04 #@! TO.C,MX11*
X63817500Y-77787500D03*
X53657500Y-77787500D03*
D13*
X58737500Y-77787500D03*
G04 #@! TD*
D14*
G04 #@! TO.C,MX12*
X82867500Y-77787500D03*
X72707500Y-77787500D03*
D13*
X77787500Y-77787500D03*
G04 #@! TD*
G04 #@! TO.C,MX13*
X96837500Y-77787500D03*
D14*
X91757500Y-77787500D03*
X101917500Y-77787500D03*
G04 #@! TD*
D13*
G04 #@! TO.C,MX14*
X39687500Y-96837500D03*
D14*
X34607500Y-96837500D03*
X44767500Y-96837500D03*
G04 #@! TD*
G04 #@! TO.C,MX15*
X63817500Y-96837500D03*
X53657500Y-96837500D03*
D13*
X58737500Y-96837500D03*
G04 #@! TD*
G04 #@! TO.C,MX16*
X77787500Y-96837500D03*
D14*
X72707500Y-96837500D03*
X82867500Y-96837500D03*
G04 #@! TD*
G04 #@! TO.C,MX17*
X101917500Y-96837500D03*
X91757500Y-96837500D03*
D13*
X96837500Y-96837500D03*
G04 #@! TD*
G04 #@! TO.C,MX18*
X88582500Y-94424500D03*
X88582500Y-118300500D03*
D15*
X103822500Y-94424500D03*
X103822500Y-118300500D03*
D14*
X96837500Y-101282500D03*
X96837500Y-111442500D03*
D13*
X96837500Y-106362500D03*
G04 #@! TD*
G04 #@! TO.C,MX19*
X39687500Y-115887500D03*
D14*
X34607500Y-115887500D03*
X44767500Y-115887500D03*
G04 #@! TD*
G04 #@! TO.C,MX20*
X63817500Y-115887500D03*
X53657500Y-115887500D03*
D13*
X58737500Y-115887500D03*
G04 #@! TD*
G04 #@! TO.C,MX21*
X77787500Y-115887500D03*
D14*
X72707500Y-115887500D03*
X82867500Y-115887500D03*
G04 #@! TD*
G04 #@! TO.C,MX22*
X101917500Y-115887500D03*
X91757500Y-115887500D03*
D13*
X96837500Y-115887500D03*
G04 #@! TD*
G04 #@! TO.C,MX23*
X49212500Y-115887500D03*
D14*
X44132500Y-115887500D03*
X54292500Y-115887500D03*
D15*
X37274500Y-122872500D03*
X61150500Y-122872500D03*
D13*
X37274500Y-107632500D03*
X61150500Y-107632500D03*
G04 #@! TD*
D16*
G04 #@! TO.C,SW1*
X51462500Y-84062500D03*
X46962500Y-90562500D03*
X46962500Y-84062500D03*
X51462500Y-90562500D03*
G04 #@! TD*
D17*
G04 #@! TO.C,MOUSEBITE1*
X105314750Y-51752500D03*
X105314750Y-50482500D03*
X105314750Y-46672500D03*
X105314750Y-47942500D03*
X105314750Y-49212500D03*
G04 #@! TD*
G04 #@! TO.C,MOUSEBITE2*
X108204000Y-49212500D03*
X108204000Y-50482500D03*
X108204000Y-51752500D03*
X108204000Y-47942500D03*
X108204000Y-46672500D03*
G04 #@! TD*
G04 #@! TO.C,MOUSEBITE3*
X105314750Y-108902500D03*
X105314750Y-107632500D03*
X105314750Y-103822500D03*
X105314750Y-105092500D03*
X105314750Y-106362500D03*
G04 #@! TD*
G04 #@! TO.C,MOUSEBITE4*
X108204000Y-106362500D03*
X108204000Y-107632500D03*
X108204000Y-108902500D03*
X108204000Y-105092500D03*
X108204000Y-103822500D03*
G04 #@! TD*
G04 #@! TO.C,MOUSEBITE5*
X28321000Y-51752500D03*
X28321000Y-50482500D03*
X28321000Y-46672500D03*
X28321000Y-47942500D03*
X28321000Y-49212500D03*
G04 #@! TD*
G04 #@! TO.C,MOUSEBITE6*
X31210250Y-49212500D03*
X31210250Y-50482500D03*
X31210250Y-51752500D03*
X31210250Y-47942500D03*
X31210250Y-46672500D03*
G04 #@! TD*
G04 #@! TO.C,MOUSEBITE7*
X28321000Y-108902500D03*
X28321000Y-107632500D03*
X28321000Y-103822500D03*
X28321000Y-105092500D03*
X28321000Y-106362500D03*
G04 #@! TD*
G04 #@! TO.C,MOUSEBITE8*
X31210250Y-106362500D03*
X31210250Y-107632500D03*
X31210250Y-108902500D03*
X31210250Y-105092500D03*
X31210250Y-103822500D03*
G04 #@! TD*
M02*
