M48
;DRILL file {KiCad (5.0.0)} date 01/13/19 17:47:16
;FORMAT={-:-/ absolute / inch / decimal}
FMAT,2
INCH,TZ
T1C0.0315
T2C0.0394
T3C0.0433
T4C0.0579
%
G90
G05
M72
T1
X3.4375Y-1.4187
X3.4375Y-1.7188
X2.6875Y-3.6562
X2.6875Y-3.9562
X2.8875Y-3.4375
X3.1875Y-3.4375
X1.3875Y-3.4375
X1.6875Y-3.4375
X2.1875Y-3.4375
X2.4875Y-3.4375
X3.4375Y-2.5437
X3.4375Y-2.8438
X2.8875Y-1.9375
X3.1875Y-1.9375
X2.1375Y-2.6875
X2.4375Y-2.6875
X2.6875Y-2.9187
X2.6875Y-3.2188
X3.6375Y-3.4375
X3.9375Y-3.4375
X2.8875Y-2.6875
X3.1875Y-2.6875
X1.3875Y-1.9375
X1.6875Y-1.9375
X1.9375Y-2.8562
X1.9375Y-3.1562
X3.4375Y-4.0438
X3.4375Y-4.3438
X1.7937Y-4.1875
X2.0938Y-4.1875
X2.6875Y-4.4188
X2.6875Y-4.7188
X3.6375Y-1.9375
X3.9375Y-1.9375
X2.8875Y-4.1875
X3.1875Y-4.1875
X1.3875Y-2.6875
X1.6875Y-2.6875
X1.9375Y-3.7188
X1.9375Y-4.0187
T2
X1.8489Y-3.3095
X1.8489Y-3.5655
X2.0261Y-3.3095
X2.0261Y-3.5655
T3
X2.0125Y-1.325
X2.0125Y-1.425
X2.0125Y-1.525
X2.0125Y-1.625
X2.0125Y-1.725
X2.0125Y-1.825
X2.0125Y-1.925
X2.0125Y-2.025
X2.0125Y-2.125
X2.0125Y-2.225
X2.0125Y-2.325
X2.0125Y-2.425
X2.6125Y-1.325
X2.6125Y-1.425
X2.6125Y-1.525
X2.6125Y-1.625
X2.6125Y-1.725
X2.6125Y-1.825
X2.6125Y-1.925
X2.6125Y-2.025
X2.6125Y-2.125
X2.6125Y-2.225
X2.6125Y-2.325
X2.6125Y-2.425
T4
X2.1625Y-4.4625
X2.2141Y-4.405
X2.4109Y-4.3853
X2.4125Y-4.3625
X2.1625Y-2.9625
X2.2141Y-2.905
X2.4109Y-2.8853
X2.4125Y-2.8625
X2.9125Y-2.2125
X2.9641Y-2.155
X3.1609Y-2.1353
X3.1625Y-2.1125
X1.4125Y-4.4625
X1.4641Y-4.405
X1.6609Y-4.3853
X1.6625Y-4.3625
X2.9125Y-1.4625
X2.9641Y-1.405
X3.1609Y-1.3853
X3.1625Y-1.3625
X3.6625Y-1.4625
X3.7141Y-1.405
X3.9109Y-1.3853
X3.9125Y-1.3625
X2.9125Y-2.9625
X2.9641Y-2.905
X3.1609Y-2.8853
X3.1625Y-2.8625
X1.4125Y-2.2125
X1.4641Y-2.155
X1.6609Y-2.1353
X1.6625Y-2.1125
X3.6625Y-2.2125
X3.7141Y-2.155
X3.9109Y-2.1353
X3.9125Y-2.1125
X2.1625Y-3.7125
X2.2141Y-3.655
X2.4109Y-3.6353
X2.4125Y-3.6125
X1.4125Y-3.7125
X1.4641Y-3.655
X1.6609Y-3.6353
X1.6625Y-3.6125
X3.6625Y-4.4625
X3.7141Y-4.405
X3.9109Y-4.3853
X3.9125Y-4.3625
X2.1625Y-1.4625
X2.2141Y-1.405
X2.4109Y-1.3853
X2.4125Y-1.3625
X3.6125Y-2.5875
X3.6353Y-2.5891
X3.655Y-2.7859
X3.7125Y-2.8375
X1.4125Y-2.9625
X1.4641Y-2.905
X1.6609Y-2.8853
X1.6625Y-2.8625
X3.6625Y-2.9625
X3.7141Y-2.905
X3.9109Y-2.8853
X3.9125Y-2.8625
X1.4125Y-1.4625
X1.4641Y-1.405
X1.6609Y-1.3853
X1.6625Y-1.3625
X2.9125Y-3.7125
X2.9641Y-3.655
X3.1609Y-3.6353
X3.1625Y-3.6125
X3.6625Y-3.7125
X3.7141Y-3.655
X3.9109Y-3.6353
X3.9125Y-3.6125
X3.6125Y-4.0875
X3.6353Y-4.0891
X3.655Y-4.2859
X3.7125Y-4.3375
X2.1625Y-2.2125
X2.2141Y-2.155
X2.4109Y-2.1353
X2.4125Y-2.1125
X2.9125Y-4.4625
X2.9641Y-4.405
X3.1609Y-4.3853
X3.1625Y-4.3625
X1.7875Y-4.4625
X1.8391Y-4.405
X2.0359Y-4.3853
X2.0375Y-4.3625
T0
M30
