G04 #@! TF.GenerationSoftware,KiCad,Pcbnew,(5.0.0)*
G04 #@! TF.CreationDate,2019-01-13T17:47:14-08:00*
G04 #@! TF.ProjectId,Soyuz,536F79757A2E6B696361645F70636200,rev?*
G04 #@! TF.SameCoordinates,Original*
G04 #@! TF.FileFunction,Legend,Bot*
G04 #@! TF.FilePolarity,Positive*
%FSLAX46Y46*%
G04 Gerber Fmt 4.6, Leading zero omitted, Abs format (unit mm)*
G04 Created by KiCad (PCBNEW (5.0.0)) date 01/13/19 17:47:14*
%MOMM*%
%LPD*%
G01*
G04 APERTURE LIST*
%ADD10C,0.250000*%
%ADD11C,0.200000*%
%ADD12C,0.120000*%
%ADD13C,0.150000*%
%ADD14C,0.010000*%
%ADD15C,0.500000*%
%ADD16C,0.300000*%
%ADD17O,2.000000X2.000000*%
%ADD18R,2.000000X2.000000*%
%ADD19C,2.650000*%
%ADD20C,2.650000*%
%ADD21C,4.387800*%
%ADD22C,2.150000*%
%ADD23C,3.448000*%
%ADD24C,1.187400*%
G04 APERTURE END LIST*
D10*
X58974107Y-120341964D02*
X58802678Y-120399107D01*
X58516964Y-120399107D01*
X58402678Y-120341964D01*
X58345535Y-120284821D01*
X58288392Y-120170535D01*
X58288392Y-120056250D01*
X58345535Y-119941964D01*
X58402678Y-119884821D01*
X58516964Y-119827678D01*
X58745535Y-119770535D01*
X58859821Y-119713392D01*
X58916964Y-119656250D01*
X58974107Y-119541964D01*
X58974107Y-119427678D01*
X58916964Y-119313392D01*
X58859821Y-119256250D01*
X58745535Y-119199107D01*
X58459821Y-119199107D01*
X58288392Y-119256250D01*
X57602678Y-120399107D02*
X57716964Y-120341964D01*
X57774107Y-120284821D01*
X57831250Y-120170535D01*
X57831250Y-119827678D01*
X57774107Y-119713392D01*
X57716964Y-119656250D01*
X57602678Y-119599107D01*
X57431250Y-119599107D01*
X57316964Y-119656250D01*
X57259821Y-119713392D01*
X57202678Y-119827678D01*
X57202678Y-120170535D01*
X57259821Y-120284821D01*
X57316964Y-120341964D01*
X57431250Y-120399107D01*
X57602678Y-120399107D01*
X56802678Y-119599107D02*
X56516964Y-120399107D01*
X56231250Y-119599107D02*
X56516964Y-120399107D01*
X56631250Y-120684821D01*
X56688392Y-120741964D01*
X56802678Y-120799107D01*
X55259821Y-119599107D02*
X55259821Y-120399107D01*
X55774107Y-119599107D02*
X55774107Y-120227678D01*
X55716964Y-120341964D01*
X55602678Y-120399107D01*
X55431250Y-120399107D01*
X55316964Y-120341964D01*
X55259821Y-120284821D01*
X54802678Y-119599107D02*
X54174107Y-119599107D01*
X54802678Y-120399107D01*
X54174107Y-120399107D01*
X52802678Y-120399107D02*
X52802678Y-119199107D01*
X52345535Y-119199107D01*
X52231250Y-119256250D01*
X52174107Y-119313392D01*
X52116964Y-119427678D01*
X52116964Y-119599107D01*
X52174107Y-119713392D01*
X52231250Y-119770535D01*
X52345535Y-119827678D01*
X52802678Y-119827678D01*
X50916964Y-120284821D02*
X50974107Y-120341964D01*
X51145535Y-120399107D01*
X51259821Y-120399107D01*
X51431250Y-120341964D01*
X51545535Y-120227678D01*
X51602678Y-120113392D01*
X51659821Y-119884821D01*
X51659821Y-119713392D01*
X51602678Y-119484821D01*
X51545535Y-119370535D01*
X51431250Y-119256250D01*
X51259821Y-119199107D01*
X51145535Y-119199107D01*
X50974107Y-119256250D01*
X50916964Y-119313392D01*
X50002678Y-119770535D02*
X49831250Y-119827678D01*
X49774107Y-119884821D01*
X49716964Y-119999107D01*
X49716964Y-120170535D01*
X49774107Y-120284821D01*
X49831250Y-120341964D01*
X49945535Y-120399107D01*
X50402678Y-120399107D01*
X50402678Y-119199107D01*
X50002678Y-119199107D01*
X49888392Y-119256250D01*
X49831250Y-119313392D01*
X49774107Y-119427678D01*
X49774107Y-119541964D01*
X49831250Y-119656250D01*
X49888392Y-119713392D01*
X50002678Y-119770535D01*
X50402678Y-119770535D01*
X47602678Y-120399107D02*
X48002678Y-119827678D01*
X48288392Y-120399107D02*
X48288392Y-119199107D01*
X47831250Y-119199107D01*
X47716964Y-119256250D01*
X47659821Y-119313392D01*
X47602678Y-119427678D01*
X47602678Y-119599107D01*
X47659821Y-119713392D01*
X47716964Y-119770535D01*
X47831250Y-119827678D01*
X48288392Y-119827678D01*
X46459821Y-120399107D02*
X47145535Y-120399107D01*
X46802678Y-120399107D02*
X46802678Y-119199107D01*
X46916964Y-119370535D01*
X47031250Y-119484821D01*
X47145535Y-119541964D01*
X45945535Y-120284821D02*
X45888392Y-120341964D01*
X45945535Y-120399107D01*
X46002678Y-120341964D01*
X45945535Y-120284821D01*
X45945535Y-120399107D01*
X45145535Y-119199107D02*
X45031250Y-119199107D01*
X44916964Y-119256250D01*
X44859821Y-119313392D01*
X44802678Y-119427678D01*
X44745535Y-119656250D01*
X44745535Y-119941964D01*
X44802678Y-120170535D01*
X44859821Y-120284821D01*
X44916964Y-120341964D01*
X45031250Y-120399107D01*
X45145535Y-120399107D01*
X45259821Y-120341964D01*
X45316964Y-120284821D01*
X45374107Y-120170535D01*
X45431250Y-119941964D01*
X45431250Y-119656250D01*
X45374107Y-119427678D01*
X45316964Y-119313392D01*
X45259821Y-119256250D01*
X45145535Y-119199107D01*
X43374107Y-119313392D02*
X43316964Y-119256250D01*
X43202678Y-119199107D01*
X42916964Y-119199107D01*
X42802678Y-119256250D01*
X42745535Y-119313392D01*
X42688392Y-119427678D01*
X42688392Y-119541964D01*
X42745535Y-119713392D01*
X43431250Y-120399107D01*
X42688392Y-120399107D01*
X41945535Y-119199107D02*
X41831250Y-119199107D01*
X41716964Y-119256250D01*
X41659821Y-119313392D01*
X41602678Y-119427678D01*
X41545535Y-119656250D01*
X41545535Y-119941964D01*
X41602678Y-120170535D01*
X41659821Y-120284821D01*
X41716964Y-120341964D01*
X41831250Y-120399107D01*
X41945535Y-120399107D01*
X42059821Y-120341964D01*
X42116964Y-120284821D01*
X42174107Y-120170535D01*
X42231250Y-119941964D01*
X42231250Y-119656250D01*
X42174107Y-119427678D01*
X42116964Y-119313392D01*
X42059821Y-119256250D01*
X41945535Y-119199107D01*
X40402678Y-120399107D02*
X41088392Y-120399107D01*
X40745535Y-120399107D02*
X40745535Y-119199107D01*
X40859821Y-119370535D01*
X40974107Y-119484821D01*
X41088392Y-119541964D01*
X39831250Y-120399107D02*
X39602678Y-120399107D01*
X39488392Y-120341964D01*
X39431250Y-120284821D01*
X39316964Y-120113392D01*
X39259821Y-119884821D01*
X39259821Y-119427678D01*
X39316964Y-119313392D01*
X39374107Y-119256250D01*
X39488392Y-119199107D01*
X39716964Y-119199107D01*
X39831250Y-119256250D01*
X39888392Y-119313392D01*
X39945535Y-119427678D01*
X39945535Y-119713392D01*
X39888392Y-119827678D01*
X39831250Y-119884821D01*
X39716964Y-119941964D01*
X39488392Y-119941964D01*
X39374107Y-119884821D01*
X39316964Y-119827678D01*
X39259821Y-119713392D01*
X38516964Y-119199107D02*
X38402678Y-119199107D01*
X38288392Y-119256250D01*
X38231250Y-119313392D01*
X38174107Y-119427678D01*
X38116964Y-119656250D01*
X38116964Y-119941964D01*
X38174107Y-120170535D01*
X38231250Y-120284821D01*
X38288392Y-120341964D01*
X38402678Y-120399107D01*
X38516964Y-120399107D01*
X38631250Y-120341964D01*
X38688392Y-120284821D01*
X38745535Y-120170535D01*
X38802678Y-119941964D01*
X38802678Y-119656250D01*
X38745535Y-119427678D01*
X38688392Y-119313392D01*
X38631250Y-119256250D01*
X38516964Y-119199107D01*
X36974107Y-120399107D02*
X37659821Y-120399107D01*
X37316964Y-120399107D02*
X37316964Y-119199107D01*
X37431250Y-119370535D01*
X37545535Y-119484821D01*
X37659821Y-119541964D01*
X35831250Y-120399107D02*
X36516964Y-120399107D01*
X36174107Y-120399107D02*
X36174107Y-119199107D01*
X36288392Y-119370535D01*
X36402678Y-119484821D01*
X36516964Y-119541964D01*
X35431250Y-119199107D02*
X34688392Y-119199107D01*
X35088392Y-119656250D01*
X34916964Y-119656250D01*
X34802678Y-119713392D01*
X34745535Y-119770535D01*
X34688392Y-119884821D01*
X34688392Y-120170535D01*
X34745535Y-120284821D01*
X34802678Y-120341964D01*
X34916964Y-120399107D01*
X35259821Y-120399107D01*
X35374107Y-120341964D01*
X35431250Y-120284821D01*
X80006250Y-120399107D02*
X80006250Y-119199107D01*
X79891964Y-119941964D02*
X79549107Y-120399107D01*
X79549107Y-119599107D02*
X80006250Y-120056250D01*
X79034821Y-120399107D02*
X79034821Y-119199107D01*
X79034821Y-119656250D02*
X78920535Y-119599107D01*
X78691964Y-119599107D01*
X78577678Y-119656250D01*
X78520535Y-119713392D01*
X78463392Y-119827678D01*
X78463392Y-120170535D01*
X78520535Y-120284821D01*
X78577678Y-120341964D01*
X78691964Y-120399107D01*
X78920535Y-120399107D01*
X79034821Y-120341964D01*
X77949107Y-120284821D02*
X77891964Y-120341964D01*
X77949107Y-120399107D01*
X78006250Y-120341964D01*
X77949107Y-120284821D01*
X77949107Y-120399107D01*
X76863392Y-120399107D02*
X76863392Y-119770535D01*
X76920535Y-119656250D01*
X77034821Y-119599107D01*
X77263392Y-119599107D01*
X77377678Y-119656250D01*
X76863392Y-120341964D02*
X76977678Y-120399107D01*
X77263392Y-120399107D01*
X77377678Y-120341964D01*
X77434821Y-120227678D01*
X77434821Y-120113392D01*
X77377678Y-119999107D01*
X77263392Y-119941964D01*
X76977678Y-119941964D01*
X76863392Y-119884821D01*
X76291964Y-120399107D02*
X76291964Y-119599107D01*
X76291964Y-119199107D02*
X76349107Y-119256250D01*
X76291964Y-119313392D01*
X76234821Y-119256250D01*
X76291964Y-119199107D01*
X76291964Y-119313392D01*
X75491964Y-119199107D02*
X75377678Y-119199107D01*
X75263392Y-119256250D01*
X75206250Y-119313392D01*
X75149107Y-119427678D01*
X75091964Y-119656250D01*
X75091964Y-119941964D01*
X75149107Y-120170535D01*
X75206250Y-120284821D01*
X75263392Y-120341964D01*
X75377678Y-120399107D01*
X75491964Y-120399107D01*
X75606250Y-120341964D01*
X75663392Y-120284821D01*
X75720535Y-120170535D01*
X75777678Y-119941964D01*
X75777678Y-119656250D01*
X75720535Y-119427678D01*
X75663392Y-119313392D01*
X75606250Y-119256250D01*
X75491964Y-119199107D01*
X74691964Y-119199107D02*
X73949107Y-119199107D01*
X74349107Y-119656250D01*
X74177678Y-119656250D01*
X74063392Y-119713392D01*
X74006250Y-119770535D01*
X73949107Y-119884821D01*
X73949107Y-120170535D01*
X74006250Y-120284821D01*
X74063392Y-120341964D01*
X74177678Y-120399107D01*
X74520535Y-120399107D01*
X74634821Y-120341964D01*
X74691964Y-120284821D01*
X73434821Y-120284821D02*
X73377678Y-120341964D01*
X73434821Y-120399107D01*
X73491964Y-120341964D01*
X73434821Y-120284821D01*
X73434821Y-120399107D01*
X72863392Y-120399107D02*
X72863392Y-119599107D01*
X72863392Y-119713392D02*
X72806250Y-119656250D01*
X72691964Y-119599107D01*
X72520535Y-119599107D01*
X72406250Y-119656250D01*
X72349107Y-119770535D01*
X72349107Y-120399107D01*
X72349107Y-119770535D02*
X72291964Y-119656250D01*
X72177678Y-119599107D01*
X72006250Y-119599107D01*
X71891964Y-119656250D01*
X71834821Y-119770535D01*
X71834821Y-120399107D01*
X70806250Y-120341964D02*
X70920535Y-120399107D01*
X71149107Y-120399107D01*
X71263392Y-120341964D01*
X71320535Y-120227678D01*
X71320535Y-119770535D01*
X71263392Y-119656250D01*
X71149107Y-119599107D01*
X70920535Y-119599107D01*
X70806250Y-119656250D01*
X70749107Y-119770535D01*
X70749107Y-119884821D01*
X71320535Y-119999107D01*
D11*
X65405000Y-32639000D02*
X67310000Y-32639000D01*
X65405000Y-34671000D02*
X65405000Y-32639000D01*
X67310000Y-34671000D02*
X65405000Y-34671000D01*
X67310000Y-32639000D02*
X67310000Y-34671000D01*
X62142261Y-44733630D02*
X62142261Y-43733630D01*
X61761309Y-43733630D01*
X61666071Y-43781250D01*
X61618452Y-43828869D01*
X61570833Y-43924107D01*
X61570833Y-44066964D01*
X61618452Y-44162202D01*
X61666071Y-44209821D01*
X61761309Y-44257440D01*
X62142261Y-44257440D01*
X61142261Y-44733630D02*
X61142261Y-44066964D01*
X61142261Y-44257440D02*
X61094642Y-44162202D01*
X61047023Y-44114583D01*
X60951785Y-44066964D01*
X60856547Y-44066964D01*
X60380357Y-44733630D02*
X60475595Y-44686011D01*
X60523214Y-44638392D01*
X60570833Y-44543154D01*
X60570833Y-44257440D01*
X60523214Y-44162202D01*
X60475595Y-44114583D01*
X60380357Y-44066964D01*
X60237500Y-44066964D01*
X60142261Y-44114583D01*
X60094642Y-44162202D01*
X60047023Y-44257440D01*
X60047023Y-44543154D01*
X60094642Y-44638392D01*
X60142261Y-44686011D01*
X60237500Y-44733630D01*
X60380357Y-44733630D01*
X58856547Y-44733630D02*
X58856547Y-43733630D01*
X58523214Y-44447916D01*
X58189880Y-43733630D01*
X58189880Y-44733630D01*
X57713690Y-44733630D02*
X57713690Y-44066964D01*
X57713690Y-43733630D02*
X57761309Y-43781250D01*
X57713690Y-43828869D01*
X57666071Y-43781250D01*
X57713690Y-43733630D01*
X57713690Y-43828869D01*
X56808928Y-44686011D02*
X56904166Y-44733630D01*
X57094642Y-44733630D01*
X57189880Y-44686011D01*
X57237500Y-44638392D01*
X57285119Y-44543154D01*
X57285119Y-44257440D01*
X57237500Y-44162202D01*
X57189880Y-44114583D01*
X57094642Y-44066964D01*
X56904166Y-44066964D01*
X56808928Y-44114583D01*
X56380357Y-44733630D02*
X56380357Y-44066964D01*
X56380357Y-44257440D02*
X56332738Y-44162202D01*
X56285119Y-44114583D01*
X56189880Y-44066964D01*
X56094642Y-44066964D01*
X55618452Y-44733630D02*
X55713690Y-44686011D01*
X55761309Y-44638392D01*
X55808928Y-44543154D01*
X55808928Y-44257440D01*
X55761309Y-44162202D01*
X55713690Y-44114583D01*
X55618452Y-44066964D01*
X55475595Y-44066964D01*
X55380357Y-44114583D01*
X55332738Y-44162202D01*
X55285119Y-44257440D01*
X55285119Y-44543154D01*
X55332738Y-44638392D01*
X55380357Y-44686011D01*
X55475595Y-44733630D01*
X55618452Y-44733630D01*
X61927976Y-47847916D02*
X61451785Y-47847916D01*
X62023214Y-48133630D02*
X61689880Y-47133630D01*
X61356547Y-48133630D01*
X60880357Y-48133630D02*
X60975595Y-48086011D01*
X61023214Y-47990773D01*
X61023214Y-47133630D01*
X60499404Y-48133630D02*
X60499404Y-47466964D01*
X60499404Y-47133630D02*
X60547023Y-47181250D01*
X60499404Y-47228869D01*
X60451785Y-47181250D01*
X60499404Y-47133630D01*
X60499404Y-47228869D01*
X59594642Y-47466964D02*
X59594642Y-48276488D01*
X59642261Y-48371726D01*
X59689880Y-48419345D01*
X59785119Y-48466964D01*
X59927976Y-48466964D01*
X60023214Y-48419345D01*
X59594642Y-48086011D02*
X59689880Y-48133630D01*
X59880357Y-48133630D01*
X59975595Y-48086011D01*
X60023214Y-48038392D01*
X60070833Y-47943154D01*
X60070833Y-47657440D01*
X60023214Y-47562202D01*
X59975595Y-47514583D01*
X59880357Y-47466964D01*
X59689880Y-47466964D01*
X59594642Y-47514583D01*
X59118452Y-47466964D02*
X59118452Y-48133630D01*
X59118452Y-47562202D02*
X59070833Y-47514583D01*
X58975595Y-47466964D01*
X58832738Y-47466964D01*
X58737500Y-47514583D01*
X58689880Y-47609821D01*
X58689880Y-48133630D01*
X57594642Y-47466964D02*
X57213690Y-47466964D01*
X57451785Y-47133630D02*
X57451785Y-47990773D01*
X57404166Y-48086011D01*
X57308928Y-48133630D01*
X57213690Y-48133630D01*
X56880357Y-48133630D02*
X56880357Y-47133630D01*
X56451785Y-48133630D02*
X56451785Y-47609821D01*
X56499404Y-47514583D01*
X56594642Y-47466964D01*
X56737500Y-47466964D01*
X56832738Y-47514583D01*
X56880357Y-47562202D01*
X55594642Y-48086011D02*
X55689880Y-48133630D01*
X55880357Y-48133630D01*
X55975595Y-48086011D01*
X56023214Y-47990773D01*
X56023214Y-47609821D01*
X55975595Y-47514583D01*
X55880357Y-47466964D01*
X55689880Y-47466964D01*
X55594642Y-47514583D01*
X55547023Y-47609821D01*
X55547023Y-47705059D01*
X56023214Y-47800297D01*
X63189880Y-49786011D02*
X63094642Y-49833630D01*
X62904166Y-49833630D01*
X62808928Y-49786011D01*
X62761309Y-49690773D01*
X62761309Y-49643154D01*
X62808928Y-49547916D01*
X62904166Y-49500297D01*
X63047023Y-49500297D01*
X63142261Y-49452678D01*
X63189880Y-49357440D01*
X63189880Y-49309821D01*
X63142261Y-49214583D01*
X63047023Y-49166964D01*
X62904166Y-49166964D01*
X62808928Y-49214583D01*
X61904166Y-49166964D02*
X61904166Y-50166964D01*
X61904166Y-49786011D02*
X61999404Y-49833630D01*
X62189880Y-49833630D01*
X62285119Y-49786011D01*
X62332738Y-49738392D01*
X62380357Y-49643154D01*
X62380357Y-49357440D01*
X62332738Y-49262202D01*
X62285119Y-49214583D01*
X62189880Y-49166964D01*
X61999404Y-49166964D01*
X61904166Y-49214583D01*
X60999404Y-49166964D02*
X60999404Y-49833630D01*
X61427976Y-49166964D02*
X61427976Y-49690773D01*
X61380357Y-49786011D01*
X61285119Y-49833630D01*
X61142261Y-49833630D01*
X61047023Y-49786011D01*
X60999404Y-49738392D01*
X60094642Y-49833630D02*
X60094642Y-49309821D01*
X60142261Y-49214583D01*
X60237500Y-49166964D01*
X60427976Y-49166964D01*
X60523214Y-49214583D01*
X60094642Y-49786011D02*
X60189880Y-49833630D01*
X60427976Y-49833630D01*
X60523214Y-49786011D01*
X60570833Y-49690773D01*
X60570833Y-49595535D01*
X60523214Y-49500297D01*
X60427976Y-49452678D01*
X60189880Y-49452678D01*
X60094642Y-49405059D01*
X59618452Y-49833630D02*
X59618452Y-49166964D01*
X59618452Y-49357440D02*
X59570833Y-49262202D01*
X59523214Y-49214583D01*
X59427976Y-49166964D01*
X59332738Y-49166964D01*
X58618452Y-49786011D02*
X58713690Y-49833630D01*
X58904166Y-49833630D01*
X58999404Y-49786011D01*
X59047023Y-49690773D01*
X59047023Y-49309821D01*
X58999404Y-49214583D01*
X58904166Y-49166964D01*
X58713690Y-49166964D01*
X58618452Y-49214583D01*
X58570833Y-49309821D01*
X58570833Y-49405059D01*
X59047023Y-49500297D01*
X57380357Y-49166964D02*
X57380357Y-50166964D01*
X57380357Y-49214583D02*
X57285119Y-49166964D01*
X57094642Y-49166964D01*
X56999404Y-49214583D01*
X56951785Y-49262202D01*
X56904166Y-49357440D01*
X56904166Y-49643154D01*
X56951785Y-49738392D01*
X56999404Y-49786011D01*
X57094642Y-49833630D01*
X57285119Y-49833630D01*
X57380357Y-49786011D01*
X56047023Y-49833630D02*
X56047023Y-49309821D01*
X56094642Y-49214583D01*
X56189880Y-49166964D01*
X56380357Y-49166964D01*
X56475595Y-49214583D01*
X56047023Y-49786011D02*
X56142261Y-49833630D01*
X56380357Y-49833630D01*
X56475595Y-49786011D01*
X56523214Y-49690773D01*
X56523214Y-49595535D01*
X56475595Y-49500297D01*
X56380357Y-49452678D01*
X56142261Y-49452678D01*
X56047023Y-49405059D01*
X55142261Y-49833630D02*
X55142261Y-48833630D01*
X55142261Y-49786011D02*
X55237500Y-49833630D01*
X55427976Y-49833630D01*
X55523214Y-49786011D01*
X55570833Y-49738392D01*
X55618452Y-49643154D01*
X55618452Y-49357440D01*
X55570833Y-49262202D01*
X55523214Y-49214583D01*
X55427976Y-49166964D01*
X55237500Y-49166964D01*
X55142261Y-49214583D01*
X54713690Y-49786011D02*
X54618452Y-49833630D01*
X54427976Y-49833630D01*
X54332738Y-49786011D01*
X54285119Y-49690773D01*
X54285119Y-49643154D01*
X54332738Y-49547916D01*
X54427976Y-49500297D01*
X54570833Y-49500297D01*
X54666071Y-49452678D01*
X54713690Y-49357440D01*
X54713690Y-49309821D01*
X54666071Y-49214583D01*
X54570833Y-49166964D01*
X54427976Y-49166964D01*
X54332738Y-49214583D01*
D12*
G04 #@! TO.C,D1*
X37652500Y-50272500D02*
X37652500Y-48152500D01*
X41882500Y-49212500D02*
X41112500Y-49212500D01*
X36222500Y-49212500D02*
X36992500Y-49212500D01*
X41112500Y-50272500D02*
X36992500Y-50272500D01*
X41112500Y-48152500D02*
X41112500Y-50272500D01*
X36992500Y-48152500D02*
X41112500Y-48152500D01*
X36992500Y-50272500D02*
X36992500Y-48152500D01*
G04 #@! TO.C,D2*
X56702500Y-69322500D02*
X56702500Y-67202500D01*
X60932500Y-68262500D02*
X60162500Y-68262500D01*
X55272500Y-68262500D02*
X56042500Y-68262500D01*
X60162500Y-69322500D02*
X56042500Y-69322500D01*
X60162500Y-67202500D02*
X60162500Y-69322500D01*
X56042500Y-67202500D02*
X60162500Y-67202500D01*
X56042500Y-69322500D02*
X56042500Y-67202500D01*
G04 #@! TO.C,D3*
X88372500Y-41246250D02*
X86252500Y-41246250D01*
X87312500Y-37016250D02*
X87312500Y-37786250D01*
X87312500Y-42676250D02*
X87312500Y-41906250D01*
X88372500Y-37786250D02*
X88372500Y-41906250D01*
X86252500Y-37786250D02*
X88372500Y-37786250D01*
X86252500Y-41906250D02*
X86252500Y-37786250D01*
X88372500Y-41906250D02*
X86252500Y-41906250D01*
G04 #@! TO.C,D4*
X94142500Y-50272500D02*
X94142500Y-48152500D01*
X94142500Y-48152500D02*
X98262500Y-48152500D01*
X98262500Y-48152500D02*
X98262500Y-50272500D01*
X98262500Y-50272500D02*
X94142500Y-50272500D01*
X93372500Y-49212500D02*
X94142500Y-49212500D01*
X99032500Y-49212500D02*
X98262500Y-49212500D01*
X94802500Y-50272500D02*
X94802500Y-48152500D01*
G04 #@! TO.C,D5*
X37652500Y-69322500D02*
X37652500Y-67202500D01*
X41882500Y-68262500D02*
X41112500Y-68262500D01*
X36222500Y-68262500D02*
X36992500Y-68262500D01*
X41112500Y-69322500D02*
X36992500Y-69322500D01*
X41112500Y-67202500D02*
X41112500Y-69322500D01*
X36992500Y-67202500D02*
X41112500Y-67202500D01*
X36992500Y-69322500D02*
X36992500Y-67202500D01*
G04 #@! TO.C,D6*
X75092500Y-69322500D02*
X75092500Y-67202500D01*
X75092500Y-67202500D02*
X79212500Y-67202500D01*
X79212500Y-67202500D02*
X79212500Y-69322500D01*
X79212500Y-69322500D02*
X75092500Y-69322500D01*
X74322500Y-68262500D02*
X75092500Y-68262500D01*
X79982500Y-68262500D02*
X79212500Y-68262500D01*
X75752500Y-69322500D02*
X75752500Y-67202500D01*
G04 #@! TO.C,D7*
X75752500Y-50272500D02*
X75752500Y-48152500D01*
X79982500Y-49212500D02*
X79212500Y-49212500D01*
X74322500Y-49212500D02*
X75092500Y-49212500D01*
X79212500Y-50272500D02*
X75092500Y-50272500D01*
X79212500Y-48152500D02*
X79212500Y-50272500D01*
X75092500Y-48152500D02*
X79212500Y-48152500D01*
X75092500Y-50272500D02*
X75092500Y-48152500D01*
G04 #@! TO.C,D8*
X88372500Y-70481250D02*
X86252500Y-70481250D01*
X86252500Y-70481250D02*
X86252500Y-66361250D01*
X86252500Y-66361250D02*
X88372500Y-66361250D01*
X88372500Y-66361250D02*
X88372500Y-70481250D01*
X87312500Y-71251250D02*
X87312500Y-70481250D01*
X87312500Y-65591250D02*
X87312500Y-66361250D01*
X88372500Y-69821250D02*
X86252500Y-69821250D01*
G04 #@! TO.C,D9*
X50272500Y-77758750D02*
X48152500Y-77758750D01*
X49212500Y-73528750D02*
X49212500Y-74298750D01*
X49212500Y-79188750D02*
X49212500Y-78418750D01*
X50272500Y-74298750D02*
X50272500Y-78418750D01*
X48152500Y-74298750D02*
X50272500Y-74298750D01*
X48152500Y-78418750D02*
X48152500Y-74298750D01*
X50272500Y-78418750D02*
X48152500Y-78418750D01*
G04 #@! TO.C,D10*
X69322500Y-80006250D02*
X67202500Y-80006250D01*
X67202500Y-80006250D02*
X67202500Y-75886250D01*
X67202500Y-75886250D02*
X69322500Y-75886250D01*
X69322500Y-75886250D02*
X69322500Y-80006250D01*
X68262500Y-80776250D02*
X68262500Y-80006250D01*
X68262500Y-75116250D02*
X68262500Y-75886250D01*
X69322500Y-79346250D02*
X67202500Y-79346250D01*
G04 #@! TO.C,D11*
X57972500Y-88372500D02*
X57972500Y-86252500D01*
X62202500Y-87312500D02*
X61432500Y-87312500D01*
X56542500Y-87312500D02*
X57312500Y-87312500D01*
X61432500Y-88372500D02*
X57312500Y-88372500D01*
X61432500Y-86252500D02*
X61432500Y-88372500D01*
X57312500Y-86252500D02*
X61432500Y-86252500D01*
X57312500Y-88372500D02*
X57312500Y-86252500D01*
G04 #@! TO.C,D12*
X94142500Y-88372500D02*
X94142500Y-86252500D01*
X94142500Y-86252500D02*
X98262500Y-86252500D01*
X98262500Y-86252500D02*
X98262500Y-88372500D01*
X98262500Y-88372500D02*
X94142500Y-88372500D01*
X93372500Y-87312500D02*
X94142500Y-87312500D01*
X99032500Y-87312500D02*
X98262500Y-87312500D01*
X94802500Y-88372500D02*
X94802500Y-86252500D01*
G04 #@! TO.C,D13*
X37652500Y-88372500D02*
X37652500Y-86252500D01*
X41882500Y-87312500D02*
X41112500Y-87312500D01*
X36222500Y-87312500D02*
X36992500Y-87312500D01*
X41112500Y-88372500D02*
X36992500Y-88372500D01*
X41112500Y-86252500D02*
X41112500Y-88372500D01*
X36992500Y-86252500D02*
X41112500Y-86252500D01*
X36992500Y-88372500D02*
X36992500Y-86252500D01*
G04 #@! TO.C,D14*
X50272500Y-99666250D02*
X48152500Y-99666250D01*
X49212500Y-95436250D02*
X49212500Y-96206250D01*
X49212500Y-101096250D02*
X49212500Y-100326250D01*
X50272500Y-96206250D02*
X50272500Y-100326250D01*
X48152500Y-96206250D02*
X50272500Y-96206250D01*
X48152500Y-100326250D02*
X48152500Y-96206250D01*
X50272500Y-100326250D02*
X48152500Y-100326250D01*
G04 #@! TO.C,D15*
X69322500Y-98078750D02*
X67202500Y-98078750D01*
X68262500Y-93848750D02*
X68262500Y-94618750D01*
X68262500Y-99508750D02*
X68262500Y-98738750D01*
X69322500Y-94618750D02*
X69322500Y-98738750D01*
X67202500Y-94618750D02*
X69322500Y-94618750D01*
X67202500Y-98738750D02*
X67202500Y-94618750D01*
X69322500Y-98738750D02*
X67202500Y-98738750D01*
G04 #@! TO.C,D16*
X75092500Y-88372500D02*
X75092500Y-86252500D01*
X75092500Y-86252500D02*
X79212500Y-86252500D01*
X79212500Y-86252500D02*
X79212500Y-88372500D01*
X79212500Y-88372500D02*
X75092500Y-88372500D01*
X74322500Y-87312500D02*
X75092500Y-87312500D01*
X79982500Y-87312500D02*
X79212500Y-87312500D01*
X75752500Y-88372500D02*
X75752500Y-86252500D01*
G04 #@! TO.C,D17*
X47971250Y-107422500D02*
X47971250Y-105302500D01*
X52201250Y-106362500D02*
X51431250Y-106362500D01*
X46541250Y-106362500D02*
X47311250Y-106362500D01*
X51431250Y-107422500D02*
X47311250Y-107422500D01*
X51431250Y-105302500D02*
X51431250Y-107422500D01*
X47311250Y-105302500D02*
X51431250Y-105302500D01*
X47311250Y-107422500D02*
X47311250Y-105302500D01*
G04 #@! TO.C,D18*
X69322500Y-118106250D02*
X67202500Y-118106250D01*
X67202500Y-118106250D02*
X67202500Y-113986250D01*
X67202500Y-113986250D02*
X69322500Y-113986250D01*
X69322500Y-113986250D02*
X69322500Y-118106250D01*
X68262500Y-118876250D02*
X68262500Y-118106250D01*
X68262500Y-113216250D02*
X68262500Y-113986250D01*
X69322500Y-117446250D02*
X67202500Y-117446250D01*
G04 #@! TO.C,D19*
X75092500Y-107422500D02*
X75092500Y-105302500D01*
X75092500Y-105302500D02*
X79212500Y-105302500D01*
X79212500Y-105302500D02*
X79212500Y-107422500D01*
X79212500Y-107422500D02*
X75092500Y-107422500D01*
X74322500Y-106362500D02*
X75092500Y-106362500D01*
X79982500Y-106362500D02*
X79212500Y-106362500D01*
X75752500Y-107422500D02*
X75752500Y-105302500D01*
G04 #@! TO.C,D20*
X88372500Y-108581250D02*
X86252500Y-108581250D01*
X86252500Y-108581250D02*
X86252500Y-104461250D01*
X86252500Y-104461250D02*
X88372500Y-104461250D01*
X88372500Y-104461250D02*
X88372500Y-108581250D01*
X87312500Y-109351250D02*
X87312500Y-108581250D01*
X87312500Y-103691250D02*
X87312500Y-104461250D01*
X88372500Y-107921250D02*
X86252500Y-107921250D01*
D13*
G04 #@! TO.C,U1*
X67627500Y-32385000D02*
X67627500Y-62865000D01*
X67627500Y-32385000D02*
X62547500Y-32385000D01*
X62547500Y-32385000D02*
X62547500Y-29845000D01*
X62547500Y-29845000D02*
X54927500Y-29845000D01*
X54927500Y-29845000D02*
X54927500Y-32385000D01*
X54927500Y-32385000D02*
X49847500Y-32385000D01*
X49847500Y-32385000D02*
X49847500Y-62865000D01*
X49847500Y-62865000D02*
X67627500Y-62865000D01*
G04 #@! TO.C,SW1*
X51008551Y-87312500D02*
G75*
G03X51008551Y-87312500I-1796051J0D01*
G01*
X46212500Y-90312500D02*
X52212500Y-90312500D01*
X46212500Y-84312500D02*
X46212500Y-90312500D01*
X52212500Y-84312500D02*
X46212500Y-84312500D01*
X52212500Y-90312500D02*
X52212500Y-84312500D01*
D14*
G04 #@! TO.C,G\002A\002A\002A*
G36*
X83191350Y-118992650D02*
X83515200Y-118992650D01*
X83515200Y-118668800D01*
X83191350Y-118668800D01*
X83191350Y-118992650D01*
X83191350Y-118992650D01*
G37*
X83191350Y-118992650D02*
X83515200Y-118992650D01*
X83515200Y-118668800D01*
X83191350Y-118668800D01*
X83191350Y-118992650D01*
G36*
X82867500Y-119621300D02*
X83191350Y-119621300D01*
X83191350Y-119316500D01*
X82867500Y-119316500D01*
X82867500Y-119621300D01*
X82867500Y-119621300D01*
G37*
X82867500Y-119621300D02*
X83191350Y-119621300D01*
X83191350Y-119316500D01*
X82867500Y-119316500D01*
X82867500Y-119621300D01*
G36*
X83515200Y-119621300D02*
X83820000Y-119621300D01*
X83820000Y-119316500D01*
X83515200Y-119316500D01*
X83515200Y-119621300D01*
X83515200Y-119621300D01*
G37*
X83515200Y-119621300D02*
X83820000Y-119621300D01*
X83820000Y-119316500D01*
X83515200Y-119316500D01*
X83515200Y-119621300D01*
G36*
X82562700Y-120269000D02*
X82867500Y-120269000D01*
X82867500Y-119945150D01*
X82562700Y-119945150D01*
X82562700Y-120269000D01*
X82562700Y-120269000D01*
G37*
X82562700Y-120269000D02*
X82867500Y-120269000D01*
X82867500Y-119945150D01*
X82562700Y-119945150D01*
X82562700Y-120269000D01*
G36*
X83191350Y-120269000D02*
X83515200Y-120269000D01*
X83515200Y-119945150D01*
X83191350Y-119945150D01*
X83191350Y-120269000D01*
X83191350Y-120269000D01*
G37*
X83191350Y-120269000D02*
X83515200Y-120269000D01*
X83515200Y-119945150D01*
X83191350Y-119945150D01*
X83191350Y-120269000D01*
G36*
X83820000Y-120269000D02*
X84143850Y-120269000D01*
X84143850Y-119945150D01*
X83820000Y-119945150D01*
X83820000Y-120269000D01*
X83820000Y-120269000D01*
G37*
X83820000Y-120269000D02*
X84143850Y-120269000D01*
X84143850Y-119945150D01*
X83820000Y-119945150D01*
X83820000Y-120269000D01*
G36*
X82238850Y-120897650D02*
X82562700Y-120897650D01*
X82562700Y-120573800D01*
X82238850Y-120573800D01*
X82238850Y-120897650D01*
X82238850Y-120897650D01*
G37*
X82238850Y-120897650D02*
X82562700Y-120897650D01*
X82562700Y-120573800D01*
X82238850Y-120573800D01*
X82238850Y-120897650D01*
G36*
X84143850Y-120897650D02*
X84467700Y-120897650D01*
X84467700Y-120573800D01*
X84143850Y-120573800D01*
X84143850Y-120897650D01*
X84143850Y-120897650D01*
G37*
X84143850Y-120897650D02*
X84467700Y-120897650D01*
X84467700Y-120573800D01*
X84143850Y-120573800D01*
X84143850Y-120897650D01*
G36*
X83340575Y-117478685D02*
X83241281Y-117479782D01*
X83151911Y-117483107D01*
X83069837Y-117488985D01*
X82992426Y-117497737D01*
X82917048Y-117509688D01*
X82841073Y-117525159D01*
X82761869Y-117544474D01*
X82725647Y-117554184D01*
X82558809Y-117606375D01*
X82397139Y-117669843D01*
X82241248Y-117744272D01*
X82091751Y-117829344D01*
X81949259Y-117924742D01*
X81827543Y-118019143D01*
X81701408Y-118131723D01*
X81583539Y-118252879D01*
X81474482Y-118381757D01*
X81374784Y-118517503D01*
X81284993Y-118659263D01*
X81205655Y-118806182D01*
X81137317Y-118957407D01*
X81080526Y-119112084D01*
X81041523Y-119246492D01*
X81015067Y-119358481D01*
X80994779Y-119464029D01*
X80980065Y-119567447D01*
X80970330Y-119673044D01*
X80964982Y-119785129D01*
X80964459Y-119805450D01*
X80966635Y-119980087D01*
X80981190Y-120151914D01*
X81008122Y-120320906D01*
X81047425Y-120487040D01*
X81099095Y-120650293D01*
X81150453Y-120781439D01*
X81172919Y-120833651D01*
X81192169Y-120876977D01*
X81209664Y-120914340D01*
X81226865Y-120948660D01*
X81245234Y-120982860D01*
X81266230Y-121019862D01*
X81289530Y-121059575D01*
X81384905Y-121208591D01*
X81488989Y-121348372D01*
X81601887Y-121479021D01*
X81723707Y-121600647D01*
X81854553Y-121713353D01*
X81994531Y-121817248D01*
X82140425Y-121910470D01*
X82182689Y-121935245D01*
X82219420Y-121956026D01*
X82253539Y-121974274D01*
X82287968Y-121991450D01*
X82325630Y-122009015D01*
X82369445Y-122028430D01*
X82418561Y-122049547D01*
X82495548Y-122081185D01*
X82566522Y-122107616D01*
X82636213Y-122130406D01*
X82709352Y-122151121D01*
X82775425Y-122167707D01*
X82907039Y-122196151D01*
X83032714Y-122216692D01*
X83156097Y-122229764D01*
X83280831Y-122235798D01*
X83353275Y-122236260D01*
X83394250Y-122235848D01*
X83432747Y-122235284D01*
X83466252Y-122234617D01*
X83492248Y-122233900D01*
X83508223Y-122233182D01*
X83508850Y-122233136D01*
X83681790Y-122213975D01*
X83851995Y-122182786D01*
X84018780Y-122139823D01*
X84181456Y-122085340D01*
X84339338Y-122019591D01*
X84491736Y-121942830D01*
X84637965Y-121855311D01*
X84758729Y-121771286D01*
X84897072Y-121660609D01*
X85025618Y-121541920D01*
X85144190Y-121415481D01*
X85252608Y-121281555D01*
X85350691Y-121140404D01*
X85438262Y-120992291D01*
X85515140Y-120837478D01*
X85581146Y-120676227D01*
X85636100Y-120508800D01*
X85645816Y-120474353D01*
X85666909Y-120392918D01*
X85684017Y-120315858D01*
X85697463Y-120240543D01*
X85707571Y-120164343D01*
X85714662Y-120084626D01*
X85719061Y-119998761D01*
X85721090Y-119904119D01*
X85721315Y-119859425D01*
X85720775Y-119815136D01*
X85295115Y-119815136D01*
X85295033Y-119879246D01*
X85293700Y-119942978D01*
X85291143Y-120003079D01*
X85287386Y-120056297D01*
X85284410Y-120084850D01*
X85258911Y-120242688D01*
X85221589Y-120395980D01*
X85172590Y-120544427D01*
X85112055Y-120687728D01*
X85040129Y-120825585D01*
X84956956Y-120957697D01*
X84862678Y-121083764D01*
X84757440Y-121203487D01*
X84739571Y-121222058D01*
X84632184Y-121323717D01*
X84515622Y-121418066D01*
X84392046Y-121503521D01*
X84263615Y-121578503D01*
X84226984Y-121597452D01*
X84167458Y-121626772D01*
X84115265Y-121650947D01*
X84066867Y-121671401D01*
X84018728Y-121689557D01*
X83967310Y-121706836D01*
X83915250Y-121722831D01*
X83763880Y-121762362D01*
X83615279Y-121789922D01*
X83468289Y-121805621D01*
X83321748Y-121809563D01*
X83174499Y-121801858D01*
X83121266Y-121796274D01*
X82971400Y-121773119D01*
X82827735Y-121739672D01*
X82688265Y-121695332D01*
X82550984Y-121639501D01*
X82473418Y-121602542D01*
X82336912Y-121527807D01*
X82209379Y-121444819D01*
X82090213Y-121353029D01*
X81978807Y-121251889D01*
X81874555Y-121140853D01*
X81776851Y-121019372D01*
X81690237Y-120894857D01*
X81670136Y-120861904D01*
X81646678Y-120820201D01*
X81621318Y-120772647D01*
X81595512Y-120722135D01*
X81570716Y-120671561D01*
X81548386Y-120623823D01*
X81529979Y-120581815D01*
X81519228Y-120554750D01*
X81468934Y-120401517D01*
X81431018Y-120247326D01*
X81405511Y-120092609D01*
X81392446Y-119937801D01*
X81391856Y-119783335D01*
X81403773Y-119629643D01*
X81428229Y-119477159D01*
X81436072Y-119440325D01*
X81462991Y-119331290D01*
X81493637Y-119230344D01*
X81529587Y-119133055D01*
X81572420Y-119034995D01*
X81602548Y-118973016D01*
X81677511Y-118837937D01*
X81762971Y-118709588D01*
X81858312Y-118588544D01*
X81962921Y-118475381D01*
X82076182Y-118370675D01*
X82197483Y-118275001D01*
X82326209Y-118188937D01*
X82461745Y-118113058D01*
X82577090Y-118059033D01*
X82714393Y-118005917D01*
X82852436Y-117964319D01*
X82992826Y-117933912D01*
X83137170Y-117914370D01*
X83287074Y-117905367D01*
X83337400Y-117904655D01*
X83495876Y-117909751D01*
X83649178Y-117926267D01*
X83797926Y-117954388D01*
X83942739Y-117994303D01*
X84084236Y-118046198D01*
X84223035Y-118110260D01*
X84359757Y-118186677D01*
X84440315Y-118238045D01*
X84551861Y-118319267D01*
X84659220Y-118410872D01*
X84761078Y-118511321D01*
X84856122Y-118619074D01*
X84943041Y-118732594D01*
X85020522Y-118850342D01*
X85087253Y-118970778D01*
X85115089Y-119029114D01*
X85164212Y-119145001D01*
X85204397Y-119256392D01*
X85236602Y-119366750D01*
X85261786Y-119479541D01*
X85280906Y-119598226D01*
X85287627Y-119653050D01*
X85291437Y-119698786D01*
X85293925Y-119753898D01*
X85295115Y-119815136D01*
X85720775Y-119815136D01*
X85719919Y-119745028D01*
X85715220Y-119640335D01*
X85706760Y-119542669D01*
X85694082Y-119449358D01*
X85676729Y-119357725D01*
X85654241Y-119265097D01*
X85626162Y-119168799D01*
X85592033Y-119066156D01*
X85579478Y-119030750D01*
X85516770Y-118874974D01*
X85442497Y-118724307D01*
X85356813Y-118578958D01*
X85259869Y-118439136D01*
X85151817Y-118305052D01*
X85032811Y-118176916D01*
X84903004Y-118054937D01*
X84817534Y-117982793D01*
X84748871Y-117930398D01*
X84670840Y-117876538D01*
X84586352Y-117822979D01*
X84498322Y-117771494D01*
X84409660Y-117723849D01*
X84323279Y-117681816D01*
X84318475Y-117679621D01*
X84262507Y-117655723D01*
X84197562Y-117630614D01*
X84127137Y-117605479D01*
X84054727Y-117581499D01*
X83983829Y-117559858D01*
X83917939Y-117541741D01*
X83892431Y-117535426D01*
X83817851Y-117518812D01*
X83746672Y-117505484D01*
X83676268Y-117495171D01*
X83604015Y-117487605D01*
X83527288Y-117482515D01*
X83443463Y-117479632D01*
X83349914Y-117478684D01*
X83340575Y-117478685D01*
X83340575Y-117478685D01*
G37*
X83340575Y-117478685D02*
X83241281Y-117479782D01*
X83151911Y-117483107D01*
X83069837Y-117488985D01*
X82992426Y-117497737D01*
X82917048Y-117509688D01*
X82841073Y-117525159D01*
X82761869Y-117544474D01*
X82725647Y-117554184D01*
X82558809Y-117606375D01*
X82397139Y-117669843D01*
X82241248Y-117744272D01*
X82091751Y-117829344D01*
X81949259Y-117924742D01*
X81827543Y-118019143D01*
X81701408Y-118131723D01*
X81583539Y-118252879D01*
X81474482Y-118381757D01*
X81374784Y-118517503D01*
X81284993Y-118659263D01*
X81205655Y-118806182D01*
X81137317Y-118957407D01*
X81080526Y-119112084D01*
X81041523Y-119246492D01*
X81015067Y-119358481D01*
X80994779Y-119464029D01*
X80980065Y-119567447D01*
X80970330Y-119673044D01*
X80964982Y-119785129D01*
X80964459Y-119805450D01*
X80966635Y-119980087D01*
X80981190Y-120151914D01*
X81008122Y-120320906D01*
X81047425Y-120487040D01*
X81099095Y-120650293D01*
X81150453Y-120781439D01*
X81172919Y-120833651D01*
X81192169Y-120876977D01*
X81209664Y-120914340D01*
X81226865Y-120948660D01*
X81245234Y-120982860D01*
X81266230Y-121019862D01*
X81289530Y-121059575D01*
X81384905Y-121208591D01*
X81488989Y-121348372D01*
X81601887Y-121479021D01*
X81723707Y-121600647D01*
X81854553Y-121713353D01*
X81994531Y-121817248D01*
X82140425Y-121910470D01*
X82182689Y-121935245D01*
X82219420Y-121956026D01*
X82253539Y-121974274D01*
X82287968Y-121991450D01*
X82325630Y-122009015D01*
X82369445Y-122028430D01*
X82418561Y-122049547D01*
X82495548Y-122081185D01*
X82566522Y-122107616D01*
X82636213Y-122130406D01*
X82709352Y-122151121D01*
X82775425Y-122167707D01*
X82907039Y-122196151D01*
X83032714Y-122216692D01*
X83156097Y-122229764D01*
X83280831Y-122235798D01*
X83353275Y-122236260D01*
X83394250Y-122235848D01*
X83432747Y-122235284D01*
X83466252Y-122234617D01*
X83492248Y-122233900D01*
X83508223Y-122233182D01*
X83508850Y-122233136D01*
X83681790Y-122213975D01*
X83851995Y-122182786D01*
X84018780Y-122139823D01*
X84181456Y-122085340D01*
X84339338Y-122019591D01*
X84491736Y-121942830D01*
X84637965Y-121855311D01*
X84758729Y-121771286D01*
X84897072Y-121660609D01*
X85025618Y-121541920D01*
X85144190Y-121415481D01*
X85252608Y-121281555D01*
X85350691Y-121140404D01*
X85438262Y-120992291D01*
X85515140Y-120837478D01*
X85581146Y-120676227D01*
X85636100Y-120508800D01*
X85645816Y-120474353D01*
X85666909Y-120392918D01*
X85684017Y-120315858D01*
X85697463Y-120240543D01*
X85707571Y-120164343D01*
X85714662Y-120084626D01*
X85719061Y-119998761D01*
X85721090Y-119904119D01*
X85721315Y-119859425D01*
X85720775Y-119815136D01*
X85295115Y-119815136D01*
X85295033Y-119879246D01*
X85293700Y-119942978D01*
X85291143Y-120003079D01*
X85287386Y-120056297D01*
X85284410Y-120084850D01*
X85258911Y-120242688D01*
X85221589Y-120395980D01*
X85172590Y-120544427D01*
X85112055Y-120687728D01*
X85040129Y-120825585D01*
X84956956Y-120957697D01*
X84862678Y-121083764D01*
X84757440Y-121203487D01*
X84739571Y-121222058D01*
X84632184Y-121323717D01*
X84515622Y-121418066D01*
X84392046Y-121503521D01*
X84263615Y-121578503D01*
X84226984Y-121597452D01*
X84167458Y-121626772D01*
X84115265Y-121650947D01*
X84066867Y-121671401D01*
X84018728Y-121689557D01*
X83967310Y-121706836D01*
X83915250Y-121722831D01*
X83763880Y-121762362D01*
X83615279Y-121789922D01*
X83468289Y-121805621D01*
X83321748Y-121809563D01*
X83174499Y-121801858D01*
X83121266Y-121796274D01*
X82971400Y-121773119D01*
X82827735Y-121739672D01*
X82688265Y-121695332D01*
X82550984Y-121639501D01*
X82473418Y-121602542D01*
X82336912Y-121527807D01*
X82209379Y-121444819D01*
X82090213Y-121353029D01*
X81978807Y-121251889D01*
X81874555Y-121140853D01*
X81776851Y-121019372D01*
X81690237Y-120894857D01*
X81670136Y-120861904D01*
X81646678Y-120820201D01*
X81621318Y-120772647D01*
X81595512Y-120722135D01*
X81570716Y-120671561D01*
X81548386Y-120623823D01*
X81529979Y-120581815D01*
X81519228Y-120554750D01*
X81468934Y-120401517D01*
X81431018Y-120247326D01*
X81405511Y-120092609D01*
X81392446Y-119937801D01*
X81391856Y-119783335D01*
X81403773Y-119629643D01*
X81428229Y-119477159D01*
X81436072Y-119440325D01*
X81462991Y-119331290D01*
X81493637Y-119230344D01*
X81529587Y-119133055D01*
X81572420Y-119034995D01*
X81602548Y-118973016D01*
X81677511Y-118837937D01*
X81762971Y-118709588D01*
X81858312Y-118588544D01*
X81962921Y-118475381D01*
X82076182Y-118370675D01*
X82197483Y-118275001D01*
X82326209Y-118188937D01*
X82461745Y-118113058D01*
X82577090Y-118059033D01*
X82714393Y-118005917D01*
X82852436Y-117964319D01*
X82992826Y-117933912D01*
X83137170Y-117914370D01*
X83287074Y-117905367D01*
X83337400Y-117904655D01*
X83495876Y-117909751D01*
X83649178Y-117926267D01*
X83797926Y-117954388D01*
X83942739Y-117994303D01*
X84084236Y-118046198D01*
X84223035Y-118110260D01*
X84359757Y-118186677D01*
X84440315Y-118238045D01*
X84551861Y-118319267D01*
X84659220Y-118410872D01*
X84761078Y-118511321D01*
X84856122Y-118619074D01*
X84943041Y-118732594D01*
X85020522Y-118850342D01*
X85087253Y-118970778D01*
X85115089Y-119029114D01*
X85164212Y-119145001D01*
X85204397Y-119256392D01*
X85236602Y-119366750D01*
X85261786Y-119479541D01*
X85280906Y-119598226D01*
X85287627Y-119653050D01*
X85291437Y-119698786D01*
X85293925Y-119753898D01*
X85295115Y-119815136D01*
X85720775Y-119815136D01*
X85719919Y-119745028D01*
X85715220Y-119640335D01*
X85706760Y-119542669D01*
X85694082Y-119449358D01*
X85676729Y-119357725D01*
X85654241Y-119265097D01*
X85626162Y-119168799D01*
X85592033Y-119066156D01*
X85579478Y-119030750D01*
X85516770Y-118874974D01*
X85442497Y-118724307D01*
X85356813Y-118578958D01*
X85259869Y-118439136D01*
X85151817Y-118305052D01*
X85032811Y-118176916D01*
X84903004Y-118054937D01*
X84817534Y-117982793D01*
X84748871Y-117930398D01*
X84670840Y-117876538D01*
X84586352Y-117822979D01*
X84498322Y-117771494D01*
X84409660Y-117723849D01*
X84323279Y-117681816D01*
X84318475Y-117679621D01*
X84262507Y-117655723D01*
X84197562Y-117630614D01*
X84127137Y-117605479D01*
X84054727Y-117581499D01*
X83983829Y-117559858D01*
X83917939Y-117541741D01*
X83892431Y-117535426D01*
X83817851Y-117518812D01*
X83746672Y-117505484D01*
X83676268Y-117495171D01*
X83604015Y-117487605D01*
X83527288Y-117482515D01*
X83443463Y-117479632D01*
X83349914Y-117478684D01*
X83340575Y-117478685D01*
G04 #@! TO.C,D1*
D13*
X39790595Y-51724880D02*
X39790595Y-50724880D01*
X39552500Y-50724880D01*
X39409642Y-50772500D01*
X39314404Y-50867738D01*
X39266785Y-50962976D01*
X39219166Y-51153452D01*
X39219166Y-51296309D01*
X39266785Y-51486785D01*
X39314404Y-51582023D01*
X39409642Y-51677261D01*
X39552500Y-51724880D01*
X39790595Y-51724880D01*
X38266785Y-51724880D02*
X38838214Y-51724880D01*
X38552500Y-51724880D02*
X38552500Y-50724880D01*
X38647738Y-50867738D01*
X38742976Y-50962976D01*
X38838214Y-51010595D01*
G04 #@! TO.C,D2*
X58840595Y-70774880D02*
X58840595Y-69774880D01*
X58602500Y-69774880D01*
X58459642Y-69822500D01*
X58364404Y-69917738D01*
X58316785Y-70012976D01*
X58269166Y-70203452D01*
X58269166Y-70346309D01*
X58316785Y-70536785D01*
X58364404Y-70632023D01*
X58459642Y-70727261D01*
X58602500Y-70774880D01*
X58840595Y-70774880D01*
X57888214Y-69870119D02*
X57840595Y-69822500D01*
X57745357Y-69774880D01*
X57507261Y-69774880D01*
X57412023Y-69822500D01*
X57364404Y-69870119D01*
X57316785Y-69965357D01*
X57316785Y-70060595D01*
X57364404Y-70203452D01*
X57935833Y-70774880D01*
X57316785Y-70774880D01*
G04 #@! TO.C,D3*
X89824880Y-39108154D02*
X88824880Y-39108154D01*
X88824880Y-39346250D01*
X88872500Y-39489107D01*
X88967738Y-39584345D01*
X89062976Y-39631964D01*
X89253452Y-39679583D01*
X89396309Y-39679583D01*
X89586785Y-39631964D01*
X89682023Y-39584345D01*
X89777261Y-39489107D01*
X89824880Y-39346250D01*
X89824880Y-39108154D01*
X88824880Y-40012916D02*
X88824880Y-40631964D01*
X89205833Y-40298630D01*
X89205833Y-40441488D01*
X89253452Y-40536726D01*
X89301071Y-40584345D01*
X89396309Y-40631964D01*
X89634404Y-40631964D01*
X89729642Y-40584345D01*
X89777261Y-40536726D01*
X89824880Y-40441488D01*
X89824880Y-40155773D01*
X89777261Y-40060535D01*
X89729642Y-40012916D01*
G04 #@! TO.C,D4*
X96940595Y-51724880D02*
X96940595Y-50724880D01*
X96702500Y-50724880D01*
X96559642Y-50772500D01*
X96464404Y-50867738D01*
X96416785Y-50962976D01*
X96369166Y-51153452D01*
X96369166Y-51296309D01*
X96416785Y-51486785D01*
X96464404Y-51582023D01*
X96559642Y-51677261D01*
X96702500Y-51724880D01*
X96940595Y-51724880D01*
X95512023Y-51058214D02*
X95512023Y-51724880D01*
X95750119Y-50677261D02*
X95988214Y-51391547D01*
X95369166Y-51391547D01*
G04 #@! TO.C,D5*
X39790595Y-70774880D02*
X39790595Y-69774880D01*
X39552500Y-69774880D01*
X39409642Y-69822500D01*
X39314404Y-69917738D01*
X39266785Y-70012976D01*
X39219166Y-70203452D01*
X39219166Y-70346309D01*
X39266785Y-70536785D01*
X39314404Y-70632023D01*
X39409642Y-70727261D01*
X39552500Y-70774880D01*
X39790595Y-70774880D01*
X38314404Y-69774880D02*
X38790595Y-69774880D01*
X38838214Y-70251071D01*
X38790595Y-70203452D01*
X38695357Y-70155833D01*
X38457261Y-70155833D01*
X38362023Y-70203452D01*
X38314404Y-70251071D01*
X38266785Y-70346309D01*
X38266785Y-70584404D01*
X38314404Y-70679642D01*
X38362023Y-70727261D01*
X38457261Y-70774880D01*
X38695357Y-70774880D01*
X38790595Y-70727261D01*
X38838214Y-70679642D01*
G04 #@! TO.C,D6*
X77890595Y-70774880D02*
X77890595Y-69774880D01*
X77652500Y-69774880D01*
X77509642Y-69822500D01*
X77414404Y-69917738D01*
X77366785Y-70012976D01*
X77319166Y-70203452D01*
X77319166Y-70346309D01*
X77366785Y-70536785D01*
X77414404Y-70632023D01*
X77509642Y-70727261D01*
X77652500Y-70774880D01*
X77890595Y-70774880D01*
X76462023Y-69774880D02*
X76652500Y-69774880D01*
X76747738Y-69822500D01*
X76795357Y-69870119D01*
X76890595Y-70012976D01*
X76938214Y-70203452D01*
X76938214Y-70584404D01*
X76890595Y-70679642D01*
X76842976Y-70727261D01*
X76747738Y-70774880D01*
X76557261Y-70774880D01*
X76462023Y-70727261D01*
X76414404Y-70679642D01*
X76366785Y-70584404D01*
X76366785Y-70346309D01*
X76414404Y-70251071D01*
X76462023Y-70203452D01*
X76557261Y-70155833D01*
X76747738Y-70155833D01*
X76842976Y-70203452D01*
X76890595Y-70251071D01*
X76938214Y-70346309D01*
G04 #@! TO.C,D7*
X77890595Y-51724880D02*
X77890595Y-50724880D01*
X77652500Y-50724880D01*
X77509642Y-50772500D01*
X77414404Y-50867738D01*
X77366785Y-50962976D01*
X77319166Y-51153452D01*
X77319166Y-51296309D01*
X77366785Y-51486785D01*
X77414404Y-51582023D01*
X77509642Y-51677261D01*
X77652500Y-51724880D01*
X77890595Y-51724880D01*
X76985833Y-50724880D02*
X76319166Y-50724880D01*
X76747738Y-51724880D01*
G04 #@! TO.C,D8*
X89824880Y-67683154D02*
X88824880Y-67683154D01*
X88824880Y-67921250D01*
X88872500Y-68064107D01*
X88967738Y-68159345D01*
X89062976Y-68206964D01*
X89253452Y-68254583D01*
X89396309Y-68254583D01*
X89586785Y-68206964D01*
X89682023Y-68159345D01*
X89777261Y-68064107D01*
X89824880Y-67921250D01*
X89824880Y-67683154D01*
X89253452Y-68826011D02*
X89205833Y-68730773D01*
X89158214Y-68683154D01*
X89062976Y-68635535D01*
X89015357Y-68635535D01*
X88920119Y-68683154D01*
X88872500Y-68730773D01*
X88824880Y-68826011D01*
X88824880Y-69016488D01*
X88872500Y-69111726D01*
X88920119Y-69159345D01*
X89015357Y-69206964D01*
X89062976Y-69206964D01*
X89158214Y-69159345D01*
X89205833Y-69111726D01*
X89253452Y-69016488D01*
X89253452Y-68826011D01*
X89301071Y-68730773D01*
X89348690Y-68683154D01*
X89443928Y-68635535D01*
X89634404Y-68635535D01*
X89729642Y-68683154D01*
X89777261Y-68730773D01*
X89824880Y-68826011D01*
X89824880Y-69016488D01*
X89777261Y-69111726D01*
X89729642Y-69159345D01*
X89634404Y-69206964D01*
X89443928Y-69206964D01*
X89348690Y-69159345D01*
X89301071Y-69111726D01*
X89253452Y-69016488D01*
G04 #@! TO.C,D9*
X51724880Y-75620654D02*
X50724880Y-75620654D01*
X50724880Y-75858750D01*
X50772500Y-76001607D01*
X50867738Y-76096845D01*
X50962976Y-76144464D01*
X51153452Y-76192083D01*
X51296309Y-76192083D01*
X51486785Y-76144464D01*
X51582023Y-76096845D01*
X51677261Y-76001607D01*
X51724880Y-75858750D01*
X51724880Y-75620654D01*
X51724880Y-76668273D02*
X51724880Y-76858750D01*
X51677261Y-76953988D01*
X51629642Y-77001607D01*
X51486785Y-77096845D01*
X51296309Y-77144464D01*
X50915357Y-77144464D01*
X50820119Y-77096845D01*
X50772500Y-77049226D01*
X50724880Y-76953988D01*
X50724880Y-76763511D01*
X50772500Y-76668273D01*
X50820119Y-76620654D01*
X50915357Y-76573035D01*
X51153452Y-76573035D01*
X51248690Y-76620654D01*
X51296309Y-76668273D01*
X51343928Y-76763511D01*
X51343928Y-76953988D01*
X51296309Y-77049226D01*
X51248690Y-77096845D01*
X51153452Y-77144464D01*
G04 #@! TO.C,D10*
X70774880Y-76731964D02*
X69774880Y-76731964D01*
X69774880Y-76970059D01*
X69822500Y-77112916D01*
X69917738Y-77208154D01*
X70012976Y-77255773D01*
X70203452Y-77303392D01*
X70346309Y-77303392D01*
X70536785Y-77255773D01*
X70632023Y-77208154D01*
X70727261Y-77112916D01*
X70774880Y-76970059D01*
X70774880Y-76731964D01*
X70774880Y-78255773D02*
X70774880Y-77684345D01*
X70774880Y-77970059D02*
X69774880Y-77970059D01*
X69917738Y-77874821D01*
X70012976Y-77779583D01*
X70060595Y-77684345D01*
X69774880Y-78874821D02*
X69774880Y-78970059D01*
X69822500Y-79065297D01*
X69870119Y-79112916D01*
X69965357Y-79160535D01*
X70155833Y-79208154D01*
X70393928Y-79208154D01*
X70584404Y-79160535D01*
X70679642Y-79112916D01*
X70727261Y-79065297D01*
X70774880Y-78970059D01*
X70774880Y-78874821D01*
X70727261Y-78779583D01*
X70679642Y-78731964D01*
X70584404Y-78684345D01*
X70393928Y-78636726D01*
X70155833Y-78636726D01*
X69965357Y-78684345D01*
X69870119Y-78731964D01*
X69822500Y-78779583D01*
X69774880Y-78874821D01*
G04 #@! TO.C,D11*
X60586785Y-89824880D02*
X60586785Y-88824880D01*
X60348690Y-88824880D01*
X60205833Y-88872500D01*
X60110595Y-88967738D01*
X60062976Y-89062976D01*
X60015357Y-89253452D01*
X60015357Y-89396309D01*
X60062976Y-89586785D01*
X60110595Y-89682023D01*
X60205833Y-89777261D01*
X60348690Y-89824880D01*
X60586785Y-89824880D01*
X59062976Y-89824880D02*
X59634404Y-89824880D01*
X59348690Y-89824880D02*
X59348690Y-88824880D01*
X59443928Y-88967738D01*
X59539166Y-89062976D01*
X59634404Y-89110595D01*
X58110595Y-89824880D02*
X58682023Y-89824880D01*
X58396309Y-89824880D02*
X58396309Y-88824880D01*
X58491547Y-88967738D01*
X58586785Y-89062976D01*
X58682023Y-89110595D01*
G04 #@! TO.C,D12*
X97416785Y-89824880D02*
X97416785Y-88824880D01*
X97178690Y-88824880D01*
X97035833Y-88872500D01*
X96940595Y-88967738D01*
X96892976Y-89062976D01*
X96845357Y-89253452D01*
X96845357Y-89396309D01*
X96892976Y-89586785D01*
X96940595Y-89682023D01*
X97035833Y-89777261D01*
X97178690Y-89824880D01*
X97416785Y-89824880D01*
X95892976Y-89824880D02*
X96464404Y-89824880D01*
X96178690Y-89824880D02*
X96178690Y-88824880D01*
X96273928Y-88967738D01*
X96369166Y-89062976D01*
X96464404Y-89110595D01*
X95512023Y-88920119D02*
X95464404Y-88872500D01*
X95369166Y-88824880D01*
X95131071Y-88824880D01*
X95035833Y-88872500D01*
X94988214Y-88920119D01*
X94940595Y-89015357D01*
X94940595Y-89110595D01*
X94988214Y-89253452D01*
X95559642Y-89824880D01*
X94940595Y-89824880D01*
G04 #@! TO.C,D13*
X40266785Y-89824880D02*
X40266785Y-88824880D01*
X40028690Y-88824880D01*
X39885833Y-88872500D01*
X39790595Y-88967738D01*
X39742976Y-89062976D01*
X39695357Y-89253452D01*
X39695357Y-89396309D01*
X39742976Y-89586785D01*
X39790595Y-89682023D01*
X39885833Y-89777261D01*
X40028690Y-89824880D01*
X40266785Y-89824880D01*
X38742976Y-89824880D02*
X39314404Y-89824880D01*
X39028690Y-89824880D02*
X39028690Y-88824880D01*
X39123928Y-88967738D01*
X39219166Y-89062976D01*
X39314404Y-89110595D01*
X38409642Y-88824880D02*
X37790595Y-88824880D01*
X38123928Y-89205833D01*
X37981071Y-89205833D01*
X37885833Y-89253452D01*
X37838214Y-89301071D01*
X37790595Y-89396309D01*
X37790595Y-89634404D01*
X37838214Y-89729642D01*
X37885833Y-89777261D01*
X37981071Y-89824880D01*
X38266785Y-89824880D01*
X38362023Y-89777261D01*
X38409642Y-89729642D01*
G04 #@! TO.C,D14*
X51724880Y-97051964D02*
X50724880Y-97051964D01*
X50724880Y-97290059D01*
X50772500Y-97432916D01*
X50867738Y-97528154D01*
X50962976Y-97575773D01*
X51153452Y-97623392D01*
X51296309Y-97623392D01*
X51486785Y-97575773D01*
X51582023Y-97528154D01*
X51677261Y-97432916D01*
X51724880Y-97290059D01*
X51724880Y-97051964D01*
X51724880Y-98575773D02*
X51724880Y-98004345D01*
X51724880Y-98290059D02*
X50724880Y-98290059D01*
X50867738Y-98194821D01*
X50962976Y-98099583D01*
X51010595Y-98004345D01*
X51058214Y-99432916D02*
X51724880Y-99432916D01*
X50677261Y-99194821D02*
X51391547Y-98956726D01*
X51391547Y-99575773D01*
G04 #@! TO.C,D15*
X70774880Y-95464464D02*
X69774880Y-95464464D01*
X69774880Y-95702559D01*
X69822500Y-95845416D01*
X69917738Y-95940654D01*
X70012976Y-95988273D01*
X70203452Y-96035892D01*
X70346309Y-96035892D01*
X70536785Y-95988273D01*
X70632023Y-95940654D01*
X70727261Y-95845416D01*
X70774880Y-95702559D01*
X70774880Y-95464464D01*
X70774880Y-96988273D02*
X70774880Y-96416845D01*
X70774880Y-96702559D02*
X69774880Y-96702559D01*
X69917738Y-96607321D01*
X70012976Y-96512083D01*
X70060595Y-96416845D01*
X69774880Y-97893035D02*
X69774880Y-97416845D01*
X70251071Y-97369226D01*
X70203452Y-97416845D01*
X70155833Y-97512083D01*
X70155833Y-97750178D01*
X70203452Y-97845416D01*
X70251071Y-97893035D01*
X70346309Y-97940654D01*
X70584404Y-97940654D01*
X70679642Y-97893035D01*
X70727261Y-97845416D01*
X70774880Y-97750178D01*
X70774880Y-97512083D01*
X70727261Y-97416845D01*
X70679642Y-97369226D01*
G04 #@! TO.C,D16*
X78366785Y-89824880D02*
X78366785Y-88824880D01*
X78128690Y-88824880D01*
X77985833Y-88872500D01*
X77890595Y-88967738D01*
X77842976Y-89062976D01*
X77795357Y-89253452D01*
X77795357Y-89396309D01*
X77842976Y-89586785D01*
X77890595Y-89682023D01*
X77985833Y-89777261D01*
X78128690Y-89824880D01*
X78366785Y-89824880D01*
X76842976Y-89824880D02*
X77414404Y-89824880D01*
X77128690Y-89824880D02*
X77128690Y-88824880D01*
X77223928Y-88967738D01*
X77319166Y-89062976D01*
X77414404Y-89110595D01*
X75985833Y-88824880D02*
X76176309Y-88824880D01*
X76271547Y-88872500D01*
X76319166Y-88920119D01*
X76414404Y-89062976D01*
X76462023Y-89253452D01*
X76462023Y-89634404D01*
X76414404Y-89729642D01*
X76366785Y-89777261D01*
X76271547Y-89824880D01*
X76081071Y-89824880D01*
X75985833Y-89777261D01*
X75938214Y-89729642D01*
X75890595Y-89634404D01*
X75890595Y-89396309D01*
X75938214Y-89301071D01*
X75985833Y-89253452D01*
X76081071Y-89205833D01*
X76271547Y-89205833D01*
X76366785Y-89253452D01*
X76414404Y-89301071D01*
X76462023Y-89396309D01*
G04 #@! TO.C,D17*
X50585535Y-108874880D02*
X50585535Y-107874880D01*
X50347440Y-107874880D01*
X50204583Y-107922500D01*
X50109345Y-108017738D01*
X50061726Y-108112976D01*
X50014107Y-108303452D01*
X50014107Y-108446309D01*
X50061726Y-108636785D01*
X50109345Y-108732023D01*
X50204583Y-108827261D01*
X50347440Y-108874880D01*
X50585535Y-108874880D01*
X49061726Y-108874880D02*
X49633154Y-108874880D01*
X49347440Y-108874880D02*
X49347440Y-107874880D01*
X49442678Y-108017738D01*
X49537916Y-108112976D01*
X49633154Y-108160595D01*
X48728392Y-107874880D02*
X48061726Y-107874880D01*
X48490297Y-108874880D01*
G04 #@! TO.C,D18*
X70774880Y-114831964D02*
X69774880Y-114831964D01*
X69774880Y-115070059D01*
X69822500Y-115212916D01*
X69917738Y-115308154D01*
X70012976Y-115355773D01*
X70203452Y-115403392D01*
X70346309Y-115403392D01*
X70536785Y-115355773D01*
X70632023Y-115308154D01*
X70727261Y-115212916D01*
X70774880Y-115070059D01*
X70774880Y-114831964D01*
X70774880Y-116355773D02*
X70774880Y-115784345D01*
X70774880Y-116070059D02*
X69774880Y-116070059D01*
X69917738Y-115974821D01*
X70012976Y-115879583D01*
X70060595Y-115784345D01*
X70203452Y-116927202D02*
X70155833Y-116831964D01*
X70108214Y-116784345D01*
X70012976Y-116736726D01*
X69965357Y-116736726D01*
X69870119Y-116784345D01*
X69822500Y-116831964D01*
X69774880Y-116927202D01*
X69774880Y-117117678D01*
X69822500Y-117212916D01*
X69870119Y-117260535D01*
X69965357Y-117308154D01*
X70012976Y-117308154D01*
X70108214Y-117260535D01*
X70155833Y-117212916D01*
X70203452Y-117117678D01*
X70203452Y-116927202D01*
X70251071Y-116831964D01*
X70298690Y-116784345D01*
X70393928Y-116736726D01*
X70584404Y-116736726D01*
X70679642Y-116784345D01*
X70727261Y-116831964D01*
X70774880Y-116927202D01*
X70774880Y-117117678D01*
X70727261Y-117212916D01*
X70679642Y-117260535D01*
X70584404Y-117308154D01*
X70393928Y-117308154D01*
X70298690Y-117260535D01*
X70251071Y-117212916D01*
X70203452Y-117117678D01*
G04 #@! TO.C,D19*
X78366785Y-108874880D02*
X78366785Y-107874880D01*
X78128690Y-107874880D01*
X77985833Y-107922500D01*
X77890595Y-108017738D01*
X77842976Y-108112976D01*
X77795357Y-108303452D01*
X77795357Y-108446309D01*
X77842976Y-108636785D01*
X77890595Y-108732023D01*
X77985833Y-108827261D01*
X78128690Y-108874880D01*
X78366785Y-108874880D01*
X76842976Y-108874880D02*
X77414404Y-108874880D01*
X77128690Y-108874880D02*
X77128690Y-107874880D01*
X77223928Y-108017738D01*
X77319166Y-108112976D01*
X77414404Y-108160595D01*
X76366785Y-108874880D02*
X76176309Y-108874880D01*
X76081071Y-108827261D01*
X76033452Y-108779642D01*
X75938214Y-108636785D01*
X75890595Y-108446309D01*
X75890595Y-108065357D01*
X75938214Y-107970119D01*
X75985833Y-107922500D01*
X76081071Y-107874880D01*
X76271547Y-107874880D01*
X76366785Y-107922500D01*
X76414404Y-107970119D01*
X76462023Y-108065357D01*
X76462023Y-108303452D01*
X76414404Y-108398690D01*
X76366785Y-108446309D01*
X76271547Y-108493928D01*
X76081071Y-108493928D01*
X75985833Y-108446309D01*
X75938214Y-108398690D01*
X75890595Y-108303452D01*
G04 #@! TO.C,D20*
X89824880Y-105306964D02*
X88824880Y-105306964D01*
X88824880Y-105545059D01*
X88872500Y-105687916D01*
X88967738Y-105783154D01*
X89062976Y-105830773D01*
X89253452Y-105878392D01*
X89396309Y-105878392D01*
X89586785Y-105830773D01*
X89682023Y-105783154D01*
X89777261Y-105687916D01*
X89824880Y-105545059D01*
X89824880Y-105306964D01*
X88920119Y-106259345D02*
X88872500Y-106306964D01*
X88824880Y-106402202D01*
X88824880Y-106640297D01*
X88872500Y-106735535D01*
X88920119Y-106783154D01*
X89015357Y-106830773D01*
X89110595Y-106830773D01*
X89253452Y-106783154D01*
X89824880Y-106211726D01*
X89824880Y-106830773D01*
X88824880Y-107449821D02*
X88824880Y-107545059D01*
X88872500Y-107640297D01*
X88920119Y-107687916D01*
X89015357Y-107735535D01*
X89205833Y-107783154D01*
X89443928Y-107783154D01*
X89634404Y-107735535D01*
X89729642Y-107687916D01*
X89777261Y-107640297D01*
X89824880Y-107545059D01*
X89824880Y-107449821D01*
X89777261Y-107354583D01*
X89729642Y-107306964D01*
X89634404Y-107259345D01*
X89443928Y-107211726D01*
X89205833Y-107211726D01*
X89015357Y-107259345D01*
X88920119Y-107306964D01*
X88872500Y-107354583D01*
X88824880Y-107449821D01*
G04 #@! TD*
%LPC*%
D15*
X-2613392Y-94876785D02*
X-3041964Y-95019642D01*
X-3756250Y-95019642D01*
X-4041964Y-94876785D01*
X-4184821Y-94733928D01*
X-4327678Y-94448214D01*
X-4327678Y-94162500D01*
X-4184821Y-93876785D01*
X-4041964Y-93733928D01*
X-3756250Y-93591071D01*
X-3184821Y-93448214D01*
X-2899107Y-93305357D01*
X-2756250Y-93162500D01*
X-2613392Y-92876785D01*
X-2613392Y-92591071D01*
X-2756250Y-92305357D01*
X-2899107Y-92162500D01*
X-3184821Y-92019642D01*
X-3899107Y-92019642D01*
X-4327678Y-92162500D01*
X-6041964Y-95019642D02*
X-5756250Y-94876785D01*
X-5613392Y-94733928D01*
X-5470535Y-94448214D01*
X-5470535Y-93591071D01*
X-5613392Y-93305357D01*
X-5756250Y-93162500D01*
X-6041964Y-93019642D01*
X-6470535Y-93019642D01*
X-6756250Y-93162500D01*
X-6899107Y-93305357D01*
X-7041964Y-93591071D01*
X-7041964Y-94448214D01*
X-6899107Y-94733928D01*
X-6756250Y-94876785D01*
X-6470535Y-95019642D01*
X-6041964Y-95019642D01*
X-8041964Y-93019642D02*
X-8756250Y-95019642D01*
X-9470535Y-93019642D02*
X-8756250Y-95019642D01*
X-8470535Y-95733928D01*
X-8327678Y-95876785D01*
X-8041964Y-96019642D01*
X-11899107Y-93019642D02*
X-11899107Y-95019642D01*
X-10613392Y-93019642D02*
X-10613392Y-94591071D01*
X-10756250Y-94876785D01*
X-11041964Y-95019642D01*
X-11470535Y-95019642D01*
X-11756250Y-94876785D01*
X-11899107Y-94733928D01*
X-13041964Y-93019642D02*
X-14613392Y-93019642D01*
X-13041964Y-95019642D01*
X-14613392Y-95019642D01*
X-18041964Y-95019642D02*
X-18041964Y-92019642D01*
X-18041964Y-93162500D02*
X-18327678Y-93019642D01*
X-18899107Y-93019642D01*
X-19184821Y-93162500D01*
X-19327678Y-93305357D01*
X-19470535Y-93591071D01*
X-19470535Y-94448214D01*
X-19327678Y-94733928D01*
X-19184821Y-94876785D01*
X-18899107Y-95019642D01*
X-18327678Y-95019642D01*
X-18041964Y-94876785D01*
X-20470535Y-93019642D02*
X-21184821Y-95019642D01*
X-21899107Y-93019642D02*
X-21184821Y-95019642D01*
X-20899107Y-95733928D01*
X-20756249Y-95876785D01*
X-20470535Y-96019642D01*
X-26613392Y-95019642D02*
X-26613392Y-93448214D01*
X-26470535Y-93162500D01*
X-26184821Y-93019642D01*
X-25613392Y-93019642D01*
X-25327678Y-93162500D01*
X-26613392Y-94876785D02*
X-26327678Y-95019642D01*
X-25613392Y-95019642D01*
X-25327678Y-94876785D01*
X-25184821Y-94591071D01*
X-25184821Y-94305357D01*
X-25327678Y-94019642D01*
X-25613392Y-93876785D01*
X-26327678Y-93876785D01*
X-26613392Y-93733928D01*
X-28041964Y-95019642D02*
X-28041964Y-93019642D01*
X-28041964Y-92019642D02*
X-27899107Y-92162500D01*
X-28041964Y-92305357D01*
X-28184821Y-92162500D01*
X-28041964Y-92019642D01*
X-28041964Y-92305357D01*
X-30041964Y-92019642D02*
X-30327678Y-92019642D01*
X-30613392Y-92162500D01*
X-30756249Y-92305357D01*
X-30899107Y-92591071D01*
X-31041964Y-93162500D01*
X-31041964Y-93876785D01*
X-30899107Y-94448214D01*
X-30756249Y-94733928D01*
X-30613392Y-94876785D01*
X-30327678Y-95019642D01*
X-30041964Y-95019642D01*
X-29756249Y-94876785D01*
X-29613392Y-94733928D01*
X-29470535Y-94448214D01*
X-29327678Y-93876785D01*
X-29327678Y-93162500D01*
X-29470535Y-92591071D01*
X-29613392Y-92305357D01*
X-29756249Y-92162500D01*
X-30041964Y-92019642D01*
X-32041964Y-92019642D02*
X-33899107Y-92019642D01*
X-32899107Y-93162500D01*
X-33327678Y-93162500D01*
X-33613392Y-93305357D01*
X-33756249Y-93448214D01*
X-33899107Y-93733928D01*
X-33899107Y-94448214D01*
X-33756249Y-94733928D01*
X-33613392Y-94876785D01*
X-33327678Y-95019642D01*
X-32470535Y-95019642D01*
X-32184821Y-94876785D01*
X-32041964Y-94733928D01*
D16*
X174852678Y-86491071D02*
X173995535Y-86491071D01*
X174424107Y-87991071D02*
X174424107Y-86491071D01*
X173495535Y-87991071D02*
X173495535Y-86491071D01*
X172852678Y-87991071D02*
X172852678Y-87205357D01*
X172924107Y-87062500D01*
X173066964Y-86991071D01*
X173281250Y-86991071D01*
X173424107Y-87062500D01*
X173495535Y-87133928D01*
X172138392Y-87991071D02*
X172138392Y-86991071D01*
X172138392Y-86491071D02*
X172209821Y-86562500D01*
X172138392Y-86633928D01*
X172066964Y-86562500D01*
X172138392Y-86491071D01*
X172138392Y-86633928D01*
X171495535Y-87919642D02*
X171352678Y-87991071D01*
X171066964Y-87991071D01*
X170924107Y-87919642D01*
X170852678Y-87776785D01*
X170852678Y-87705357D01*
X170924107Y-87562500D01*
X171066964Y-87491071D01*
X171281250Y-87491071D01*
X171424107Y-87419642D01*
X171495535Y-87276785D01*
X171495535Y-87205357D01*
X171424107Y-87062500D01*
X171281250Y-86991071D01*
X171066964Y-86991071D01*
X170924107Y-87062500D01*
X169066964Y-87991071D02*
X169066964Y-86991071D01*
X169066964Y-86491071D02*
X169138392Y-86562500D01*
X169066964Y-86633928D01*
X168995535Y-86562500D01*
X169066964Y-86491071D01*
X169066964Y-86633928D01*
X168424107Y-87919642D02*
X168281250Y-87991071D01*
X167995535Y-87991071D01*
X167852678Y-87919642D01*
X167781250Y-87776785D01*
X167781250Y-87705357D01*
X167852678Y-87562500D01*
X167995535Y-87491071D01*
X168209821Y-87491071D01*
X168352678Y-87419642D01*
X168424107Y-87276785D01*
X168424107Y-87205357D01*
X168352678Y-87062500D01*
X168209821Y-86991071D01*
X167995535Y-86991071D01*
X167852678Y-87062500D01*
X166209821Y-86991071D02*
X165638392Y-86991071D01*
X165995535Y-86491071D02*
X165995535Y-87776785D01*
X165924107Y-87919642D01*
X165781250Y-87991071D01*
X165638392Y-87991071D01*
X165138392Y-87991071D02*
X165138392Y-86491071D01*
X164495535Y-87991071D02*
X164495535Y-87205357D01*
X164566964Y-87062500D01*
X164709821Y-86991071D01*
X164924107Y-86991071D01*
X165066964Y-87062500D01*
X165138392Y-87133928D01*
X163209821Y-87919642D02*
X163352678Y-87991071D01*
X163638392Y-87991071D01*
X163781250Y-87919642D01*
X163852678Y-87776785D01*
X163852678Y-87205357D01*
X163781250Y-87062500D01*
X163638392Y-86991071D01*
X163352678Y-86991071D01*
X163209821Y-87062500D01*
X163138392Y-87205357D01*
X163138392Y-87348214D01*
X163852678Y-87491071D01*
X161352678Y-87991071D02*
X161352678Y-86491071D01*
X161352678Y-87062500D02*
X161209821Y-86991071D01*
X160924107Y-86991071D01*
X160781250Y-87062500D01*
X160709821Y-87133928D01*
X160638392Y-87276785D01*
X160638392Y-87705357D01*
X160709821Y-87848214D01*
X160781250Y-87919642D01*
X160924107Y-87991071D01*
X161209821Y-87991071D01*
X161352678Y-87919642D01*
X159781250Y-87991071D02*
X159924107Y-87919642D01*
X159995535Y-87848214D01*
X160066964Y-87705357D01*
X160066964Y-87276785D01*
X159995535Y-87133928D01*
X159924107Y-87062500D01*
X159781250Y-86991071D01*
X159566964Y-86991071D01*
X159424107Y-87062500D01*
X159352678Y-87133928D01*
X159281250Y-87276785D01*
X159281250Y-87705357D01*
X159352678Y-87848214D01*
X159424107Y-87919642D01*
X159566964Y-87991071D01*
X159781250Y-87991071D01*
X158852678Y-86991071D02*
X158281250Y-86991071D01*
X158638392Y-86491071D02*
X158638392Y-87776785D01*
X158566964Y-87919642D01*
X158424107Y-87991071D01*
X158281250Y-87991071D01*
X157995535Y-86991071D02*
X157424107Y-86991071D01*
X157781250Y-86491071D02*
X157781250Y-87776785D01*
X157709821Y-87919642D01*
X157566964Y-87991071D01*
X157424107Y-87991071D01*
X156709821Y-87991071D02*
X156852678Y-87919642D01*
X156924107Y-87848214D01*
X156995535Y-87705357D01*
X156995535Y-87276785D01*
X156924107Y-87133928D01*
X156852678Y-87062500D01*
X156709821Y-86991071D01*
X156495535Y-86991071D01*
X156352678Y-87062500D01*
X156281250Y-87133928D01*
X156209821Y-87276785D01*
X156209821Y-87705357D01*
X156281250Y-87848214D01*
X156352678Y-87919642D01*
X156495535Y-87991071D01*
X156709821Y-87991071D01*
X155566964Y-87991071D02*
X155566964Y-86991071D01*
X155566964Y-87133928D02*
X155495535Y-87062500D01*
X155352678Y-86991071D01*
X155138392Y-86991071D01*
X154995535Y-87062500D01*
X154924107Y-87205357D01*
X154924107Y-87991071D01*
X154924107Y-87205357D02*
X154852678Y-87062500D01*
X154709821Y-86991071D01*
X154495535Y-86991071D01*
X154352678Y-87062500D01*
X154281250Y-87205357D01*
X154281250Y-87991071D01*
X153638392Y-87919642D02*
X153495535Y-87991071D01*
X153209821Y-87991071D01*
X153066964Y-87919642D01*
X152995535Y-87776785D01*
X152995535Y-87705357D01*
X153066964Y-87562500D01*
X153209821Y-87491071D01*
X153424107Y-87491071D01*
X153566964Y-87419642D01*
X153638392Y-87276785D01*
X153638392Y-87205357D01*
X153566964Y-87062500D01*
X153424107Y-86991071D01*
X153209821Y-86991071D01*
X153066964Y-87062500D01*
X152352678Y-87991071D02*
X152352678Y-86991071D01*
X152352678Y-86491071D02*
X152424107Y-86562500D01*
X152352678Y-86633928D01*
X152281250Y-86562500D01*
X152352678Y-86491071D01*
X152352678Y-86633928D01*
X150995535Y-87991071D02*
X150995535Y-86491071D01*
X150995535Y-87919642D02*
X151138392Y-87991071D01*
X151424107Y-87991071D01*
X151566964Y-87919642D01*
X151638392Y-87848214D01*
X151709821Y-87705357D01*
X151709821Y-87276785D01*
X151638392Y-87133928D01*
X151566964Y-87062500D01*
X151424107Y-86991071D01*
X151138392Y-86991071D01*
X150995535Y-87062500D01*
X149709821Y-87919642D02*
X149852678Y-87991071D01*
X150138392Y-87991071D01*
X150281250Y-87919642D01*
X150352678Y-87776785D01*
X150352678Y-87205357D01*
X150281250Y-87062500D01*
X150138392Y-86991071D01*
X149852678Y-86991071D01*
X149709821Y-87062500D01*
X149638392Y-87205357D01*
X149638392Y-87348214D01*
X150352678Y-87491071D01*
X147638392Y-87991071D02*
X147781250Y-87919642D01*
X147852678Y-87848214D01*
X147924107Y-87705357D01*
X147924107Y-87276785D01*
X147852678Y-87133928D01*
X147781250Y-87062500D01*
X147638392Y-86991071D01*
X147424107Y-86991071D01*
X147281250Y-87062500D01*
X147209821Y-87133928D01*
X147138392Y-87276785D01*
X147138392Y-87705357D01*
X147209821Y-87848214D01*
X147281250Y-87919642D01*
X147424107Y-87991071D01*
X147638392Y-87991071D01*
X146709821Y-86991071D02*
X146138392Y-86991071D01*
X146495535Y-87991071D02*
X146495535Y-86705357D01*
X146424107Y-86562500D01*
X146281250Y-86491071D01*
X146138392Y-86491071D01*
X144709821Y-86991071D02*
X144138392Y-86991071D01*
X144495535Y-86491071D02*
X144495535Y-87776785D01*
X144424107Y-87919642D01*
X144281250Y-87991071D01*
X144138392Y-87991071D01*
X143638392Y-87991071D02*
X143638392Y-86491071D01*
X142995535Y-87991071D02*
X142995535Y-87205357D01*
X143066964Y-87062500D01*
X143209821Y-86991071D01*
X143424107Y-86991071D01*
X143566964Y-87062500D01*
X143638392Y-87133928D01*
X141709821Y-87919642D02*
X141852678Y-87991071D01*
X142138392Y-87991071D01*
X142281250Y-87919642D01*
X142352678Y-87776785D01*
X142352678Y-87205357D01*
X142281250Y-87062500D01*
X142138392Y-86991071D01*
X141852678Y-86991071D01*
X141709821Y-87062500D01*
X141638392Y-87205357D01*
X141638392Y-87348214D01*
X142352678Y-87491071D01*
X139852678Y-86991071D02*
X139852678Y-88491071D01*
X139852678Y-87062500D02*
X139709821Y-86991071D01*
X139424107Y-86991071D01*
X139281250Y-87062500D01*
X139209821Y-87133928D01*
X139138392Y-87276785D01*
X139138392Y-87705357D01*
X139209821Y-87848214D01*
X139281250Y-87919642D01*
X139424107Y-87991071D01*
X139709821Y-87991071D01*
X139852678Y-87919642D01*
X138281250Y-87991071D02*
X138424107Y-87919642D01*
X138495535Y-87776785D01*
X138495535Y-86491071D01*
X137066964Y-87991071D02*
X137066964Y-87205357D01*
X137138392Y-87062500D01*
X137281250Y-86991071D01*
X137566964Y-86991071D01*
X137709821Y-87062500D01*
X137066964Y-87919642D02*
X137209821Y-87991071D01*
X137566964Y-87991071D01*
X137709821Y-87919642D01*
X137781250Y-87776785D01*
X137781250Y-87633928D01*
X137709821Y-87491071D01*
X137566964Y-87419642D01*
X137209821Y-87419642D01*
X137066964Y-87348214D01*
X136566964Y-86991071D02*
X135995535Y-86991071D01*
X136352678Y-86491071D02*
X136352678Y-87776785D01*
X136281250Y-87919642D01*
X136138392Y-87991071D01*
X135995535Y-87991071D01*
X134924107Y-87919642D02*
X135066964Y-87991071D01*
X135352678Y-87991071D01*
X135495535Y-87919642D01*
X135566964Y-87776785D01*
X135566964Y-87205357D01*
X135495535Y-87062500D01*
X135352678Y-86991071D01*
X135066964Y-86991071D01*
X134924107Y-87062500D01*
X134852678Y-87205357D01*
X134852678Y-87348214D01*
X135566964Y-87491071D01*
X169816964Y-68869642D02*
X169602678Y-68941071D01*
X169245535Y-68941071D01*
X169102678Y-68869642D01*
X169031250Y-68798214D01*
X168959821Y-68655357D01*
X168959821Y-68512500D01*
X169031250Y-68369642D01*
X169102678Y-68298214D01*
X169245535Y-68226785D01*
X169531250Y-68155357D01*
X169674107Y-68083928D01*
X169745535Y-68012500D01*
X169816964Y-67869642D01*
X169816964Y-67726785D01*
X169745535Y-67583928D01*
X169674107Y-67512500D01*
X169531250Y-67441071D01*
X169174107Y-67441071D01*
X168959821Y-67512500D01*
X168102678Y-68941071D02*
X168245535Y-68869642D01*
X168316964Y-68798214D01*
X168388392Y-68655357D01*
X168388392Y-68226785D01*
X168316964Y-68083928D01*
X168245535Y-68012500D01*
X168102678Y-67941071D01*
X167888392Y-67941071D01*
X167745535Y-68012500D01*
X167674107Y-68083928D01*
X167602678Y-68226785D01*
X167602678Y-68655357D01*
X167674107Y-68798214D01*
X167745535Y-68869642D01*
X167888392Y-68941071D01*
X168102678Y-68941071D01*
X167102678Y-67941071D02*
X166745535Y-68941071D01*
X166388392Y-67941071D02*
X166745535Y-68941071D01*
X166888392Y-69298214D01*
X166959821Y-69369642D01*
X167102678Y-69441071D01*
X165174107Y-67941071D02*
X165174107Y-68941071D01*
X165816964Y-67941071D02*
X165816964Y-68726785D01*
X165745535Y-68869642D01*
X165602678Y-68941071D01*
X165388392Y-68941071D01*
X165245535Y-68869642D01*
X165174107Y-68798214D01*
X164602678Y-67941071D02*
X163816964Y-67941071D01*
X164602678Y-68941071D01*
X163816964Y-68941071D01*
X162102678Y-68941071D02*
X162102678Y-67441071D01*
X161245535Y-68941071D01*
X161245535Y-67441071D01*
X159888392Y-67941071D02*
X159888392Y-68941071D01*
X160531250Y-67941071D02*
X160531250Y-68726785D01*
X160459821Y-68869642D01*
X160316964Y-68941071D01*
X160102678Y-68941071D01*
X159959821Y-68869642D01*
X159888392Y-68798214D01*
X159174107Y-68941071D02*
X159174107Y-67941071D01*
X159174107Y-68083928D02*
X159102678Y-68012500D01*
X158959821Y-67941071D01*
X158745535Y-67941071D01*
X158602678Y-68012500D01*
X158531250Y-68155357D01*
X158531250Y-68941071D01*
X158531250Y-68155357D02*
X158459821Y-68012500D01*
X158316964Y-67941071D01*
X158102678Y-67941071D01*
X157959821Y-68012500D01*
X157888392Y-68155357D01*
X157888392Y-68941071D01*
X157174107Y-67941071D02*
X157174107Y-69441071D01*
X157174107Y-68012500D02*
X157031250Y-67941071D01*
X156745535Y-67941071D01*
X156602678Y-68012500D01*
X156531250Y-68083928D01*
X156459821Y-68226785D01*
X156459821Y-68655357D01*
X156531250Y-68798214D01*
X156602678Y-68869642D01*
X156745535Y-68941071D01*
X157031250Y-68941071D01*
X157174107Y-68869642D01*
X155174107Y-68941071D02*
X155174107Y-68155357D01*
X155245535Y-68012500D01*
X155388392Y-67941071D01*
X155674107Y-67941071D01*
X155816964Y-68012500D01*
X155174107Y-68869642D02*
X155316964Y-68941071D01*
X155674107Y-68941071D01*
X155816964Y-68869642D01*
X155888392Y-68726785D01*
X155888392Y-68583928D01*
X155816964Y-68441071D01*
X155674107Y-68369642D01*
X155316964Y-68369642D01*
X155174107Y-68298214D01*
X153816964Y-68941071D02*
X153816964Y-67441071D01*
X153816964Y-68869642D02*
X153959821Y-68941071D01*
X154245535Y-68941071D01*
X154388392Y-68869642D01*
X154459821Y-68798214D01*
X154531250Y-68655357D01*
X154531250Y-68226785D01*
X154459821Y-68083928D01*
X154388392Y-68012500D01*
X154245535Y-67941071D01*
X153959821Y-67941071D01*
X153816964Y-68012500D01*
X151959821Y-68941071D02*
X151959821Y-67441071D01*
X151102678Y-68941071D02*
X151745535Y-68083928D01*
X151102678Y-67441071D02*
X151959821Y-68298214D01*
X150459821Y-68941071D02*
X150459821Y-67941071D01*
X150459821Y-67441071D02*
X150531250Y-67512500D01*
X150459821Y-67583928D01*
X150388392Y-67512500D01*
X150459821Y-67441071D01*
X150459821Y-67583928D01*
X149959821Y-67941071D02*
X149388392Y-67941071D01*
X149745535Y-67441071D02*
X149745535Y-68726785D01*
X149674107Y-68869642D01*
X149531250Y-68941071D01*
X149388392Y-68941071D01*
X146888392Y-68941071D02*
X147388392Y-68226785D01*
X147745535Y-68941071D02*
X147745535Y-67441071D01*
X147174107Y-67441071D01*
X147031250Y-67512500D01*
X146959821Y-67583928D01*
X146888392Y-67726785D01*
X146888392Y-67941071D01*
X146959821Y-68083928D01*
X147031250Y-68155357D01*
X147174107Y-68226785D01*
X147745535Y-68226785D01*
X145674107Y-68869642D02*
X145816964Y-68941071D01*
X146102678Y-68941071D01*
X146245535Y-68869642D01*
X146316964Y-68726785D01*
X146316964Y-68155357D01*
X146245535Y-68012500D01*
X146102678Y-67941071D01*
X145816964Y-67941071D01*
X145674107Y-68012500D01*
X145602678Y-68155357D01*
X145602678Y-68298214D01*
X146316964Y-68441071D01*
X145102678Y-67941071D02*
X144745535Y-68941071D01*
X144388392Y-67941071D01*
X141888392Y-68941071D02*
X142745535Y-68941071D01*
X142316964Y-68941071D02*
X142316964Y-67441071D01*
X142459821Y-67655357D01*
X142602678Y-67798214D01*
X142745535Y-67869642D01*
X141245535Y-68798214D02*
X141174107Y-68869642D01*
X141245535Y-68941071D01*
X141316964Y-68869642D01*
X141245535Y-68798214D01*
X141245535Y-68941071D01*
X140245535Y-67441071D02*
X140102678Y-67441071D01*
X139959821Y-67512500D01*
X139888392Y-67583928D01*
X139816964Y-67726785D01*
X139745535Y-68012500D01*
X139745535Y-68369642D01*
X139816964Y-68655357D01*
X139888392Y-68798214D01*
X139959821Y-68869642D01*
X140102678Y-68941071D01*
X140245535Y-68941071D01*
X140388392Y-68869642D01*
X140459821Y-68798214D01*
X140531250Y-68655357D01*
X140602678Y-68369642D01*
X140602678Y-68012500D01*
X140531250Y-67726785D01*
X140459821Y-67583928D01*
X140388392Y-67512500D01*
X140245535Y-67441071D01*
D14*
G04 #@! TO.C,G\002A\002A\002A*
G36*
X-19069049Y-65244133D02*
X-17341850Y-65244133D01*
X-17341850Y-63516933D01*
X-19069049Y-63516933D01*
X-19069049Y-65244133D01*
X-19069049Y-65244133D01*
G37*
X-19069049Y-65244133D02*
X-17341850Y-65244133D01*
X-17341850Y-63516933D01*
X-19069049Y-63516933D01*
X-19069049Y-65244133D01*
G36*
X-20796249Y-68596933D02*
X-19069049Y-68596933D01*
X-19069049Y-66971333D01*
X-20796249Y-66971333D01*
X-20796249Y-68596933D01*
X-20796249Y-68596933D01*
G37*
X-20796249Y-68596933D02*
X-19069049Y-68596933D01*
X-19069049Y-66971333D01*
X-20796249Y-66971333D01*
X-20796249Y-68596933D01*
G36*
X-17341850Y-68596933D02*
X-15716250Y-68596933D01*
X-15716250Y-66971333D01*
X-17341850Y-66971333D01*
X-17341850Y-68596933D01*
X-17341850Y-68596933D01*
G37*
X-17341850Y-68596933D02*
X-15716250Y-68596933D01*
X-15716250Y-66971333D01*
X-17341850Y-66971333D01*
X-17341850Y-68596933D01*
G36*
X-22421850Y-72051333D02*
X-20796249Y-72051333D01*
X-20796249Y-70324133D01*
X-22421850Y-70324133D01*
X-22421850Y-72051333D01*
X-22421850Y-72051333D01*
G37*
X-22421850Y-72051333D02*
X-20796249Y-72051333D01*
X-20796249Y-70324133D01*
X-22421850Y-70324133D01*
X-22421850Y-72051333D01*
G36*
X-19069049Y-72051333D02*
X-17341850Y-72051333D01*
X-17341850Y-70324133D01*
X-19069049Y-70324133D01*
X-19069049Y-72051333D01*
X-19069049Y-72051333D01*
G37*
X-19069049Y-72051333D02*
X-17341850Y-72051333D01*
X-17341850Y-70324133D01*
X-19069049Y-70324133D01*
X-19069049Y-72051333D01*
G36*
X-15716250Y-72051333D02*
X-13989050Y-72051333D01*
X-13989050Y-70324133D01*
X-15716250Y-70324133D01*
X-15716250Y-72051333D01*
X-15716250Y-72051333D01*
G37*
X-15716250Y-72051333D02*
X-13989050Y-72051333D01*
X-13989050Y-70324133D01*
X-15716250Y-70324133D01*
X-15716250Y-72051333D01*
G36*
X-24149050Y-75404133D02*
X-22421850Y-75404133D01*
X-22421850Y-73676933D01*
X-24149050Y-73676933D01*
X-24149050Y-75404133D01*
X-24149050Y-75404133D01*
G37*
X-24149050Y-75404133D02*
X-22421850Y-75404133D01*
X-22421850Y-73676933D01*
X-24149050Y-73676933D01*
X-24149050Y-75404133D01*
G36*
X-13989050Y-75404133D02*
X-12261849Y-75404133D01*
X-12261849Y-73676933D01*
X-13989050Y-73676933D01*
X-13989050Y-75404133D01*
X-13989050Y-75404133D01*
G37*
X-13989050Y-75404133D02*
X-12261849Y-75404133D01*
X-12261849Y-73676933D01*
X-13989050Y-73676933D01*
X-13989050Y-75404133D01*
G36*
X-18273183Y-57169656D02*
X-18802755Y-57175504D01*
X-19279392Y-57193240D01*
X-19717123Y-57224587D01*
X-20129981Y-57271267D01*
X-20531995Y-57335003D01*
X-20937196Y-57417517D01*
X-21359615Y-57520532D01*
X-21552803Y-57572318D01*
X-22442605Y-57850667D01*
X-23304847Y-58189164D01*
X-24136261Y-58586117D01*
X-24933580Y-59039836D01*
X-25693537Y-59548629D01*
X-26342690Y-60052097D01*
X-27015409Y-60652525D01*
X-27644046Y-61298691D01*
X-28225683Y-61986040D01*
X-28757404Y-62710018D01*
X-29236291Y-63466070D01*
X-29659427Y-64249640D01*
X-30023895Y-65056173D01*
X-30326778Y-65881116D01*
X-30534795Y-66597960D01*
X-30675896Y-67195233D01*
X-30784099Y-67758158D01*
X-30862574Y-68309720D01*
X-30914490Y-68872904D01*
X-30943015Y-69470693D01*
X-30945804Y-69579066D01*
X-30934201Y-70510466D01*
X-30856570Y-71426875D01*
X-30712934Y-72328167D01*
X-30503317Y-73214218D01*
X-30227743Y-74084900D01*
X-29953835Y-74784344D01*
X-29834018Y-75062808D01*
X-29731352Y-75293881D01*
X-29638045Y-75493147D01*
X-29546305Y-75676189D01*
X-29448340Y-75858589D01*
X-29336358Y-76055931D01*
X-29212091Y-76267733D01*
X-28703424Y-77062490D01*
X-28148311Y-77807984D01*
X-27546186Y-78504783D01*
X-26896484Y-79153451D01*
X-26198638Y-79754554D01*
X-25452085Y-80308657D01*
X-24673983Y-80805841D01*
X-24448577Y-80937975D01*
X-24252681Y-81048808D01*
X-24070713Y-81146131D01*
X-23887089Y-81237736D01*
X-23686227Y-81331415D01*
X-23452544Y-81434960D01*
X-23190594Y-81547585D01*
X-22779998Y-81716322D01*
X-22401470Y-81857287D01*
X-22029782Y-81978833D01*
X-21639707Y-82089312D01*
X-21287316Y-82177773D01*
X-20585379Y-82329472D01*
X-19915109Y-82439026D01*
X-19257069Y-82508742D01*
X-18591818Y-82540925D01*
X-18205450Y-82543388D01*
X-17986917Y-82541191D01*
X-17781600Y-82538181D01*
X-17602910Y-82534629D01*
X-17464261Y-82530802D01*
X-17379065Y-82526971D01*
X-17375716Y-82526730D01*
X-16453375Y-82424536D01*
X-15545612Y-82258193D01*
X-14656093Y-82029057D01*
X-13788485Y-81738480D01*
X-12946452Y-81387819D01*
X-12133660Y-80978427D01*
X-11353774Y-80511659D01*
X-10709696Y-80063528D01*
X-9971871Y-79473249D01*
X-9286288Y-78840240D01*
X-8653905Y-78165900D01*
X-8075679Y-77451629D01*
X-7552566Y-76698826D01*
X-7085523Y-75908889D01*
X-6675507Y-75083217D01*
X-6323476Y-74223210D01*
X-6030385Y-73330267D01*
X-5978568Y-73146553D01*
X-5866072Y-72712231D01*
X-5774829Y-72301246D01*
X-5703115Y-71899567D01*
X-5649209Y-71493164D01*
X-5611387Y-71068005D01*
X-5587926Y-70610061D01*
X-5577105Y-70105301D01*
X-5575906Y-69866933D01*
X-5578789Y-69630726D01*
X-7848970Y-69630726D01*
X-7849412Y-69972649D01*
X-7856516Y-70312551D01*
X-7870154Y-70633089D01*
X-7890195Y-70916921D01*
X-7906066Y-71069199D01*
X-8042061Y-71911003D01*
X-8241108Y-72728562D01*
X-8502440Y-73520279D01*
X-8825292Y-74284554D01*
X-9208897Y-75019789D01*
X-9652489Y-75724386D01*
X-10155304Y-76396745D01*
X-10716573Y-77035267D01*
X-10811872Y-77134309D01*
X-11384605Y-77676493D01*
X-12006267Y-78179686D01*
X-12665341Y-78635450D01*
X-13350304Y-79035349D01*
X-13545669Y-79136415D01*
X-13863144Y-79292785D01*
X-14141508Y-79421720D01*
X-14399628Y-79530808D01*
X-14656370Y-79627637D01*
X-14930601Y-79719795D01*
X-15208250Y-79805103D01*
X-16015557Y-80015932D01*
X-16808095Y-80162922D01*
X-17592046Y-80246645D01*
X-18373594Y-80267674D01*
X-19158924Y-80226580D01*
X-19442836Y-80196797D01*
X-20242117Y-80073305D01*
X-21008330Y-79894920D01*
X-21752172Y-79658441D01*
X-22484339Y-79360672D01*
X-22898023Y-79163560D01*
X-23626053Y-78764974D01*
X-24306228Y-78322369D01*
X-24941782Y-77832822D01*
X-25535948Y-77293412D01*
X-26091958Y-76701219D01*
X-26613046Y-76053320D01*
X-27074989Y-75389240D01*
X-27182191Y-75213488D01*
X-27307303Y-74991077D01*
X-27442557Y-74737450D01*
X-27580190Y-74468053D01*
X-27712435Y-74198330D01*
X-27831527Y-73943724D01*
X-27929700Y-73719681D01*
X-27987034Y-73575333D01*
X-28255270Y-72758091D01*
X-28457492Y-71935739D01*
X-28593528Y-71110586D01*
X-28663206Y-70284943D01*
X-28666353Y-69461121D01*
X-28602797Y-68641430D01*
X-28472365Y-67828181D01*
X-28430537Y-67631733D01*
X-28286968Y-67050217D01*
X-28123524Y-66511834D01*
X-27931788Y-65992962D01*
X-27703346Y-65469977D01*
X-27542665Y-65139419D01*
X-27142858Y-64419002D01*
X-26687074Y-63734472D01*
X-26178588Y-63088903D01*
X-25620676Y-62485366D01*
X-25016614Y-61926933D01*
X-24369676Y-61416676D01*
X-23683139Y-60957668D01*
X-22960278Y-60552981D01*
X-22345104Y-60264846D01*
X-21612822Y-59981562D01*
X-20876593Y-59759704D01*
X-20127847Y-59597534D01*
X-19358013Y-59493310D01*
X-18558523Y-59445293D01*
X-18290116Y-59441496D01*
X-17444914Y-59468677D01*
X-16627302Y-59556758D01*
X-15833980Y-59706739D01*
X-15061645Y-59919617D01*
X-14306996Y-60196390D01*
X-13566730Y-60538057D01*
X-12837546Y-60945615D01*
X-12407906Y-61219575D01*
X-11812991Y-61652760D01*
X-11240413Y-62141319D01*
X-10697171Y-62677045D01*
X-10190266Y-63251731D01*
X-9726698Y-63857171D01*
X-9313466Y-64485159D01*
X-8957570Y-65127487D01*
X-8809108Y-65438608D01*
X-8547122Y-66056674D01*
X-8332802Y-66650759D01*
X-8161041Y-67239337D01*
X-8026727Y-67840885D01*
X-7924754Y-68473876D01*
X-7888910Y-68766266D01*
X-7868590Y-69010192D01*
X-7855320Y-69304126D01*
X-7848970Y-69630726D01*
X-5578789Y-69630726D01*
X-5583353Y-69256819D01*
X-5608414Y-68698454D01*
X-5653531Y-68177572D01*
X-5721146Y-67679909D01*
X-5813700Y-67191202D01*
X-5933634Y-66697186D01*
X-6083390Y-66183596D01*
X-6265410Y-65636169D01*
X-6332372Y-65447333D01*
X-6666813Y-64616531D01*
X-7062932Y-63812973D01*
X-7519917Y-63037776D01*
X-8036953Y-62292062D01*
X-8613227Y-61576948D01*
X-9247924Y-60893554D01*
X-9940231Y-60243000D01*
X-10396072Y-59858232D01*
X-10762274Y-59578794D01*
X-11178441Y-59291536D01*
X-11629040Y-59005893D01*
X-12098537Y-58731302D01*
X-12571400Y-58477198D01*
X-13032095Y-58253019D01*
X-13057716Y-58241315D01*
X-13356215Y-58113858D01*
X-13702588Y-57979945D01*
X-14078189Y-57845888D01*
X-14464373Y-57717996D01*
X-14842496Y-57602581D01*
X-15193910Y-57505952D01*
X-15329956Y-57472274D01*
X-15727714Y-57383666D01*
X-16107337Y-57312582D01*
X-16482824Y-57257583D01*
X-16868172Y-57217230D01*
X-17277382Y-57190083D01*
X-17724450Y-57174704D01*
X-18223376Y-57169652D01*
X-18273183Y-57169656D01*
X-18273183Y-57169656D01*
G37*
X-18273183Y-57169656D02*
X-18802755Y-57175504D01*
X-19279392Y-57193240D01*
X-19717123Y-57224587D01*
X-20129981Y-57271267D01*
X-20531995Y-57335003D01*
X-20937196Y-57417517D01*
X-21359615Y-57520532D01*
X-21552803Y-57572318D01*
X-22442605Y-57850667D01*
X-23304847Y-58189164D01*
X-24136261Y-58586117D01*
X-24933580Y-59039836D01*
X-25693537Y-59548629D01*
X-26342690Y-60052097D01*
X-27015409Y-60652525D01*
X-27644046Y-61298691D01*
X-28225683Y-61986040D01*
X-28757404Y-62710018D01*
X-29236291Y-63466070D01*
X-29659427Y-64249640D01*
X-30023895Y-65056173D01*
X-30326778Y-65881116D01*
X-30534795Y-66597960D01*
X-30675896Y-67195233D01*
X-30784099Y-67758158D01*
X-30862574Y-68309720D01*
X-30914490Y-68872904D01*
X-30943015Y-69470693D01*
X-30945804Y-69579066D01*
X-30934201Y-70510466D01*
X-30856570Y-71426875D01*
X-30712934Y-72328167D01*
X-30503317Y-73214218D01*
X-30227743Y-74084900D01*
X-29953835Y-74784344D01*
X-29834018Y-75062808D01*
X-29731352Y-75293881D01*
X-29638045Y-75493147D01*
X-29546305Y-75676189D01*
X-29448340Y-75858589D01*
X-29336358Y-76055931D01*
X-29212091Y-76267733D01*
X-28703424Y-77062490D01*
X-28148311Y-77807984D01*
X-27546186Y-78504783D01*
X-26896484Y-79153451D01*
X-26198638Y-79754554D01*
X-25452085Y-80308657D01*
X-24673983Y-80805841D01*
X-24448577Y-80937975D01*
X-24252681Y-81048808D01*
X-24070713Y-81146131D01*
X-23887089Y-81237736D01*
X-23686227Y-81331415D01*
X-23452544Y-81434960D01*
X-23190594Y-81547585D01*
X-22779998Y-81716322D01*
X-22401470Y-81857287D01*
X-22029782Y-81978833D01*
X-21639707Y-82089312D01*
X-21287316Y-82177773D01*
X-20585379Y-82329472D01*
X-19915109Y-82439026D01*
X-19257069Y-82508742D01*
X-18591818Y-82540925D01*
X-18205450Y-82543388D01*
X-17986917Y-82541191D01*
X-17781600Y-82538181D01*
X-17602910Y-82534629D01*
X-17464261Y-82530802D01*
X-17379065Y-82526971D01*
X-17375716Y-82526730D01*
X-16453375Y-82424536D01*
X-15545612Y-82258193D01*
X-14656093Y-82029057D01*
X-13788485Y-81738480D01*
X-12946452Y-81387819D01*
X-12133660Y-80978427D01*
X-11353774Y-80511659D01*
X-10709696Y-80063528D01*
X-9971871Y-79473249D01*
X-9286288Y-78840240D01*
X-8653905Y-78165900D01*
X-8075679Y-77451629D01*
X-7552566Y-76698826D01*
X-7085523Y-75908889D01*
X-6675507Y-75083217D01*
X-6323476Y-74223210D01*
X-6030385Y-73330267D01*
X-5978568Y-73146553D01*
X-5866072Y-72712231D01*
X-5774829Y-72301246D01*
X-5703115Y-71899567D01*
X-5649209Y-71493164D01*
X-5611387Y-71068005D01*
X-5587926Y-70610061D01*
X-5577105Y-70105301D01*
X-5575906Y-69866933D01*
X-5578789Y-69630726D01*
X-7848970Y-69630726D01*
X-7849412Y-69972649D01*
X-7856516Y-70312551D01*
X-7870154Y-70633089D01*
X-7890195Y-70916921D01*
X-7906066Y-71069199D01*
X-8042061Y-71911003D01*
X-8241108Y-72728562D01*
X-8502440Y-73520279D01*
X-8825292Y-74284554D01*
X-9208897Y-75019789D01*
X-9652489Y-75724386D01*
X-10155304Y-76396745D01*
X-10716573Y-77035267D01*
X-10811872Y-77134309D01*
X-11384605Y-77676493D01*
X-12006267Y-78179686D01*
X-12665341Y-78635450D01*
X-13350304Y-79035349D01*
X-13545669Y-79136415D01*
X-13863144Y-79292785D01*
X-14141508Y-79421720D01*
X-14399628Y-79530808D01*
X-14656370Y-79627637D01*
X-14930601Y-79719795D01*
X-15208250Y-79805103D01*
X-16015557Y-80015932D01*
X-16808095Y-80162922D01*
X-17592046Y-80246645D01*
X-18373594Y-80267674D01*
X-19158924Y-80226580D01*
X-19442836Y-80196797D01*
X-20242117Y-80073305D01*
X-21008330Y-79894920D01*
X-21752172Y-79658441D01*
X-22484339Y-79360672D01*
X-22898023Y-79163560D01*
X-23626053Y-78764974D01*
X-24306228Y-78322369D01*
X-24941782Y-77832822D01*
X-25535948Y-77293412D01*
X-26091958Y-76701219D01*
X-26613046Y-76053320D01*
X-27074989Y-75389240D01*
X-27182191Y-75213488D01*
X-27307303Y-74991077D01*
X-27442557Y-74737450D01*
X-27580190Y-74468053D01*
X-27712435Y-74198330D01*
X-27831527Y-73943724D01*
X-27929700Y-73719681D01*
X-27987034Y-73575333D01*
X-28255270Y-72758091D01*
X-28457492Y-71935739D01*
X-28593528Y-71110586D01*
X-28663206Y-70284943D01*
X-28666353Y-69461121D01*
X-28602797Y-68641430D01*
X-28472365Y-67828181D01*
X-28430537Y-67631733D01*
X-28286968Y-67050217D01*
X-28123524Y-66511834D01*
X-27931788Y-65992962D01*
X-27703346Y-65469977D01*
X-27542665Y-65139419D01*
X-27142858Y-64419002D01*
X-26687074Y-63734472D01*
X-26178588Y-63088903D01*
X-25620676Y-62485366D01*
X-25016614Y-61926933D01*
X-24369676Y-61416676D01*
X-23683139Y-60957668D01*
X-22960278Y-60552981D01*
X-22345104Y-60264846D01*
X-21612822Y-59981562D01*
X-20876593Y-59759704D01*
X-20127847Y-59597534D01*
X-19358013Y-59493310D01*
X-18558523Y-59445293D01*
X-18290116Y-59441496D01*
X-17444914Y-59468677D01*
X-16627302Y-59556758D01*
X-15833980Y-59706739D01*
X-15061645Y-59919617D01*
X-14306996Y-60196390D01*
X-13566730Y-60538057D01*
X-12837546Y-60945615D01*
X-12407906Y-61219575D01*
X-11812991Y-61652760D01*
X-11240413Y-62141319D01*
X-10697171Y-62677045D01*
X-10190266Y-63251731D01*
X-9726698Y-63857171D01*
X-9313466Y-64485159D01*
X-8957570Y-65127487D01*
X-8809108Y-65438608D01*
X-8547122Y-66056674D01*
X-8332802Y-66650759D01*
X-8161041Y-67239337D01*
X-8026727Y-67840885D01*
X-7924754Y-68473876D01*
X-7888910Y-68766266D01*
X-7868590Y-69010192D01*
X-7855320Y-69304126D01*
X-7848970Y-69630726D01*
X-5578789Y-69630726D01*
X-5583353Y-69256819D01*
X-5608414Y-68698454D01*
X-5653531Y-68177572D01*
X-5721146Y-67679909D01*
X-5813700Y-67191202D01*
X-5933634Y-66697186D01*
X-6083390Y-66183596D01*
X-6265410Y-65636169D01*
X-6332372Y-65447333D01*
X-6666813Y-64616531D01*
X-7062932Y-63812973D01*
X-7519917Y-63037776D01*
X-8036953Y-62292062D01*
X-8613227Y-61576948D01*
X-9247924Y-60893554D01*
X-9940231Y-60243000D01*
X-10396072Y-59858232D01*
X-10762274Y-59578794D01*
X-11178441Y-59291536D01*
X-11629040Y-59005893D01*
X-12098537Y-58731302D01*
X-12571400Y-58477198D01*
X-13032095Y-58253019D01*
X-13057716Y-58241315D01*
X-13356215Y-58113858D01*
X-13702588Y-57979945D01*
X-14078189Y-57845888D01*
X-14464373Y-57717996D01*
X-14842496Y-57602581D01*
X-15193910Y-57505952D01*
X-15329956Y-57472274D01*
X-15727714Y-57383666D01*
X-16107337Y-57312582D01*
X-16482824Y-57257583D01*
X-16868172Y-57217230D01*
X-17277382Y-57190083D01*
X-17724450Y-57174704D01*
X-18223376Y-57169652D01*
X-18273183Y-57169656D01*
G04 #@! TD*
D17*
G04 #@! TO.C,D1*
X42862500Y-49212500D03*
D18*
X35242500Y-49212500D03*
G04 #@! TD*
D17*
G04 #@! TO.C,D2*
X61912500Y-68262500D03*
D18*
X54292500Y-68262500D03*
G04 #@! TD*
D17*
G04 #@! TO.C,D3*
X87312500Y-36036250D03*
D18*
X87312500Y-43656250D03*
G04 #@! TD*
G04 #@! TO.C,D4*
X92392500Y-49212500D03*
D17*
X100012500Y-49212500D03*
G04 #@! TD*
G04 #@! TO.C,D5*
X42862500Y-68262500D03*
D18*
X35242500Y-68262500D03*
G04 #@! TD*
G04 #@! TO.C,D6*
X73342500Y-68262500D03*
D17*
X80962500Y-68262500D03*
G04 #@! TD*
G04 #@! TO.C,D7*
X80962500Y-49212500D03*
D18*
X73342500Y-49212500D03*
G04 #@! TD*
G04 #@! TO.C,D8*
X87312500Y-72231250D03*
D17*
X87312500Y-64611250D03*
G04 #@! TD*
G04 #@! TO.C,D9*
X49212500Y-72548750D03*
D18*
X49212500Y-80168750D03*
G04 #@! TD*
G04 #@! TO.C,D10*
X68262500Y-81756250D03*
D17*
X68262500Y-74136250D03*
G04 #@! TD*
G04 #@! TO.C,D11*
X63182500Y-87312500D03*
D18*
X55562500Y-87312500D03*
G04 #@! TD*
G04 #@! TO.C,D12*
X92392500Y-87312500D03*
D17*
X100012500Y-87312500D03*
G04 #@! TD*
G04 #@! TO.C,D13*
X42862500Y-87312500D03*
D18*
X35242500Y-87312500D03*
G04 #@! TD*
D17*
G04 #@! TO.C,D14*
X49212500Y-94456250D03*
D18*
X49212500Y-102076250D03*
G04 #@! TD*
D17*
G04 #@! TO.C,D15*
X68262500Y-92868750D03*
D18*
X68262500Y-100488750D03*
G04 #@! TD*
G04 #@! TO.C,D16*
X73342500Y-87312500D03*
D17*
X80962500Y-87312500D03*
G04 #@! TD*
G04 #@! TO.C,D17*
X53181250Y-106362500D03*
D18*
X45561250Y-106362500D03*
G04 #@! TD*
G04 #@! TO.C,D18*
X68262500Y-119856250D03*
D17*
X68262500Y-112236250D03*
G04 #@! TD*
D18*
G04 #@! TO.C,D19*
X73342500Y-106362500D03*
D17*
X80962500Y-106362500D03*
G04 #@! TD*
D18*
G04 #@! TO.C,D20*
X87312500Y-110331250D03*
D17*
X87312500Y-102711250D03*
G04 #@! TD*
D19*
G04 #@! TO.C,MX1*
X42207500Y-34897500D03*
D20*
X42187500Y-35187500D02*
X42227500Y-34607500D01*
D19*
X42227500Y-34607500D03*
X36532501Y-36417500D03*
D20*
X35877500Y-37147500D02*
X37187502Y-35687500D01*
D21*
X39687500Y-39687500D03*
D19*
X37187500Y-35687500D03*
D22*
X34607500Y-39687500D03*
X44767500Y-39687500D03*
G04 #@! TD*
G04 #@! TO.C,MX2*
X63817500Y-39687500D03*
X53657500Y-39687500D03*
D19*
X56237500Y-35687500D03*
D21*
X58737500Y-39687500D03*
D19*
X55582501Y-36417500D03*
D20*
X54927500Y-37147500D02*
X56237502Y-35687500D01*
D19*
X61277500Y-34607500D03*
X61257500Y-34897500D03*
D20*
X61237500Y-35187500D02*
X61277500Y-34607500D01*
G04 #@! TD*
D19*
G04 #@! TO.C,MX3*
X80307500Y-34897500D03*
D20*
X80287500Y-35187500D02*
X80327500Y-34607500D01*
D19*
X80327500Y-34607500D03*
X74632501Y-36417500D03*
D20*
X73977500Y-37147500D02*
X75287502Y-35687500D01*
D21*
X77787500Y-39687500D03*
D19*
X75287500Y-35687500D03*
D22*
X72707500Y-39687500D03*
X82867500Y-39687500D03*
G04 #@! TD*
G04 #@! TO.C,MX4*
X101917500Y-39687500D03*
X91757500Y-39687500D03*
D19*
X94337500Y-35687500D03*
D21*
X96837500Y-39687500D03*
D19*
X93682501Y-36417500D03*
D20*
X93027500Y-37147500D02*
X94337502Y-35687500D01*
D19*
X99377500Y-34607500D03*
X99357500Y-34897500D03*
D20*
X99337500Y-35187500D02*
X99377500Y-34607500D01*
G04 #@! TD*
D19*
G04 #@! TO.C,MX5*
X42207500Y-53947500D03*
D20*
X42187500Y-54237500D02*
X42227500Y-53657500D01*
D19*
X42227500Y-53657500D03*
X36532501Y-55467500D03*
D20*
X35877500Y-56197500D02*
X37187502Y-54737500D01*
D21*
X39687500Y-58737500D03*
D19*
X37187500Y-54737500D03*
D22*
X34607500Y-58737500D03*
X44767500Y-58737500D03*
G04 #@! TD*
G04 #@! TO.C,MX6*
X63817500Y-58737500D03*
X53657500Y-58737500D03*
D19*
X56237500Y-54737500D03*
D21*
X58737500Y-58737500D03*
D19*
X55582501Y-55467500D03*
D20*
X54927500Y-56197500D02*
X56237502Y-54737500D01*
D19*
X61277500Y-53657500D03*
X61257500Y-53947500D03*
D20*
X61237500Y-54237500D02*
X61277500Y-53657500D01*
G04 #@! TD*
D19*
G04 #@! TO.C,MX7*
X80307500Y-53947500D03*
D20*
X80287500Y-54237500D02*
X80327500Y-53657500D01*
D19*
X80327500Y-53657500D03*
X74632501Y-55467500D03*
D20*
X73977500Y-56197500D02*
X75287502Y-54737500D01*
D21*
X77787500Y-58737500D03*
D19*
X75287500Y-54737500D03*
D22*
X72707500Y-58737500D03*
X82867500Y-58737500D03*
G04 #@! TD*
D19*
G04 #@! TO.C,MX8*
X99357500Y-53947500D03*
D20*
X99337500Y-54237500D02*
X99377500Y-53657500D01*
D19*
X99377500Y-53657500D03*
X93682501Y-55467500D03*
D20*
X93027500Y-56197500D02*
X94337502Y-54737500D01*
D21*
X96837500Y-58737500D03*
D19*
X94337500Y-54737500D03*
D22*
X91757500Y-58737500D03*
X101917500Y-58737500D03*
G04 #@! TD*
D19*
G04 #@! TO.C,MX9*
X92047500Y-65742500D03*
D20*
X92337500Y-65762500D02*
X91757500Y-65722500D01*
D19*
X91757500Y-65722500D03*
X93567500Y-71417499D03*
D20*
X94297500Y-72072500D02*
X92837500Y-70762498D01*
D21*
X96837500Y-68262500D03*
D19*
X92837500Y-70762500D03*
D22*
X96837500Y-73342500D03*
X96837500Y-63182500D03*
D23*
X103822500Y-80200500D03*
X103822500Y-56324500D03*
D21*
X88582500Y-80200500D03*
X88582500Y-56324500D03*
G04 #@! TD*
D22*
G04 #@! TO.C,MX10*
X44767500Y-77787500D03*
X34607500Y-77787500D03*
D19*
X37187500Y-73787500D03*
D21*
X39687500Y-77787500D03*
D19*
X36532501Y-74517500D03*
D20*
X35877500Y-75247500D02*
X37187502Y-73787500D01*
D19*
X42227500Y-72707500D03*
X42207500Y-72997500D03*
D20*
X42187500Y-73287500D02*
X42227500Y-72707500D01*
G04 #@! TD*
D22*
G04 #@! TO.C,MX11*
X63817500Y-77787500D03*
X53657500Y-77787500D03*
D19*
X56237500Y-73787500D03*
D21*
X58737500Y-77787500D03*
D19*
X55582501Y-74517500D03*
D20*
X54927500Y-75247500D02*
X56237502Y-73787500D01*
D19*
X61277500Y-72707500D03*
X61257500Y-72997500D03*
D20*
X61237500Y-73287500D02*
X61277500Y-72707500D01*
G04 #@! TD*
D22*
G04 #@! TO.C,MX12*
X82867500Y-77787500D03*
X72707500Y-77787500D03*
D19*
X75287500Y-73787500D03*
D21*
X77787500Y-77787500D03*
D19*
X74632501Y-74517500D03*
D20*
X73977500Y-75247500D02*
X75287502Y-73787500D01*
D19*
X80327500Y-72707500D03*
X80307500Y-72997500D03*
D20*
X80287500Y-73287500D02*
X80327500Y-72707500D01*
G04 #@! TD*
D19*
G04 #@! TO.C,MX13*
X99357500Y-72997500D03*
D20*
X99337500Y-73287500D02*
X99377500Y-72707500D01*
D19*
X99377500Y-72707500D03*
X93682501Y-74517500D03*
D20*
X93027500Y-75247500D02*
X94337502Y-73787500D01*
D21*
X96837500Y-77787500D03*
D19*
X94337500Y-73787500D03*
D22*
X91757500Y-77787500D03*
X101917500Y-77787500D03*
G04 #@! TD*
D19*
G04 #@! TO.C,MX14*
X42207500Y-92047500D03*
D20*
X42187500Y-92337500D02*
X42227500Y-91757500D01*
D19*
X42227500Y-91757500D03*
X36532501Y-93567500D03*
D20*
X35877500Y-94297500D02*
X37187502Y-92837500D01*
D21*
X39687500Y-96837500D03*
D19*
X37187500Y-92837500D03*
D22*
X34607500Y-96837500D03*
X44767500Y-96837500D03*
G04 #@! TD*
G04 #@! TO.C,MX15*
X63817500Y-96837500D03*
X53657500Y-96837500D03*
D19*
X56237500Y-92837500D03*
D21*
X58737500Y-96837500D03*
D19*
X55582501Y-93567500D03*
D20*
X54927500Y-94297500D02*
X56237502Y-92837500D01*
D19*
X61277500Y-91757500D03*
X61257500Y-92047500D03*
D20*
X61237500Y-92337500D02*
X61277500Y-91757500D01*
G04 #@! TD*
D19*
G04 #@! TO.C,MX16*
X80307500Y-92047500D03*
D20*
X80287500Y-92337500D02*
X80327500Y-91757500D01*
D19*
X80327500Y-91757500D03*
X74632501Y-93567500D03*
D20*
X73977500Y-94297500D02*
X75287502Y-92837500D01*
D21*
X77787500Y-96837500D03*
D19*
X75287500Y-92837500D03*
D22*
X72707500Y-96837500D03*
X82867500Y-96837500D03*
G04 #@! TD*
G04 #@! TO.C,MX17*
X101917500Y-96837500D03*
X91757500Y-96837500D03*
D19*
X94337500Y-92837500D03*
D21*
X96837500Y-96837500D03*
D19*
X93682501Y-93567500D03*
D20*
X93027500Y-94297500D02*
X94337502Y-92837500D01*
D19*
X99377500Y-91757500D03*
X99357500Y-92047500D03*
D20*
X99337500Y-92337500D02*
X99377500Y-91757500D01*
G04 #@! TD*
D21*
G04 #@! TO.C,MX18*
X88582500Y-94424500D03*
X88582500Y-118300500D03*
D23*
X103822500Y-94424500D03*
X103822500Y-118300500D03*
D22*
X96837500Y-101282500D03*
X96837500Y-111442500D03*
D19*
X92837500Y-108862500D03*
D21*
X96837500Y-106362500D03*
D19*
X93567500Y-109517499D03*
D20*
X94297500Y-110172500D02*
X92837500Y-108862498D01*
D19*
X91757500Y-103822500D03*
X92047500Y-103842500D03*
D20*
X92337500Y-103862500D02*
X91757500Y-103822500D01*
G04 #@! TD*
D19*
G04 #@! TO.C,MX19*
X42207500Y-111097500D03*
D20*
X42187500Y-111387500D02*
X42227500Y-110807500D01*
D19*
X42227500Y-110807500D03*
X36532501Y-112617500D03*
D20*
X35877500Y-113347500D02*
X37187502Y-111887500D01*
D21*
X39687500Y-115887500D03*
D19*
X37187500Y-111887500D03*
D22*
X34607500Y-115887500D03*
X44767500Y-115887500D03*
G04 #@! TD*
G04 #@! TO.C,MX20*
X63817500Y-115887500D03*
X53657500Y-115887500D03*
D19*
X56237500Y-111887500D03*
D21*
X58737500Y-115887500D03*
D19*
X55582501Y-112617500D03*
D20*
X54927500Y-113347500D02*
X56237502Y-111887500D01*
D19*
X61277500Y-110807500D03*
X61257500Y-111097500D03*
D20*
X61237500Y-111387500D02*
X61277500Y-110807500D01*
G04 #@! TD*
D19*
G04 #@! TO.C,MX21*
X80307500Y-111097500D03*
D20*
X80287500Y-111387500D02*
X80327500Y-110807500D01*
D19*
X80327500Y-110807500D03*
X74632501Y-112617500D03*
D20*
X73977500Y-113347500D02*
X75287502Y-111887500D01*
D21*
X77787500Y-115887500D03*
D19*
X75287500Y-111887500D03*
D22*
X72707500Y-115887500D03*
X82867500Y-115887500D03*
G04 #@! TD*
G04 #@! TO.C,MX22*
X101917500Y-115887500D03*
X91757500Y-115887500D03*
D19*
X94337500Y-111887500D03*
D21*
X96837500Y-115887500D03*
D19*
X93682501Y-112617500D03*
D20*
X93027500Y-113347500D02*
X94337502Y-111887500D01*
D19*
X99377500Y-110807500D03*
X99357500Y-111097500D03*
D20*
X99337500Y-111387500D02*
X99377500Y-110807500D01*
G04 #@! TD*
D19*
G04 #@! TO.C,MX23*
X51732500Y-111097500D03*
D20*
X51712500Y-111387500D02*
X51752500Y-110807500D01*
D19*
X51752500Y-110807500D03*
X46057501Y-112617500D03*
D20*
X45402500Y-113347500D02*
X46712502Y-111887500D01*
D21*
X49212500Y-115887500D03*
D19*
X46712500Y-111887500D03*
D22*
X44132500Y-115887500D03*
X54292500Y-115887500D03*
D23*
X37274500Y-122872500D03*
X61150500Y-122872500D03*
D21*
X37274500Y-107632500D03*
X61150500Y-107632500D03*
G04 #@! TD*
D24*
G04 #@! TO.C,MOUSEBITE1*
X105314750Y-51752500D03*
X105314750Y-50482500D03*
X105314750Y-46672500D03*
X105314750Y-47942500D03*
X105314750Y-49212500D03*
G04 #@! TD*
G04 #@! TO.C,MOUSEBITE2*
X108204000Y-49212500D03*
X108204000Y-50482500D03*
X108204000Y-51752500D03*
X108204000Y-47942500D03*
X108204000Y-46672500D03*
G04 #@! TD*
G04 #@! TO.C,MOUSEBITE3*
X105314750Y-108902500D03*
X105314750Y-107632500D03*
X105314750Y-103822500D03*
X105314750Y-105092500D03*
X105314750Y-106362500D03*
G04 #@! TD*
G04 #@! TO.C,MOUSEBITE4*
X108204000Y-106362500D03*
X108204000Y-107632500D03*
X108204000Y-108902500D03*
X108204000Y-105092500D03*
X108204000Y-103822500D03*
G04 #@! TD*
G04 #@! TO.C,MOUSEBITE5*
X28321000Y-51752500D03*
X28321000Y-50482500D03*
X28321000Y-46672500D03*
X28321000Y-47942500D03*
X28321000Y-49212500D03*
G04 #@! TD*
G04 #@! TO.C,MOUSEBITE6*
X31210250Y-49212500D03*
X31210250Y-50482500D03*
X31210250Y-51752500D03*
X31210250Y-47942500D03*
X31210250Y-46672500D03*
G04 #@! TD*
G04 #@! TO.C,MOUSEBITE7*
X28321000Y-108902500D03*
X28321000Y-107632500D03*
X28321000Y-103822500D03*
X28321000Y-105092500D03*
X28321000Y-106362500D03*
G04 #@! TD*
G04 #@! TO.C,MOUSEBITE8*
X31210250Y-106362500D03*
X31210250Y-107632500D03*
X31210250Y-108902500D03*
X31210250Y-105092500D03*
X31210250Y-103822500D03*
G04 #@! TD*
M02*
